999
FreeCAD v0.19 24291 (Git)
  0
SECTION
  2
HEADER
  9
$ACADVER
  1
AC1014
  9
$ACADMAINTVER
 70
     9
  9
$DWGCODEPAGE
  3
ANSI_1252
  9
$TEXTSTYLE
  7
STANDARD
  9
$DIMSTYLE
  2
STANDARD
  9
$DIMTXSTY
  7
STANDARD
  9
$CMLSTYLE
  2
STANDARD
  9
$PEXTMAX
 10
50
 20
50
 30
50
  9
$PEXTMIN
 10
0
 20
0
 30
0
  9
$HANDSEED
  5
FFFF
  0
ENDSEC
  0
SECTION
  2
CLASSES
  0
CLASS
  1
ACDBDICTIONARYWDFLT
  2
AcDbDictionaryWithDefault
  3
ObjectDBX Classes
 90
        0
280
     0
281
     0
  0
CLASS
  1
XRECORD
  2
AcDbXrecord
  3
ObjectDBX Classes
 90
        0
280
     0
281
     0
  0
CLASS
  1
LWPOLYLINE
  2
AcDbPolyline
  3
ObjectDBX Classes
 90
        0
280
     0
281
     1
  0
ENDSEC
  0
SECTION
  2
TABLES
  0
TABLE
  2
VPORT
  5
20
330
0
100
AcDbSymbolTable
 70
     1
  0
VPORT
  5
21
330
20
100
AcDbSymbolTableRecord
100
AcDbViewportTableRecord
  2
*ACTIVE
 70
     0
  0
ENDTAB
  0
TABLE
  2
LTYPE
  5
22
330
0
100
AcDbSymbolTable
 70
     1
  0
LTYPE
  5
23
330
21
100
AcDbSymbolTableRecord
100
AcDbLinetypeTableRecord
  2
BYBLOCK
 70
     0
  3

 72
    65
 73
     0
 40
0.0
  0
LTYPE
  5
24
330
21
100
AcDbSymbolTableRecord
100
AcDbLinetypeTableRecord
  2
BYLAYER
 70
     0
  3

 72
    65
 73
     0
 40
0.0
  0
LTYPE
  5
25
330
21
100
AcDbSymbolTableRecord
100
AcDbLinetypeTableRecord
  2
CONTINUOUS
 70
     0
  3
Solid line
 72
    65
 73
     0
 40
0.0
  0
ENDTAB
  0
TABLE
  2
LAYER
  5
A97
330
0
100
AcDbSymbolTable
 70
15
  0
LAYER
  5
A98
330
A97
100
AcDbSymbolTableRecord
100
AcDbLayerTableRecord
  2
0
 70
   0
 62
   7
  6
CONTINUOUS
  0
LAYER
  5
A99
330
A97
100
AcDbSymbolTableRecord
100
AcDbLayerTableRecord
  2
View
 70
    0
 62
    7
  6
CONTINUOUS
  0
LAYER
  5
A9A
330
A97
100
AcDbSymbolTableRecord
100
AcDbLayerTableRecord
  2
Dimension
 70
    0
 62
    7
  6
CONTINUOUS
  0
LAYER
  5
A9B
330
A97
100
AcDbSymbolTableRecord
100
AcDbLayerTableRecord
  2
Dimension001
 70
    0
 62
    7
  6
CONTINUOUS
  0
LAYER
  5
A9C
330
A97
100
AcDbSymbolTableRecord
100
AcDbLayerTableRecord
  2
Dimension002
 70
    0
 62
    7
  6
CONTINUOUS
  0
LAYER
  5
A9D
330
A97
100
AcDbSymbolTableRecord
100
AcDbLayerTableRecord
  2
Dimension003
 70
    0
 62
    7
  6
CONTINUOUS
  0
LAYER
  5
A9E
330
A97
100
AcDbSymbolTableRecord
100
AcDbLayerTableRecord
  2
Dimension004
 70
    0
 62
    7
  6
CONTINUOUS
  0
LAYER
  5
A9F
330
A97
100
AcDbSymbolTableRecord
100
AcDbLayerTableRecord
  2
Dimension005
 70
    0
 62
    7
  6
CONTINUOUS
  0
LAYER
  5
AA0
330
A97
100
AcDbSymbolTableRecord
100
AcDbLayerTableRecord
  2
Dimension006
 70
    0
 62
    7
  6
CONTINUOUS
  0
LAYER
  5
AA1
330
A97
100
AcDbSymbolTableRecord
100
AcDbLayerTableRecord
  2
Dimension007
 70
    0
 62
    7
  6
CONTINUOUS
  0
LAYER
  5
AA2
330
A97
100
AcDbSymbolTableRecord
100
AcDbLayerTableRecord
  2
Dimension008
 70
    0
 62
    7
  6
CONTINUOUS
  0
LAYER
  5
AA3
330
A97
100
AcDbSymbolTableRecord
100
AcDbLayerTableRecord
  2
Dimension009
 70
    0
 62
    7
  6
CONTINUOUS
  0
LAYER
  5
AA4
330
A97
100
AcDbSymbolTableRecord
100
AcDbLayerTableRecord
  2
Dimension010
 70
    0
 62
    7
  6
CONTINUOUS
  0
LAYER
  5
AA5
330
A97
100
AcDbSymbolTableRecord
100
AcDbLayerTableRecord
  2
Dimension011
 70
    0
 62
    7
  6
CONTINUOUS
  0
LAYER
  5
AA6
330
A97
100
AcDbSymbolTableRecord
100
AcDbLayerTableRecord
  2
Dimension012
 70
    0
 62
    7
  6
CONTINUOUS
  0
ENDTAB
  0
TABLE
  2
STYLE
  5
70
330
0
100
AcDbSymbolTable
 70
     2
  0
STYLE
  5
71
330
70
100
AcDbSymbolTableRecord
100
AcDbTextStyleTableRecord
  2
STANDARD
 70
     0
 40
0.0
 41
1.0
 50
0.0
 71
     0
 42
2.5
  3
arial.ttf
  4

  0
STYLE
  5
72
330
70
100
AcDbSymbolTableRecord
100
AcDbTextStyleTableRecord
  2
ANNOTATIVE
 70
     0
 40
0.0
 41
1.0
 50
0.0
 71
     0
 42
2.5
  3
arial.ttf
  4

  0
ENDTAB
  0
TABLE
  2
VIEW
  5
73
330
0
100
AcDbSymbolTable
 70
     0
  0
ENDTAB
  0
TABLE
  2
UCS
  5
74
330
0
100
AcDbSymbolTable
 70
     0
  0
ENDTAB
  0
TABLE
  2
APPID
  5
75
330
0
100
AcDbSymbolTable
 70
     2
  0
APPID
  5
76
330
75
100
AcDbSymbolTableRecord
100
AcDbRegAppTableRecord
  2
ACAD
 70
     0
  0
APPID
  5
77
330
75
100
AcDbSymbolTableRecord
100
AcDbRegAppTableRecord
  2
ACADANNOTATIVE
 70
     0
  0
ENDTAB
  0
TABLE
  2
DIMSTYLE
  5
78
330
0
100
AcDbSymbolTable
 70
     2
  0
DIMSTYLE
105
79
330
78
100
AcDbSymbolTableRecord
100
AcDbDimStyleTableRecord
  2
STANDARD
 70
     0
  3

  4

  5

  6

  7

 40
0.0
 41
2.5
 42
0.625
 43
3.75
 44
1.25
 45
0.0
 46
0.0
 47
0.0
 48
0.0
140
2.5
141
2.5
142
0.0
143
0.03937007874016
144
1.0
145
0.0
146
1.0
147
0.625
 71
     0
 72
     0
 73
     0
 74
     0
 75
     0
 76
     0
 77
     1
 78
     8
170
     0
171
     3
172
     1
173
     0
174
     0
175
     0
176
     0
177
     0
178
     0
270
     2
271
     2
272
     2
273
     2
274
     3
340
71
275
     0
280
     0
281
     0
282
     0
283
     0
284
     8
285
     0
286
     0
287
     3
288
     0
  0
ENDTAB
  0
TABLE
  2
BLOCK_RECORD
  5
A01
330
0
100
AcDbSymbolTable
  70
5
  0
BLOCK_RECORD
  5
A02
330
A01
100
AcDbSymbolTableRecord
100
AcDbBlockTableRecord
  2
*MODEL_SPACE
  0
BLOCK_RECORD
  5
A03
330
A01
100
AcDbSymbolTableRecord
100
AcDbBlockTableRecord
  2
*PAPER_SPACE
  0
BLOCK_RECORD
  5
A19
330
A01
100
AcDbSymbolTableRecord
100
AcDbBlockTableRecord
  2
*Dimension
  0
BLOCK_RECORD
  5
A20
330
A01
100
AcDbSymbolTableRecord
100
AcDbBlockTableRecord
  2
*Dimension001
  0
BLOCK_RECORD
  5
A2A
330
A01
100
AcDbSymbolTableRecord
100
AcDbBlockTableRecord
  2
*Dimension002
  0
BLOCK_RECORD
  5
A34
330
A01
100
AcDbSymbolTableRecord
100
AcDbBlockTableRecord
  2
*Dimension003
  0
BLOCK_RECORD
  5
A3E
330
A01
100
AcDbSymbolTableRecord
100
AcDbBlockTableRecord
  2
*Dimension004
  0
BLOCK_RECORD
  5
A48
330
A01
100
AcDbSymbolTableRecord
100
AcDbBlockTableRecord
  2
*Dimension005
  0
BLOCK_RECORD
  5
A52
330
A01
100
AcDbSymbolTableRecord
100
AcDbBlockTableRecord
  2
*Dimension006
  0
BLOCK_RECORD
  5
A5C
330
A01
100
AcDbSymbolTableRecord
100
AcDbBlockTableRecord
  2
*Dimension007
  0
BLOCK_RECORD
  5
A66
330
A01
100
AcDbSymbolTableRecord
100
AcDbBlockTableRecord
  2
*Dimension008
  0
BLOCK_RECORD
  5
A70
330
A01
100
AcDbSymbolTableRecord
100
AcDbBlockTableRecord
  2
*Dimension009
  0
BLOCK_RECORD
  5
A7A
330
A01
100
AcDbSymbolTableRecord
100
AcDbBlockTableRecord
  2
*Dimension010
  0
BLOCK_RECORD
  5
A84
330
A01
100
AcDbSymbolTableRecord
100
AcDbBlockTableRecord
  2
*Dimension011
  0
BLOCK_RECORD
  5
A8E
330
A01
100
AcDbSymbolTableRecord
100
AcDbBlockTableRecord
  2
*Dimension012
  0
ENDTAB
  0
ENDSEC
  0
SECTION
  2
BLOCKS
  0
BLOCK
  5
A04
330
A02
100
AcDbEntity
  8
0
100
AcDbBlockBegin
  2
*MODEL_SPACE
 70
   0
 10
0
 20
0
 30
0
  3
*MODEL_SPACE
  1
 
  0
ENDBLK
  5
A05
330
A02
100
AcDbEntity
  8
0
100
AcDbBlockEnd
  0
BLOCK
  5
A06
330
A03
100
AcDbEntity
 67
1
  8
0
100
AcDbBlockBegin
  2
*PAPER_SPACE
 70
   0
 10
0
 20
0
 30
0
  3
*PAPER_SPACE
  1
 
  0
ENDBLK
  5
A07
330
A03
100
AcDbEntity
 67
    1
  8
0
100
AcDbBlockEnd
  0
BLOCK
  5
A1A
330
A19
100
AcDbEntity
  8
Dimension
100
AcDbBlockBegin
  2
*Dimension
 70
   1
 10
0
 20
0
 30
0
  3
*Dimension
  1
 
  0
LINE
  5
A1B
330
A19
100
AcDbEntity
  8
Dimension
100
AcDbLine
 10
165.824
 20
92.05
 30
0
 11
169.496
 21
90.9607
 31
0
  0
TEXT
  5
A1C
330
A19
100
AcDbEntity
  8
Dimension
100
AcDbText
 10
173.135
 20
83.0522
 30
0
 40
3.5
  1
R mm
  7
STANDARD
 72
1
 11
173.135
 21
83.0522
 31
0
100
AcDbText
  0
SOLID
  5
A1D
330
A19
100
AcDbEntity
  8
0
 62
     0
100
AcDbTrace
 10
164.821
 20
92.7822
 30
0
 11
164.584
 21
91.9833
 31
0
 12
169.496
 22
90.9607
 32
0
 13
169.496
 23
90.9607
 33
0
  0
ENDBLK
  5
A1E
330
A19
100
AcDbEntity
  8
Dimension
100
AcDbBlockEnd
  0
BLOCK
  5
A21
330
A20
100
AcDbEntity
  8
Dimension001
100
AcDbBlockBegin
  2
*Dimension001
 70
   1
 10
0
 20
0
 30
0
  3
*Dimension001
  1
 
  0
LINE
  5
A22
330
A20
100
AcDbEntity
  8
Dimension001
100
AcDbLine
 10
131.534
 20
92.05
 30
0
 11
131.534
 21
77.8793
 31
0
  0
LINE
  5
A23
330
A20
100
AcDbEntity
  8
Dimension001
100
AcDbLine
 10
165.824
 20
92.05
 30
0
 11
165.824
 21
77.8793
 31
0
  0
LINE
  5
A24
330
A20
100
AcDbEntity
  8
Dimension001
100
AcDbLine
 10
165.824
 20
77.8793
 30
0
 11
131.534
 21
77.8793
 31
0
  0
TEXT
  5
A25
330
A20
100
AcDbEntity
  8
Dimension001
100
AcDbText
 10
148.769
 20
72.8793
 30
0
 40
3.5
  1
 mm
  7
STANDARD
 72
1
 11
148.769
 21
77.8793
 31
0
100
AcDbText
  0
SOLID
  5
A26
330
A20
100
AcDbEntity
  8
0
 62
     0
100
AcDbTrace
 10
170.824
 20
77.4626
 30
0
 11
170.824
 21
78.296
 31
0
 12
165.824
 22
77.8793
 32
0
 13
165.824
 23
77.8793
 33
0
  0
SOLID
  5
A27
330
A20
100
AcDbEntity
  8
0
 62
     0
100
AcDbTrace
 10
126.534
 20
77.4626
 30
0
 11
126.534
 21
78.296
 31
0
 12
131.534
 22
77.8793
 32
0
 13
131.534
 23
77.8793
 33
0
  0
ENDBLK
  5
A28
330
A20
100
AcDbEntity
  8
Dimension001
100
AcDbBlockEnd
  0
BLOCK
  5
A2B
330
A2A
100
AcDbEntity
  8
Dimension002
100
AcDbBlockBegin
  2
*Dimension002
 70
   1
 10
0
 20
0
 30
0
  3
*Dimension002
  1
 
  0
LINE
  5
A2C
330
A2A
100
AcDbEntity
  8
Dimension002
100
AcDbLine
 10
133.995
 20
104.2
 30
0
 11
103.374
 21
104.2
 31
0
  0
LINE
  5
A2D
330
A2A
100
AcDbEntity
  8
Dimension002
100
AcDbLine
 10
133.995
 20
97.85
 30
0
 11
103.374
 21
97.85
 31
0
  0
LINE
  5
A2E
330
A2A
100
AcDbEntity
  8
Dimension002
100
AcDbLine
 10
103.374
 20
97.85
 30
0
 11
103.374
 21
104.2
 31
0
  0
TEXT
  5
A2F
330
A2A
100
AcDbEntity
  8
Dimension002
100
AcDbText
 10
108.374
 20
102.727
 30
0
 40
3.5
  1
 mm
  7
STANDARD
 72
1
 11
103.374
 21
102.727
 31
0
100
AcDbText
  0
SOLID
  5
A30
330
A2A
100
AcDbEntity
  8
0
 62
     0
100
AcDbTrace
 10
102.957
 20
92.85
 30
0
 11
103.791
 21
92.85
 31
0
 12
103.374
 22
97.85
 32
0
 13
103.374
 23
97.85
 33
0
  0
SOLID
  5
A31
330
A2A
100
AcDbEntity
  8
0
 62
     0
100
AcDbTrace
 10
102.957
 20
109.2
 30
0
 11
103.791
 21
109.2
 31
0
 12
103.374
 22
104.2
 32
0
 13
103.374
 23
104.2
 33
0
  0
ENDBLK
  5
A32
330
A2A
100
AcDbEntity
  8
Dimension002
100
AcDbBlockEnd
  0
BLOCK
  5
A35
330
A34
100
AcDbEntity
  8
Dimension003
100
AcDbBlockBegin
  2
*Dimension003
 70
   1
 10
0
 20
0
 30
0
  3
*Dimension003
  1
 
  0
LINE
  5
A36
330
A34
100
AcDbEntity
  8
Dimension003
100
AcDbLine
 10
133.249
 20
88.6254
 30
0
 11
108.81
 21
88.6254
 31
0
  0
LINE
  5
A37
330
A34
100
AcDbEntity
  8
Dimension003
100
AcDbLine
 10
133.249
 20
87.55
 30
0
 11
108.81
 21
87.55
 31
0
  0
LINE
  5
A38
330
A34
100
AcDbEntity
  8
Dimension003
100
AcDbLine
 10
108.81
 20
87.55
 30
0
 11
108.81
 21
88.6254
 31
0
  0
TEXT
  5
A39
330
A34
100
AcDbEntity
  8
Dimension003
100
AcDbText
 10
113.81
 20
82.0857
 30
0
 40
3.5
  1
 mm
  7
STANDARD
 72
1
 11
108.81
 21
82.0857
 31
0
100
AcDbText
  0
SOLID
  5
A3A
330
A34
100
AcDbEntity
  8
0
 62
     0
100
AcDbTrace
 10
108.393
 20
82.55
 30
0
 11
109.226
 21
82.55
 31
0
 12
108.81
 22
87.55
 32
0
 13
108.81
 23
87.55
 33
0
  0
SOLID
  5
A3B
330
A34
100
AcDbEntity
  8
0
 62
     0
100
AcDbTrace
 10
108.393
 20
93.6254
 30
0
 11
109.226
 21
93.6254
 31
0
 12
108.81
 22
88.6254
 32
0
 13
108.81
 23
88.6254
 33
0
  0
ENDBLK
  5
A3C
330
A34
100
AcDbEntity
  8
Dimension003
100
AcDbBlockEnd
  0
BLOCK
  5
A3F
330
A3E
100
AcDbEntity
  8
Dimension004
100
AcDbBlockBegin
  2
*Dimension004
 70
   1
 10
0
 20
0
 30
0
  3
*Dimension004
  1
 
  0
LINE
  5
A40
330
A3E
100
AcDbEntity
  8
Dimension004
100
AcDbLine
 10
163.364
 20
97.85
 30
0
 11
163.364
 21
100.285
 31
0
  0
LINE
  5
A41
330
A3E
100
AcDbEntity
  8
Dimension004
100
AcDbLine
 10
133.995
 20
97.85
 30
0
 11
133.995
 21
100.285
 31
0
  0
LINE
  5
A42
330
A3E
100
AcDbEntity
  8
Dimension004
100
AcDbLine
 10
133.995
 20
100.285
 30
0
 11
163.364
 21
100.285
 31
0
  0
TEXT
  5
A43
330
A3E
100
AcDbEntity
  8
Dimension004
100
AcDbText
 10
150.112
 20
105.285
 30
0
 40
3.5
  1
 mm
  7
STANDARD
 72
1
 11
150.112
 21
100.285
 31
0
100
AcDbText
  0
SOLID
  5
A44
330
A3E
100
AcDbEntity
  8
0
 62
     0
100
AcDbTrace
 10
128.995
 20
100.702
 30
0
 11
128.995
 21
99.8687
 31
0
 12
133.995
 22
100.285
 32
0
 13
133.995
 23
100.285
 33
0
  0
SOLID
  5
A45
330
A3E
100
AcDbEntity
  8
0
 62
     0
100
AcDbTrace
 10
168.364
 20
100.702
 30
0
 11
168.364
 21
99.8687
 31
0
 12
163.364
 22
100.285
 32
0
 13
163.364
 23
100.285
 33
0
  0
ENDBLK
  5
A46
330
A3E
100
AcDbEntity
  8
Dimension004
100
AcDbBlockEnd
  0
BLOCK
  5
A49
330
A48
100
AcDbEntity
  8
Dimension005
100
AcDbBlockBegin
  2
*Dimension005
 70
   1
 10
0
 20
0
 30
0
  3
*Dimension005
  1
 
  0
LINE
  5
A4A
330
A48
100
AcDbEntity
  8
Dimension005
100
AcDbLine
 10
133.141
 20
122.45
 30
0
 11
133.141
 21
136.14
 31
0
  0
LINE
  5
A4B
330
A48
100
AcDbEntity
  8
Dimension005
100
AcDbLine
 10
164.938
 20
122.45
 30
0
 11
164.938
 21
136.14
 31
0
  0
LINE
  5
A4C
330
A48
100
AcDbEntity
  8
Dimension005
100
AcDbLine
 10
164.938
 20
136.14
 30
0
 11
133.141
 21
136.14
 31
0
  0
TEXT
  5
A4D
330
A48
100
AcDbEntity
  8
Dimension005
100
AcDbText
 10
148.502
 20
131.14
 30
0
 40
3.5
  1
 mm
  7
STANDARD
 72
1
 11
148.502
 21
136.14
 31
0
100
AcDbText
  0
SOLID
  5
A4E
330
A48
100
AcDbEntity
  8
0
 62
     0
100
AcDbTrace
 10
169.938
 20
136.556
 30
0
 11
169.938
 21
135.723
 31
0
 12
164.938
 22
136.14
 32
0
 13
164.938
 23
136.14
 33
0
  0
SOLID
  5
A4F
330
A48
100
AcDbEntity
  8
0
 62
     0
100
AcDbTrace
 10
128.141
 20
136.556
 30
0
 11
128.141
 21
135.723
 31
0
 12
133.141
 22
136.14
 32
0
 13
133.141
 23
136.14
 33
0
  0
ENDBLK
  5
A50
330
A48
100
AcDbEntity
  8
Dimension005
100
AcDbBlockEnd
  0
BLOCK
  5
A53
330
A52
100
AcDbEntity
  8
Dimension006
100
AcDbBlockBegin
  2
*Dimension006
 70
   1
 10
0
 20
0
 30
0
  3
*Dimension006
  1
 
  0
LINE
  5
A54
330
A52
100
AcDbEntity
  8
Dimension006
100
AcDbLine
 10
131.104
 20
122.45
 30
0
 11
131.104
 21
146.173
 31
0
  0
LINE
  5
A55
330
A52
100
AcDbEntity
  8
Dimension006
100
AcDbLine
 10
166.254
 20
122.45
 30
0
 11
166.254
 21
146.173
 31
0
  0
LINE
  5
A56
330
A52
100
AcDbEntity
  8
Dimension006
100
AcDbLine
 10
166.254
 20
146.173
 30
0
 11
131.104
 21
146.173
 31
0
  0
TEXT
  5
A57
330
A52
100
AcDbEntity
  8
Dimension006
100
AcDbText
 10
147.963
 20
141.173
 30
0
 40
3.5
  1
 mm
  7
STANDARD
 72
1
 11
147.963
 21
146.173
 31
0
100
AcDbText
  0
SOLID
  5
A58
330
A52
100
AcDbEntity
  8
0
 62
     0
100
AcDbTrace
 10
171.254
 20
146.589
 30
0
 11
171.254
 21
145.756
 31
0
 12
166.254
 22
146.173
 32
0
 13
166.254
 23
146.173
 33
0
  0
SOLID
  5
A59
330
A52
100
AcDbEntity
  8
0
 62
     0
100
AcDbTrace
 10
126.104
 20
146.589
 30
0
 11
126.104
 21
145.756
 31
0
 12
131.104
 22
146.173
 32
0
 13
131.104
 23
146.173
 33
0
  0
ENDBLK
  5
A5A
330
A52
100
AcDbEntity
  8
Dimension006
100
AcDbBlockEnd
  0
BLOCK
  5
A5D
330
A5C
100
AcDbEntity
  8
Dimension007
100
AcDbBlockBegin
  2
*Dimension007
 70
   1
 10
0
 20
0
 30
0
  3
*Dimension007
  1
 
  0
LINE
  5
A5E
330
A5C
100
AcDbEntity
  8
Dimension007
100
AcDbLine
 10
164.109
 20
87.55
 30
0
 11
189.865
 21
87.55
 31
0
  0
LINE
  5
A5F
330
A5C
100
AcDbEntity
  8
Dimension007
100
AcDbLine
 10
163.364
 20
97.85
 30
0
 11
189.865
 21
97.85
 31
0
  0
LINE
  5
A60
330
A5C
100
AcDbEntity
  8
Dimension007
100
AcDbLine
 10
189.865
 20
97.85
 30
0
 11
189.865
 21
87.55
 31
0
  0
TEXT
  5
A61
330
A5C
100
AcDbEntity
  8
Dimension007
100
AcDbText
 10
184.878
 20
94.3125
 30
0
 40
3.5
  1
 mm
  7
STANDARD
 72
1
 11
189.865
 21
93.9516
 31
0
100
AcDbText
  0
SOLID
  5
A62
330
A5C
100
AcDbEntity
  8
0
 62
     0
100
AcDbTrace
 10
190.282
 20
102.85
 30
0
 11
189.448
 21
102.85
 31
0
 12
189.865
 22
97.85
 32
0
 13
189.865
 23
97.85
 33
0
  0
SOLID
  5
A63
330
A5C
100
AcDbEntity
  8
0
 62
     0
100
AcDbTrace
 10
190.282
 20
82.55
 30
0
 11
189.448
 21
82.55
 31
0
 12
189.865
 22
87.55
 32
0
 13
189.865
 23
87.55
 33
0
  0
ENDBLK
  5
A64
330
A5C
100
AcDbEntity
  8
Dimension007
100
AcDbBlockEnd
  0
BLOCK
  5
A67
330
A66
100
AcDbEntity
  8
Dimension008
100
AcDbBlockBegin
  2
*Dimension008
 70
   1
 10
0
 20
0
 30
0
  3
*Dimension008
  1
 
  0
LINE
  5
A68
330
A66
100
AcDbEntity
  8
Dimension008
100
AcDbLine
 10
164.938
 20
122.45
 30
0
 11
173.196
 21
122.45
 31
0
  0
LINE
  5
A69
330
A66
100
AcDbEntity
  8
Dimension008
100
AcDbLine
 10
164.938
 20
104.2
 30
0
 11
173.196
 21
104.2
 31
0
  0
LINE
  5
A6A
330
A66
100
AcDbEntity
  8
Dimension008
100
AcDbLine
 10
173.196
 20
104.2
 30
0
 11
173.196
 21
122.45
 31
0
  0
TEXT
  5
A6B
330
A66
100
AcDbEntity
  8
Dimension008
100
AcDbText
 10
178.196
 20
116.013
 30
0
 40
3.5
  1
 mm
  7
STANDARD
 72
1
 11
173.196
 21
116.013
 31
0
100
AcDbText
  0
SOLID
  5
A6C
330
A66
100
AcDbEntity
  8
0
 62
     0
100
AcDbTrace
 10
173.613
 20
99.2
 30
0
 11
172.78
 21
99.2
 31
0
 12
173.196
 22
104.2
 32
0
 13
173.196
 23
104.2
 33
0
  0
SOLID
  5
A6D
330
A66
100
AcDbEntity
  8
0
 62
     0
100
AcDbTrace
 10
173.613
 20
127.45
 30
0
 11
172.78
 21
127.45
 31
0
 12
173.196
 22
122.45
 32
0
 13
173.196
 23
122.45
 33
0
  0
ENDBLK
  5
A6E
330
A66
100
AcDbEntity
  8
Dimension008
100
AcDbBlockEnd
  0
BLOCK
  5
A71
330
A70
100
AcDbEntity
  8
Dimension009
100
AcDbBlockBegin
  2
*Dimension009
 70
   1
 10
0
 20
0
 30
0
  3
*Dimension009
  1
 
  0
LINE
  5
A72
330
A70
100
AcDbEntity
  8
Dimension009
100
AcDbLine
 10
163.364
 20
104.2
 30
0
 11
163.364
 21
121.294
 31
0
  0
LINE
  5
A73
330
A70
100
AcDbEntity
  8
Dimension009
100
AcDbLine
 10
164.938
 20
104.2
 30
0
 11
164.938
 21
121.294
 31
0
  0
LINE
  5
A74
330
A70
100
AcDbEntity
  8
Dimension009
100
AcDbLine
 10
164.938
 20
121.294
 30
0
 11
163.364
 21
121.294
 31
0
  0
TEXT
  5
A75
330
A70
100
AcDbEntity
  8
Dimension009
100
AcDbText
 10
153.759
 20
116.294
 30
0
 40
3.5
  1
 mm
  7
STANDARD
 72
1
 11
153.759
 21
121.294
 31
0
100
AcDbText
  0
SOLID
  5
A76
330
A70
100
AcDbEntity
  8
0
 62
     0
100
AcDbTrace
 10
169.938
 20
121.71
 30
0
 11
169.938
 21
120.877
 31
0
 12
164.938
 22
121.294
 32
0
 13
164.938
 23
121.294
 33
0
  0
SOLID
  5
A77
330
A70
100
AcDbEntity
  8
0
 62
     0
100
AcDbTrace
 10
158.364
 20
121.71
 30
0
 11
158.364
 21
120.877
 31
0
 12
163.364
 22
121.294
 32
0
 13
163.364
 23
121.294
 33
0
  0
ENDBLK
  5
A78
330
A70
100
AcDbEntity
  8
Dimension009
100
AcDbBlockEnd
  0
BLOCK
  5
A7B
330
A7A
100
AcDbEntity
  8
Dimension010
100
AcDbBlockBegin
  2
*Dimension010
 70
   1
 10
0
 20
0
 30
0
  3
*Dimension010
  1
 
  0
LINE
  5
A7C
330
A7A
100
AcDbEntity
  8
Dimension010
100
AcDbLine
 10
133.141
 20
104.2
 30
0
 11
133.141
 21
121.025
 31
0
  0
LINE
  5
A7D
330
A7A
100
AcDbEntity
  8
Dimension010
100
AcDbLine
 10
133.995
 20
104.2
 30
0
 11
133.995
 21
121.025
 31
0
  0
LINE
  5
A7E
330
A7A
100
AcDbEntity
  8
Dimension010
100
AcDbLine
 10
133.995
 20
121.025
 30
0
 11
133.141
 21
121.025
 31
0
  0
TEXT
  5
A7F
330
A7A
100
AcDbEntity
  8
Dimension010
100
AcDbText
 10
139.122
 20
116.025
 30
0
 40
3.5
  1
 mm
  7
STANDARD
 72
1
 11
139.122
 21
121.025
 31
0
100
AcDbText
  0
SOLID
  5
A80
330
A7A
100
AcDbEntity
  8
0
 62
     0
100
AcDbTrace
 10
138.995
 20
121.442
 30
0
 11
138.995
 21
120.608
 31
0
 12
133.995
 22
121.025
 32
0
 13
133.995
 23
121.025
 33
0
  0
SOLID
  5
A81
330
A7A
100
AcDbEntity
  8
0
 62
     0
100
AcDbTrace
 10
128.141
 20
121.442
 30
0
 11
128.141
 21
120.608
 31
0
 12
133.141
 22
121.025
 32
0
 13
133.141
 23
121.025
 33
0
  0
ENDBLK
  5
A82
330
A7A
100
AcDbEntity
  8
Dimension010
100
AcDbBlockEnd
  0
BLOCK
  5
A85
330
A84
100
AcDbEntity
  8
Dimension011
100
AcDbBlockBegin
  2
*Dimension011
 70
   1
 10
0
 20
0
 30
0
  3
*Dimension011
  1
 
  0
LINE
  5
A86
330
A84
100
AcDbEntity
  8
Dimension011
100
AcDbLine
 10
133.141
 20
122.45
 30
0
 11
133.141
 21
129.723
 31
0
  0
LINE
  5
A87
330
A84
100
AcDbEntity
  8
Dimension011
100
AcDbLine
 10
131.104
 20
122.45
 30
0
 11
131.104
 21
129.723
 31
0
  0
LINE
  5
A88
330
A84
100
AcDbEntity
  8
Dimension011
100
AcDbLine
 10
131.104
 20
129.723
 30
0
 11
133.141
 21
129.723
 31
0
  0
TEXT
  5
A89
330
A84
100
AcDbEntity
  8
Dimension011
100
AcDbText
 10
120.029
 20
134.723
 30
0
 40
3.5
  1
 mm
  7
STANDARD
 72
1
 11
120.029
 21
129.723
 31
0
100
AcDbText
  0
SOLID
  5
A8A
330
A84
100
AcDbEntity
  8
0
 62
     0
100
AcDbTrace
 10
126.104
 20
130.139
 30
0
 11
126.104
 21
129.306
 31
0
 12
131.104
 22
129.723
 32
0
 13
131.104
 23
129.723
 33
0
  0
SOLID
  5
A8B
330
A84
100
AcDbEntity
  8
0
 62
     0
100
AcDbTrace
 10
138.141
 20
130.139
 30
0
 11
138.141
 21
129.306
 31
0
 12
133.141
 22
129.723
 32
0
 13
133.141
 23
129.723
 33
0
  0
ENDBLK
  5
A8C
330
A84
100
AcDbEntity
  8
Dimension011
100
AcDbBlockEnd
  0
BLOCK
  5
A8F
330
A8E
100
AcDbEntity
  8
Dimension012
100
AcDbBlockBegin
  2
*Dimension012
 70
   1
 10
0
 20
0
 30
0
  3
*Dimension012
  1
 
  0
LINE
  5
A90
330
A8E
100
AcDbEntity
  8
Dimension012
100
AcDbLine
 10
166.254
 20
122.45
 30
0
 11
166.254
 21
129.454
 31
0
  0
LINE
  5
A91
330
A8E
100
AcDbEntity
  8
Dimension012
100
AcDbLine
 10
164.938
 20
122.45
 30
0
 11
164.938
 21
129.454
 31
0
  0
LINE
  5
A92
330
A8E
100
AcDbEntity
  8
Dimension012
100
AcDbLine
 10
164.938
 20
129.454
 30
0
 11
166.254
 21
129.454
 31
0
  0
TEXT
  5
A93
330
A8E
100
AcDbEntity
  8
Dimension012
100
AcDbText
 10
175.092
 20
134.454
 30
0
 40
3.5
  1
 mm
  7
STANDARD
 72
1
 11
175.092
 21
129.454
 31
0
100
AcDbText
  0
SOLID
  5
A94
330
A8E
100
AcDbEntity
  8
0
 62
     0
100
AcDbTrace
 10
159.938
 20
129.871
 30
0
 11
159.938
 21
129.037
 31
0
 12
164.938
 22
129.454
 32
0
 13
164.938
 23
129.454
 33
0
  0
SOLID
  5
A95
330
A8E
100
AcDbEntity
  8
0
 62
     0
100
AcDbTrace
 10
171.254
 20
129.871
 30
0
 11
171.254
 21
129.037
 31
0
 12
166.254
 22
129.454
 32
0
 13
166.254
 23
129.454
 33
0
  0
ENDBLK
  5
A96
330
A8E
100
AcDbEntity
  8
Dimension012
100
AcDbBlockEnd
  0
ENDSEC
  0
SECTION
  2
ENTITIES
  0
LINE
  5
A08
330
A02
100
AcDbEntity
  8
View
100
AcDbLine
 10
133.141
 20
122.45
 30
0
 11
131.104
 21
122.45
 31
0
  0
LINE
  5
A09
330
A02
100
AcDbEntity
  8
View
100
AcDbLine
 10
133.141
 20
122.45
 30
0
 11
133.141
 21
104.2
 31
0
  0
LINE
  5
A0A
330
A02
100
AcDbEntity
  8
View
100
AcDbLine
 10
133.995
 20
104.2
 30
0
 11
133.141
 21
104.2
 31
0
  0
LINE
  5
A0B
330
A02
100
AcDbEntity
  8
View
100
AcDbLine
 10
133.995
 20
104.2
 30
0
 11
133.995
 21
97.85
 31
0
  0
LINE
  5
A0C
330
A02
100
AcDbEntity
  8
View
100
AcDbLine
 10
163.364
 20
97.85
 30
0
 11
133.995
 21
97.85
 31
0
  0
LINE
  5
A0D
330
A02
100
AcDbEntity
  8
View
100
AcDbLine
 10
163.364
 20
104.2
 30
0
 11
163.364
 21
97.85
 31
0
  0
LINE
  5
A0E
330
A02
100
AcDbEntity
  8
View
100
AcDbLine
 10
164.938
 20
104.2
 30
0
 11
163.364
 21
104.2
 31
0
  0
LINE
  5
A0F
330
A02
100
AcDbEntity
  8
View
100
AcDbLine
 10
164.938
 20
104.2
 30
0
 11
164.938
 21
122.45
 31
0
  0
LINE
  5
A10
330
A02
100
AcDbEntity
  8
View
100
AcDbLine
 10
166.254
 20
122.45
 30
0
 11
164.938
 21
122.45
 31
0
  0
LINE
  5
A11
330
A02
100
AcDbEntity
  8
View
100
AcDbLine
 10
166.254
 20
95.8558
 30
0
 11
166.254
 21
122.45
 31
0
  0
ARC
  5
A12
330
A02
100
AcDbEntity
  8
View
100
AcDbCircle
 10
165.824
 20
92.05
 30
0
 40
3.83
100
AcDbArc
 50
-116.601
 51
83.5537
  0
LINE
  5
A13
330
A02
100
AcDbEntity
  8
View
100
AcDbLine
 10
164.109
 20
87.55
 30
0
 11
164.109
 21
88.6254
 31
0
  0
LINE
  5
A14
330
A02
100
AcDbEntity
  8
View
100
AcDbLine
 10
164.109
 20
87.55
 30
0
 11
133.249
 21
87.55
 31
0
  0
LINE
  5
A15
330
A02
100
AcDbEntity
  8
View
100
AcDbLine
 10
133.249
 20
88.6254
 30
0
 11
133.249
 21
87.55
 31
0
  0
ARC
  5
A16
330
A02
100
AcDbEntity
  8
View
100
AcDbCircle
 10
131.534
 20
92.05
 30
0
 40
3.83
100
AcDbArc
 50
96.4463
 51
-63.3986
  0
LINE
  5
A17
330
A02
100
AcDbEntity
  8
View
100
AcDbLine
 10
131.104
 20
122.45
 30
0
 11
131.104
 21
95.8558
 31
0
  0
DIMENSION
  5
A18
330
A02
100
AcDbEntity
  8
Dimension
100
AcDbDimension
  2
*Dimension
 10
165.824
 20
92.05
 30
0
 11
173.135
 21
83.0522
 31
0
 70
4
  1
R mm
  3
STANDARD
100
AcDbRadialDimension
 15
169.496
 25
90.9607
 35
0
 40
0
  0
DIMENSION
  5
A1F
330
A02
100
AcDbEntity
  8
Dimension001
100
AcDbDimension
  2
*Dimension001
 10
148.769
 20
77.8793
 30
0
 11
148.769
 21
72.8793
 31
0
 70
32
  1
 mm
  3
STANDARD
100
AcDbAlignedDimension
 13
165.824
 23
92.05
 33
0
 14
131.534
 24
92.05
 34
0
100
AcDbRotatedDimension
  0
DIMENSION
  5
A29
330
A02
100
AcDbEntity
  8
Dimension002
100
AcDbDimension
  2
*Dimension002
 10
103.374
 20
102.727
 30
0
 11
108.374
 21
102.727
 31
0
 70
32
  1
 mm
  3
STANDARD
100
AcDbAlignedDimension
 13
133.995
 23
97.85
 33
0
 14
133.995
 24
104.2
 34
0
 50
90
100
AcDbRotatedDimension
  0
DIMENSION
  5
A33
330
A02
100
AcDbEntity
  8
Dimension003
100
AcDbDimension
  2
*Dimension003
 10
108.81
 20
82.0857
 30
0
 11
113.81
 21
82.0857
 31
0
 70
32
  1
 mm
  3
STANDARD
100
AcDbAlignedDimension
 13
133.249
 23
87.55
 33
0
 14
133.249
 24
88.6254
 34
0
 50
90
100
AcDbRotatedDimension
  0
DIMENSION
  5
A3D
330
A02
100
AcDbEntity
  8
Dimension004
100
AcDbDimension
  2
*Dimension004
 10
150.112
 20
100.285
 30
0
 11
150.112
 21
105.285
 31
0
 70
32
  1
 mm
  3
STANDARD
100
AcDbAlignedDimension
 13
133.995
 23
97.85
 33
0
 14
163.364
 24
97.85
 34
0
100
AcDbRotatedDimension
  0
DIMENSION
  5
A47
330
A02
100
AcDbEntity
  8
Dimension005
100
AcDbDimension
  2
*Dimension005
 10
148.502
 20
136.14
 30
0
 11
148.502
 21
131.14
 31
0
 70
32
  1
 mm
  3
STANDARD
100
AcDbAlignedDimension
 13
164.938
 23
122.45
 33
0
 14
133.141
 24
122.45
 34
0
100
AcDbRotatedDimension
  0
DIMENSION
  5
A51
330
A02
100
AcDbEntity
  8
Dimension006
100
AcDbDimension
  2
*Dimension006
 10
147.963
 20
146.173
 30
0
 11
147.963
 21
141.173
 31
0
 70
32
  1
 mm
  3
STANDARD
100
AcDbAlignedDimension
 13
166.254
 23
122.45
 33
0
 14
131.104
 24
122.45
 34
0
100
AcDbRotatedDimension
  0
DIMENSION
  5
A5B
330
A02
100
AcDbEntity
  8
Dimension007
100
AcDbDimension
  2
*Dimension007
 10
189.865
 20
93.9516
 30
0
 11
184.878
 21
94.3125
 31
0
 70
32
  1
 mm
  3
STANDARD
100
AcDbAlignedDimension
 13
163.364
 23
97.85
 33
0
 14
164.109
 24
87.55
 34
0
 50
90
100
AcDbRotatedDimension
  0
DIMENSION
  5
A65
330
A02
100
AcDbEntity
  8
Dimension008
100
AcDbDimension
  2
*Dimension008
 10
173.196
 20
116.013
 30
0
 11
178.196
 21
116.013
 31
0
 70
32
  1
 mm
  3
STANDARD
100
AcDbAlignedDimension
 13
164.938
 23
104.2
 33
0
 14
164.938
 24
122.45
 34
0
 50
90
100
AcDbRotatedDimension
  0
DIMENSION
  5
A6F
330
A02
100
AcDbEntity
  8
Dimension009
100
AcDbDimension
  2
*Dimension009
 10
153.759
 20
121.294
 30
0
 11
153.759
 21
116.294
 31
0
 70
32
  1
 mm
  3
STANDARD
100
AcDbAlignedDimension
 13
164.938
 23
104.2
 33
0
 14
163.364
 24
104.2
 34
0
100
AcDbRotatedDimension
  0
DIMENSION
  5
A79
330
A02
100
AcDbEntity
  8
Dimension010
100
AcDbDimension
  2
*Dimension010
 10
139.122
 20
121.025
 30
0
 11
139.122
 21
116.025
 31
0
 70
32
  1
 mm
  3
STANDARD
100
AcDbAlignedDimension
 13
133.995
 23
104.2
 33
0
 14
133.141
 24
104.2
 34
0
100
AcDbRotatedDimension
  0
DIMENSION
  5
A83
330
A02
100
AcDbEntity
  8
Dimension011
100
AcDbDimension
  2
*Dimension011
 10
120.029
 20
129.723
 30
0
 11
120.029
 21
134.723
 31
0
 70
32
  1
 mm
  3
STANDARD
100
AcDbAlignedDimension
 13
131.104
 23
122.45
 33
0
 14
133.141
 24
122.45
 34
0
100
AcDbRotatedDimension
  0
DIMENSION
  5
A8D
330
A02
100
AcDbEntity
  8
Dimension012
100
AcDbDimension
  2
*Dimension012
 10
175.092
 20
129.454
 30
0
 11
175.092
 21
134.454
 31
0
 70
32
  1
 mm
  3
STANDARD
100
AcDbAlignedDimension
 13
164.938
 23
122.45
 33
0
 14
166.254
 24
122.45
 34
0
100
AcDbRotatedDimension
  0
ENDSEC
  0
SECTION
  2
OBJECTS
  0
DICTIONARY
  5
F000
330
0
100
AcDbDictionary
  3
ACAD_GROUP
350
F001
  0
DICTIONARY
  5
F001
330
F000
100
AcDbDictionary
  0
ENDSEC
  0
EOF