  0
SECTION
  2
HEADER
  9
$ACADVER
  1
AC1014
  9
$HANDSEED
  5
FFFF
  9
$MEASUREMENT
 70
     1
  0
ENDSEC
  0
SECTION
  2
TABLES
  0
TABLE
  2
VPORT
  5
8
330
0
100
AcDbSymbolTable
 70
     4
  0
VPORT
  5
2E
330
8
100
AcDbSymbolTableRecord
100
AcDbViewportTableRecord
  2
*ACTIVE
 70
     0
 10
0.0
 20
0.0
 11
1.0
 21
1.0
 12
210.0
 22
148.5
 13
0.0
 23
0.0
 14
10.0
 24
10.0
 15
10.0
 25
10.0
 16
0.0
 26
0.0
 36
1.0
 17
0.0
 27
0.0
 37
0.0
 40
341.0
 41
1.24
 42
50.0
 43
0.0
 44
0.0
 50
0.0
 51
0.0
 71
     0
 72
   100
 73
     1
 74
     3
 75
     0
 76
     0
 77
     0
 78
     0
  0
ENDTAB
  0
TABLE
  2
LTYPE
  5
5
330
0
100
AcDbSymbolTable
 70
     1
  0
LTYPE
  5
14
330
5
100
AcDbSymbolTableRecord
100
AcDbLinetypeTableRecord
  2
BYBLOCK
 70
     0
  3

 72
    65
 73
     0
 40
0.0
  0
LTYPE
  5
15
330
5
100
AcDbSymbolTableRecord
100
AcDbLinetypeTableRecord
  2
BYLAYER
 70
     0
  3

 72
    65
 73
     0
 40
0.0
  0
LTYPE
  5
16
330
5
100
AcDbSymbolTableRecord
100
AcDbLinetypeTableRecord
  2
CONTINUOUS
 70
     0
  3
Solid line
 72
    65
 73
     0
 40
0.0
  0
ENDTAB
  0
TABLE
  2
LAYER
  5
2
100
AcDbSymbolTable
 70
1
  0
LAYER
  5
50
100
AcDbSymbolTableRecord
100
AcDbLayerTableRecord
  2
0
 70
0
  6
CONTINUOUS
  0
ENDTAB
  0
TABLE
  2
STYLE
  5
3
330
0
100
AcDbSymbolTable
 70
     1
  0
STYLE
  5
11
330
3
100
AcDbSymbolTableRecord
100
AcDbTextStyleTableRecord
  2
STANDARD
 70
     0
 40
0.0
 41
1.0
 50
0.0
 71
     0
 42
2.5
  3
txt
  4

  0
ENDTAB
  0
TABLE
  2
VIEW
  5
6
330
0
100
AcDbSymbolTable
 70
     0
  0
ENDTAB
  0
TABLE
  2
UCS
  5
7
330
0
100
AcDbSymbolTable
 70
     0
  0
ENDTAB
  0
TABLE
  2
APPID
  5
9
330
0
100
AcDbSymbolTable
 70
     2
  0
APPID
  5
12
330
9
100
AcDbSymbolTableRecord
100
AcDbRegAppTableRecord
  2
ACAD
 70
     0
  0
ENDTAB
  0
TABLE
  2
DIMSTYLE
  5
A
330
0
100
AcDbSymbolTable
 70
     1
  0
DIMSTYLE
105
27
330
A
100
AcDbSymbolTableRecord
100
AcDbDimStyleTableRecord
  2
ISO-25
 70
     0
  3

  4

  5

  6

  7

 40
1.0
 41
2.5
 42
0.625
 43
3.75
 44
1.25
 45
0.0
 46
0.0
 47
0.0
 48
0.0
140
2.5
141
2.5
142
0.0
143
0.03937007874016
144
1.0
145
0.0
146
1.0
147
0.625
 71
     0
 72
     0
 73
     0
 74
     0
 75
     0
 76
     0
 77
     1
 78
     8
170
     0
171
     3
172
     1
173
     0
174
     0
175
     0
176
     0
177
     0
178
     0
270
     2
271
     2
272
     2
273
     2
274
     3
340
11
275
     0
280
     0
281
     0
282
     0
283
     0
284
     8
285
     0
286
     0
287
     3
288
     0
  0
ENDTAB
  0
TABLE
  2
BLOCK_RECORD
  5
1
330
0
100
AcDbSymbolTable
 70
     1
  0
BLOCK_RECORD
  5
1F
330
1
100
AcDbSymbolTableRecord
100
AcDbBlockTableRecord
  2
*MODEL_SPACE
  0
BLOCK_RECORD
  5
1B
330
1
100
AcDbSymbolTableRecord
100
AcDbBlockTableRecord
  2
*PAPER_SPACE
  0
ENDTAB
  0
ENDSEC
  0
SECTION
  2
BLOCKS
  0
BLOCK
  5
20
330
1F
100
AcDbEntity
  8
0
100
AcDbBlockBegin
  2
*MODEL_SPACE
 70
     0
 10
0.0
 20
0.0
 30
0.0
  3
*MODEL_SPACE
  1

  0
ENDBLK
  5
21
330
1F
100
AcDbEntity
  8
0
100
AcDbBlockEnd
  0
BLOCK
  5
1C
330
1B
100
AcDbEntity
 67
     1
  8
0
100
AcDbBlockBegin
  2
*PAPER_SPACE
  1

  0
ENDBLK
  5
1D
330
1B
100
AcDbEntity
 67
     1
  8
0
100
AcDbBlockEnd
  0
ENDSEC
  0
SECTION
  2
ENTITIES
  0
LWPOLYLINE
  5
100
100
AcDbEntity
  8
0
 62
7
100
AcDbPolyline
 90
2
 70
0
 10
28.333850
 20
-341.943084
 30
0.0
 10
812.705584
 20
-341.943084
 30
0.0
  0
LWPOLYLINE
  5
101
100
AcDbEntity
  8
0
 62
7
100
AcDbPolyline
 90
2
 70
0
 10
813.953877
 20
-341.531635
 30
0.0
 10
813.953877
 20
197.504378
 30
0.0
  0
LWPOLYLINE
  5
102
100
AcDbEntity
  8
0
 62
7
100
AcDbPolyline
 90
2
 70
0
 10
814.122369
 20
197.052219
 30
0.0
 10
28.759530
 20
197.052219
 30
0.0
  0
LWPOLYLINE
  5
103
100
AcDbEntity
  8
0
 62
7
100
AcDbPolyline
 90
2
 70
0
 10
28.757038
 20
197.475968
 30
0.0
 10
28.757038
 20
-341.531975
 30
0.0
  0
LWPOLYLINE
  5
104
100
AcDbEntity
  8
0
 62
7
100
AcDbPolyline
 90
2
 70
0
 10
421.363134
 20
197.043699
 30
0.0
 10
421.363134
 20
224.581944
 30
0.0
  0
LWPOLYLINE
  5
105
100
AcDbEntity
  8
0
 62
7
100
AcDbPolyline
 90
2
 70
0
 10
421.440945
 20
-349.463626
 30
0.0
 10
421.440945
 20
-369.855613
 30
0.0
  0
LWPOLYLINE
  5
106
100
AcDbEntity
  8
0
 62
7
100
AcDbPolyline
 90
2
 70
0
 10
28.825894
 20
-72.164130
 30
0.0
 10
0.496058
 20
-72.164130
 30
0.0
  0
LWPOLYLINE
  5
107
100
AcDbEntity
  8
0
 62
7
100
AcDbPolyline
 90
2
 70
0
 10
814.022589
 20
-72.155682
 30
0.0
 10
841.410482
 20
-72.155682
 30
0.0
  0
LWPOLYLINE
  5
108
100
AcDbEntity
  8
0
 62
7
100
AcDbPolyline
 90
2
 70
0
 10
683.172283
 20
-348.871695
 30
0.0
 10
683.172283
 20
-363.360901
 30
0.0
  0
LWPOLYLINE
  5
109
100
AcDbEntity
  8
0
 62
7
100
AcDbPolyline
 90
2
 70
0
 10
159.709606
 20
-341.943084
 30
0.0
 10
159.709606
 20
-363.202926
 30
0.0
  0
LWPOLYLINE
  5
10a
100
AcDbEntity
  8
0
 62
7
100
AcDbPolyline
 90
2
 70
0
 10
552.308031
 20
-348.871723
 30
0.0
 10
552.308031
 20
-363.360901
 30
0.0
  0
LWPOLYLINE
  5
10b
100
AcDbEntity
  8
0
 62
7
100
AcDbPolyline
 90
2
 70
0
 10
290.573858
 20
-341.943084
 30
0.0
 10
290.573858
 20
-363.202926
 30
0.0
  0
LWPOLYLINE
  5
10c
100
AcDbEntity
  8
0
 62
7
100
AcDbPolyline
 90
2
 70
0
 10
290.496047
 20
197.057843
 30
0.0
 10
290.496047
 20
218.434405
 30
0.0
  0
LWPOLYLINE
  5
10d
100
AcDbEntity
  8
0
 62
7
100
AcDbPolyline
 90
2
 70
0
 10
552.230220
 20
197.057843
 30
0.0
 10
552.230220
 20
218.434405
 30
0.0
  0
LWPOLYLINE
  5
10e
100
AcDbEntity
  8
0
 62
7
100
AcDbPolyline
 90
2
 70
0
 10
159.631792
 20
197.057843
 30
0.0
 10
159.631792
 20
218.434405
 30
0.0
  0
LWPOLYLINE
  5
10f
100
AcDbEntity
  8
0
 62
7
100
AcDbPolyline
 90
2
 70
0
 10
683.094472
 20
197.057843
 30
0.0
 10
683.094472
 20
218.434405
 30
0.0
  0
LWPOLYLINE
  5
110
100
AcDbEntity
  8
0
 62
7
100
AcDbPolyline
 90
2
 70
0
 10
28.346457
 20
62.489987
 30
0.0
 10
7.086614
 20
62.489987
 30
0.0
  0
LWPOLYLINE
  5
111
100
AcDbEntity
  8
0
 62
7
100
AcDbPolyline
 90
2
 70
0
 10
28.346457
 20
-206.801352
 30
0.0
 10
7.086614
 20
-206.801352
 30
0.0
  0
LWPOLYLINE
  5
112
100
AcDbEntity
  8
0
 62
7
100
AcDbPolyline
 90
2
 70
0
 10
814.039370
 20
62.489987
 30
0.0
 10
835.299213
 20
62.489987
 30
0.0
  0
LWPOLYLINE
  5
113
100
AcDbEntity
  8
0
 62
7
100
AcDbPolyline
 90
2
 70
0
 10
814.039370
 20
-206.801352
 30
0.0
 10
835.299213
 20
-206.801352
 30
0.0
  0
LWPOLYLINE
  5
114
100
AcDbEntity
  8
0
 62
7
100
AcDbPolyline
 90
2
 70
0
 10
388.776557
 20
-349.029698
 30
0.0
 10
814.105304
 20
-349.029698
 30
0.0
  0
LWPOLYLINE
  5
115
100
AcDbEntity
  8
0
 62
7
100
AcDbPolyline
 90
2
 70
0
 10
530.574803
 20
-341.943084
 30
0.0
 10
530.574803
 20
-356.116312
 30
0.0
  0
LWPOLYLINE
  5
116
100
AcDbEntity
  8
0
 62
7
100
AcDbPolyline
 90
2
 70
0
 10
672.307087
 20
-341.943084
 30
0.0
 10
672.307087
 20
-356.116312
 30
0.0
  0
LWPOLYLINE
  5
117
100
AcDbEntity
  8
0
 62
7
100
AcDbPolyline
 90
2
 70
0
 10
729.000000
 20
-341.943084
 30
0.0
 10
729.000000
 20
-349.029698
 30
0.0
  0
LWPOLYLINE
  5
118
100
AcDbEntity
  8
0
 62
7
100
AcDbPolyline
 90
2
 70
0
 10
700.653543
 20
-341.943084
 30
0.0
 10
700.653543
 20
-349.029698
 30
0.0
  0
LWPOLYLINE
  5
119
100
AcDbEntity
  8
0
 62
7
100
AcDbPolyline
 90
2
 70
0
 10
643.960630
 20
-341.943084
 30
0.0
 10
643.960630
 20
-349.029698
 30
0.0
  0
LWPOLYLINE
  5
11a
100
AcDbEntity
  8
0
 62
7
100
AcDbPolyline
 90
2
 70
0
 10
587.267717
 20
-341.943084
 30
0.0
 10
587.267717
 20
-349.029698
 30
0.0
  0
LWPOLYLINE
  5
11b
100
AcDbEntity
  8
0
 62
7
100
AcDbPolyline
 90
2
 70
0
 10
615.614173
 20
-341.943084
 30
0.0
 10
615.614173
 20
-349.029698
 30
0.0
  0
LWPOLYLINE
  5
11c
100
AcDbEntity
  8
0
 62
7
100
AcDbPolyline
 90
2
 70
0
 10
388.842520
 20
-341.943084
 30
0.0
 10
388.842520
 20
-356.116312
 30
0.0
  0
LWPOLYLINE
  5
11d
100
AcDbEntity
  8
0
 62
7
100
AcDbPolyline
 90
2
 70
0
 10
813.897638
 20
-341.943084
 30
0.0
 10
813.897638
 20
-356.116312
 30
0.0
  0
LWPOLYLINE
  5
11e
100
AcDbEntity
  8
0
 62
7
100
AcDbPolyline
 90
2
 70
0
 10
502.228346
 20
-341.943084
 30
0.0
 10
502.228346
 20
-349.029698
 30
0.0
  0
LWPOLYLINE
  5
11f
100
AcDbEntity
  8
0
 62
7
100
AcDbPolyline
 90
2
 70
0
 10
473.881890
 20
-341.943084
 30
0.0
 10
473.881890
 20
-349.029698
 30
0.0
  0
LWPOLYLINE
  5
120
100
AcDbEntity
  8
0
 62
7
100
AcDbPolyline
 90
2
 70
0
 10
558.921260
 20
-341.943084
 30
0.0
 10
558.921260
 20
-349.029698
 30
0.0
  0
LWPOLYLINE
  5
121
100
AcDbEntity
  8
0
 62
7
100
AcDbPolyline
 90
2
 70
0
 10
417.188976
 20
-341.943084
 30
0.0
 10
417.188976
 20
-349.029698
 30
0.0
  0
LWPOLYLINE
  5
122
100
AcDbEntity
  8
0
 62
7
100
AcDbPolyline
 90
2
 70
0
 10
785.692913
 20
-341.943084
 30
0.0
 10
785.692913
 20
-349.029698
 30
0.0
  0
LWPOLYLINE
  5
123
100
AcDbEntity
  8
0
 62
7
100
AcDbPolyline
 90
2
 70
0
 10
445.535433
 20
-341.943084
 30
0.0
 10
445.535433
 20
-349.029698
 30
0.0
  0
LWPOLYLINE
  5
124
100
AcDbEntity
  8
0
 62
7
100
AcDbPolyline
 90
2
 70
0
 10
757.346457
 20
-341.943084
 30
0.0
 10
757.346457
 20
-349.029698
 30
0.0
  0
LWPOLYLINE
  5
125
100
AcDbEntity
  8
0
 62
7
100
AcDbPolyline
 90
14
 70
1
 10
350.552126
 20
208.445807
 30
0.0
 10
350.552126
 20
205.143530
 30
0.0
 10
360.473386
 20
205.143530
 30
0.0
 10
360.473386
 20
208.445807
 30
0.0
 10
360.158740
 20
210.004069
 30
0.0
 10
359.200630
 20
211.162050
 30
0.0
 10
357.644409
 20
211.876834
 30
0.0
 10
355.512756
 20
212.134107
 30
0.0
 10
353.341417
 20
211.905379
 30
0.0
 10
352.482520
 20
211.619477
 30
0.0
 10
351.796535
 20
211.219225
 30
0.0
 10
350.866772
 20
210.061244
 30
0.0
 10
350.637165
 20
209.303543
 30
0.0
 10
350.552126
 20
208.445807
 30
0.0
  0
LWPOLYLINE
  5
126
100
AcDbEntity
  8
0
 62
7
100
AcDbPolyline
 90
12
 70
1
 10
351.739843
 20
208.345744
 30
0.0
 10
351.952441
 20
209.432264
 30
0.0
 10
352.610079
 20
210.175593
 30
0.0
 10
353.783622
 20
210.618790
 30
0.0
 10
355.512756
 20
210.761770
 30
0.0
 10
357.185197
 20
210.604504
 30
0.0
 10
358.358740
 20
210.161335
 30
0.0
 10
359.058898
 20
209.403634
 30
0.0
 10
359.288504
 20
208.345744
 30
0.0
 10
359.288504
 20
206.473036
 30
0.0
 10
351.739843
 20
206.473036
 30
0.0
 10
351.739843
 20
208.345744
 30
0.0
  0
LWPOLYLINE
  5
127
100
AcDbEntity
  8
0
 62
7
100
AcDbPolyline
 90
13
 70
1
 10
229.606299
 20
205.143530
 30
0.0
 10
229.606299
 20
211.433666
 30
0.0
 10
228.407244
 20
211.433666
 30
0.0
 10
228.407244
 20
206.458778
 30
0.0
 10
225.045354
 20
206.458778
 30
0.0
 10
225.045354
 20
210.890491
 30
0.0
 10
223.860472
 20
210.890491
 30
0.0
 10
223.860472
 20
206.458778
 30
0.0
 10
220.886929
 20
206.458778
 30
0.0
 10
220.886929
 20
211.319316
 30
0.0
 10
219.685039
 20
211.319316
 30
0.0
 10
219.685039
 20
205.143530
 30
0.0
 10
229.606299
 20
205.143530
 30
0.0
  0
LWPOLYLINE
  5
128
100
AcDbEntity
  8
0
 62
7
100
AcDbPolyline
 90
35
 70
1
 10
487.921890
 20
211.004784
 30
0.0
 10
489.123780
 20
210.718881
 30
0.0
 10
489.979843
 20
210.247055
 30
0.0
 10
490.509921
 20
209.589530
 30
0.0
 10
490.680000
 20
208.817543
 30
0.0
 10
490.424882
 20
207.888289
 30
0.0
 10
489.651024
 20
207.159218
 30
0.0
 10
488.392441
 20
206.673133
 30
0.0
 10
486.649134
 20
206.515867
 30
0.0
 10
484.920000
 20
206.673133
 30
0.0
 10
483.647244
 20
207.144932
 30
0.0
 10
482.876220
 20
207.874003
 30
0.0
 10
482.604094
 20
208.817543
 30
0.0
 10
482.745827
 20
209.503726
 30
0.0
 10
483.148346
 20
210.089874
 30
0.0
 10
483.791811
 20
210.547329
 30
0.0
 10
484.676220
 20
210.861776
 30
0.0
 10
484.676220
 20
212.219940
 30
0.0
 10
483.318425
 20
211.791029
 30
0.0
 10
482.289449
 20
211.047672
 30
0.0
 10
481.645984
 20
210.032614
 30
0.0
 10
481.416378
 20
208.817543
 30
0.0
 10
481.773543
 20
207.302113
 30
0.0
 10
482.774173
 20
206.144245
 30
0.0
 10
484.418268
 20
205.400803
 30
0.0
 10
486.649134
 20
205.143530
 30
0.0
 10
488.880000
 20
205.400803
 30
0.0
 10
490.524094
 20
206.144245
 30
0.0
 10
491.538898
 20
207.302113
 30
0.0
 10
491.881890
 20
208.817543
 30
0.0
 10
491.609764
 20
210.147048
 30
0.0
 10
490.852913
 20
211.219225
 30
0.0
 10
489.608504
 20
211.976841
 30
0.0
 10
487.921890
 20
212.377206
 30
0.0
 10
487.921890
 20
211.004784
 30
0.0
  0
LWPOLYLINE
  5
129
100
AcDbEntity
  8
0
 62
7
100
AcDbPolyline
 90
11
 70
1
 10
98.739213
 20
205.143530
 30
0.0
 10
98.739213
 20
206.473036
 30
0.0
 10
94.178268
 20
206.473036
 30
0.0
 10
94.178268
 20
210.647420
 30
0.0
 10
92.993386
 20
210.647420
 30
0.0
 10
92.993386
 20
206.473036
 30
0.0
 10
90.019843
 20
206.473036
 30
0.0
 10
90.019843
 20
211.605218
 30
0.0
 10
88.817953
 20
211.605218
 30
0.0
 10
88.817953
 20
205.143530
 30
0.0
 10
98.739213
 20
205.143530
 30
0.0
  0
LWPOLYLINE
  5
12a
100
AcDbEntity
  8
0
 62
7
100
AcDbPolyline
 90
19
 70
1
 10
616.844409
 20
210.232796
 30
0.0
 10
616.016693
 20
211.233511
 30
0.0
 10
615.458268
 20
211.490869
 30
0.0
 10
614.772283
 20
211.576674
 30
0.0
 10
613.697953
 20
211.390778
 30
0.0
 10
612.926929
 20
210.833231
 30
0.0
 10
612.456378
 20
209.932636
 30
0.0
 10
612.283465
 20
208.674563
 30
0.0
 10
612.283465
 20
205.143530
 30
0.0
 10
622.204724
 20
205.143530
 30
0.0
 10
622.204724
 20
208.874746
 30
0.0
 10
622.006299
 20
210.204252
 30
0.0
 10
621.419528
 20
211.190680
 30
0.0
 10
620.489764
 20
211.805401
 30
0.0
 10
619.231181
 20
212.019842
 30
0.0
 10
618.389291
 20
211.891121
 30
0.0
 10
617.689134
 20
211.548044
 30
0.0
 10
617.173228
 20
210.990526
 30
0.0
 10
616.844409
 20
210.232796
 30
0.0
  0
LWPOLYLINE
  5
12b
100
AcDbEntity
  8
0
 62
7
100
AcDbPolyline
 90
12
 70
1
 10
616.402205
 20
208.403004
 30
0.0
 10
616.402205
 20
206.458778
 30
0.0
 10
613.471181
 20
206.458778
 30
0.0
 10
613.471181
 20
208.517382
 30
0.0
 10
613.556220
 20
209.289285
 30
0.0
 10
613.814173
 20
209.832544
 30
0.0
 10
614.256378
 20
210.161335
 30
0.0
 10
614.914016
 20
210.275713
 30
0.0
 10
615.571654
 20
210.147077
 30
0.0
 10
616.030866
 20
209.804000
 30
0.0
 10
616.314331
 20
209.217823
 30
0.0
 10
616.402205
 20
208.403004
 30
0.0
  0
LWPOLYLINE
  5
12c
100
AcDbEntity
  8
0
 62
7
100
AcDbPolyline
 90
12
 70
1
 10
621.019843
 20
208.717480
 30
0.0
 10
621.019843
 20
206.458778
 30
0.0
 10
617.601260
 20
206.458778
 30
0.0
 10
617.601260
 20
208.588844
 30
0.0
 10
617.703307
 20
209.489439
 30
0.0
 10
618.000945
 20
210.132790
 30
0.0
 10
618.516850
 20
210.518784
 30
0.0
 10
619.259528
 20
210.647420
 30
0.0
 10
620.047559
 20
210.518784
 30
0.0
 10
620.588976
 20
210.161335
 30
0.0
 10
620.917795
 20
209.560900
 30
0.0
 10
621.019843
 20
208.717480
 30
0.0
  0
LWPOLYLINE
  5
12d
100
AcDbEntity
  8
0
 62
7
100
AcDbPolyline
 90
9
 70
1
 10
753.085984
 20
205.143530
 30
0.0
 10
753.085984
 20
206.458778
 30
0.0
 10
750.169134
 20
207.502381
 30
0.0
 10
750.169134
 20
211.462296
 30
0.0
 10
753.085984
 20
212.505927
 30
0.0
 10
753.085984
 20
213.849719
 30
0.0
 10
743.150551
 20
210.218510
 30
0.0
 10
743.150551
 20
208.760368
 30
0.0
 10
753.085984
 20
205.143530
 30
0.0
  0
LWPOLYLINE
  5
12e
100
AcDbEntity
  8
0
 62
7
100
AcDbPolyline
 90
4
 70
1
 10
748.955906
 20
207.959836
 30
0.0
 10
744.579213
 20
209.489439
 30
0.0
 10
748.955906
 20
211.019127
 30
0.0
 10
748.955906
 20
207.959836
 30
0.0
  0
LWPOLYLINE
  5
12f
100
AcDbEntity
  8
0
 62
7
100
AcDbPolyline
 90
54
 70
1
 10
16.253263
 20
-8.730485
 30
0.0
 10
16.353326
 20
-8.730485
 30
0.0
 10
17.725720
 20
-8.500879
 30
0.0
 10
18.755008
 20
-7.829068
 30
0.0
 10
19.412617
 20
-6.771745
 30
0.0
 10
19.655660
 20
-5.371430
 30
0.0
 10
19.412617
 20
-3.883241
 30
0.0
 10
18.783609
 20
-2.769226
 30
0.0
 10
17.782923
 20
-2.054895
 30
0.0
 10
16.496277
 20
-1.796942
 30
0.0
 10
15.652828
 20
-1.910328
 30
0.0
 10
14.966646
 20
-2.224974
 30
0.0
 10
14.437701
 20
-2.740879
 30
0.0
 10
14.051707
 20
-3.426863
 30
0.0
 10
13.279748
 20
-2.497100
 30
0.0
 10
12.050306
 20
-2.168281
 30
0.0
 10
10.935241
 20
-2.383714
 30
0.0
 10
10.091792
 20
-2.998832
 30
0.0
 10
9.562847
 20
-3.999462
 30
0.0
 10
9.377008
 20
-5.371430
 30
0.0
 10
9.605735
 20
-6.658359
 30
0.0
 10
10.234743
 20
-7.644816
 30
0.0
 10
11.235458
 20
-8.288281
 30
0.0
 10
12.564964
 20
-8.500879
 30
0.0
 10
12.665027
 20
-8.500879
 30
0.0
 10
12.665027
 20
-7.228123
 30
0.0
 10
11.750088
 20
-7.114737
 30
0.0
 10
11.092479
 20
-6.743399
 30
0.0
 10
10.692198
 20
-6.142454
 30
0.0
 10
10.549247
 20
-5.300564
 30
0.0
 10
10.663625
 20
-4.555052
 30
0.0
 10
10.963843
 20
-4.013635
 30
0.0
 10
11.449899
 20
-3.684816
 30
0.0
 10
12.107480
 20
-3.554422
 30
0.0
 10
12.807978
 20
-3.684816
 30
0.0
 10
13.279748
 20
-4.027808
 30
0.0
 10
13.565650
 20
-4.625919
 30
0.0
 10
13.651427
 20
-5.442296
 30
0.0
 10
13.637140
 20
-6.000722
 30
0.0
 10
14.766491
 20
-6.000722
 30
0.0
 10
14.737918
 20
-5.300564
 30
0.0
 10
14.866583
 20
-4.399147
 30
0.0
 10
15.209660
 20
-3.727336
 30
0.0
 10
15.767206
 20
-3.327651
 30
0.0
 10
16.496277
 20
-3.183084
 30
0.0
 10
17.325439
 20
-3.341824
 30
0.0
 10
17.940161
 20
-3.755682
 30
0.0
 10
18.326154
 20
-4.413320
 30
0.0
 10
18.454819
 20
-5.283556
 30
0.0
 10
18.311839
 20
-6.184974
 30
0.0
 10
17.882986
 20
-6.842611
 30
0.0
 10
17.196775
 20
-7.256470
 30
0.0
 10
16.253263
 20
-7.415210
 30
0.0
 10
16.253263
 20
-8.730485
 30
0.0
  0
LWPOLYLINE
  5
130
100
AcDbEntity
  8
0
 62
7
100
AcDbPolyline
 90
41
 70
1
 10
19.369729
 20
-143.376155
 30
0.0
 10
19.369729
 20
-136.555997
 30
0.0
 10
18.140315
 20
-136.555997
 30
0.0
 10
18.140315
 20
-141.944659
 30
0.0
 10
17.468391
 20
-141.644186
 30
0.0
 10
16.910872
 20
-141.131115
 30
0.0
 10
15.895871
 20
-139.543714
 30
0.0
 10
15.466989
 20
-138.698989
 30
0.0
 10
14.852268
 20
-137.757887
 30
0.0
 10
14.137483
 20
-137.086076
 30
0.0
 10
13.294035
 20
-136.697730
 30
0.0
 10
12.336208
 20
-136.555997
 30
0.0
 10
11.135367
 20
-136.799777
 30
0.0
 10
10.191855
 20
-137.471588
 30
0.0
 10
9.591420
 20
-138.500564
 30
0.0
 10
9.376980
 20
-139.830013
 30
0.0
 10
9.620022
 20
-141.201982
 30
0.0
 10
10.291918
 20
-142.245131
 30
0.0
 10
11.364094
 20
-142.916942
 30
0.0
 10
12.779376
 20
-143.146548
 30
0.0
 10
12.979531
 20
-143.146548
 30
0.0
 10
12.979531
 20
-141.845446
 30
0.0
 10
12.865153
 20
-141.845446
 30
0.0
 10
11.893039
 20
-141.717887
 30
0.0
 10
11.178255
 20
-141.329541
 30
0.0
 10
10.720800
 20
-140.717257
 30
0.0
 10
10.563534
 20
-139.900879
 30
0.0
 10
10.706485
 20
-139.073163
 30
0.0
 10
11.063877
 20
-138.458045
 30
0.0
 10
11.621424
 20
-138.055525
 30
0.0
 10
12.321921
 20
-137.913793
 30
0.0
 10
12.979531
 20
-138.013005
 30
0.0
 10
13.537049
 20
-138.285131
 30
0.0
 10
14.023106
 20
-138.744344
 30
0.0
 10
14.451987
 20
-139.370800
 30
0.0
 10
14.909443
 20
-140.215525
 30
0.0
 10
15.795780
 20
-141.615840
 30
0.0
 10
16.739320
 20
-142.602296
 30
0.0
 10
17.882986
 20
-143.189068
 30
0.0
 10
19.326841
 20
-143.376155
 30
0.0
 10
19.369729
 20
-143.376155
 30
0.0
  0
LWPOLYLINE
  5
131
100
AcDbEntity
  8
0
 62
7
100
AcDbPolyline
 90
54
 70
1
 10
822.047244
 20
-5.328911
 30
0.0
 10
822.047244
 20
-5.428123
 30
0.0
 10
822.276850
 20
-6.800092
 30
0.0
 10
822.948661
 20
-7.829068
 30
0.0
 10
824.005984
 20
-8.486706
 30
0.0
 10
825.406299
 20
-8.730485
 30
0.0
 10
826.894488
 20
-8.486706
 30
0.0
 10
828.008504
 20
-7.857415
 30
0.0
 10
828.722835
 20
-6.856785
 30
0.0
 10
828.980787
 20
-5.569856
 30
0.0
 10
828.867402
 20
-4.727966
 30
0.0
 10
828.552756
 20
-4.041982
 30
0.0
 10
828.036850
 20
-3.511903
 30
0.0
 10
827.350866
 20
-3.126391
 30
0.0
 10
828.280630
 20
-2.355367
 30
0.0
 10
828.609449
 20
-1.125131
 30
0.0
 10
828.394016
 20
-0.011115
 30
0.0
 10
827.778898
 20
0.833609
 30
0.0
 10
826.778268
 20
1.360853
 30
0.0
 10
825.406299
 20
1.547940
 30
0.0
 10
824.119370
 20
1.318333
 30
0.0
 10
823.132913
 20
0.689042
 30
0.0
 10
822.489449
 20
-0.311588
 30
0.0
 10
822.276850
 20
-1.641037
 30
0.0
 10
822.276850
 20
-1.740249
 30
0.0
 10
823.549606
 20
-1.740249
 30
0.0
 10
823.662992
 20
-0.824659
 30
0.0
 10
824.034331
 20
-0.167021
 30
0.0
 10
824.635276
 20
0.232664
 30
0.0
 10
825.477165
 20
0.374396
 30
0.0
 10
826.222677
 20
0.261011
 30
0.0
 10
826.764094
 20
-0.039462
 30
0.0
 10
827.092913
 20
-0.524186
 30
0.0
 10
827.223307
 20
-1.181824
 30
0.0
 10
827.092913
 20
-1.881982
 30
0.0
 10
826.749921
 20
-2.355367
 30
0.0
 10
826.151811
 20
-2.641667
 30
0.0
 10
825.335433
 20
-2.726706
 30
0.0
 10
824.777008
 20
-2.712533
 30
0.0
 10
824.777008
 20
-3.840722
 30
0.0
 10
825.477165
 20
-3.812375
 30
0.0
 10
826.378583
 20
-3.942769
 30
0.0
 10
827.050394
 20
-4.285761
 30
0.0
 10
827.450079
 20
-4.841352
 30
0.0
 10
827.594646
 20
-5.569856
 30
0.0
 10
827.435906
 20
-6.400407
 30
0.0
 10
827.022047
 20
-7.015525
 30
0.0
 10
826.364409
 20
-7.401037
 30
0.0
 10
825.494173
 20
-7.528596
 30
0.0
 10
824.592756
 20
-7.386863
 30
0.0
 10
823.935118
 20
-6.958832
 30
0.0
 10
823.521260
 20
-6.272848
 30
0.0
 10
823.362520
 20
-5.328911
 30
0.0
 10
822.047244
 20
-5.328911
 30
0.0
  0
LWPOLYLINE
  5
132
100
AcDbEntity
  8
0
 62
7
100
AcDbPolyline
 90
41
 70
1
 10
822.047244
 20
-143.376155
 30
0.0
 10
828.867402
 20
-143.376155
 30
0.0
 10
828.867402
 20
-142.145919
 30
0.0
 10
823.478740
 20
-142.145919
 30
0.0
 10
823.779213
 20
-141.474108
 30
0.0
 10
824.292283
 20
-140.918517
 30
0.0
 10
825.879685
 20
-139.903714
 30
0.0
 10
826.724409
 20
-139.472848
 30
0.0
 10
827.665512
 20
-138.860564
 30
0.0
 10
828.337323
 20
-138.143399
 30
0.0
 10
828.725669
 20
-137.301509
 30
0.0
 10
828.867402
 20
-136.343399
 30
0.0
 10
828.623622
 20
-135.141509
 30
0.0
 10
827.951811
 20
-134.197572
 30
0.0
 10
826.922835
 20
-133.599462
 30
0.0
 10
825.593386
 20
-133.384029
 30
0.0
 10
824.221417
 20
-133.627808
 30
0.0
 10
823.178268
 20
-134.299619
 30
0.0
 10
822.506457
 20
-135.371115
 30
0.0
 10
822.276850
 20
-136.785604
 30
0.0
 10
822.276850
 20
-136.986863
 30
0.0
 10
823.577953
 20
-136.986863
 30
0.0
 10
823.577953
 20
-136.873478
 30
0.0
 10
823.705512
 20
-135.901194
 30
0.0
 10
824.093858
 20
-135.184029
 30
0.0
 10
824.708976
 20
-134.727651
 30
0.0
 10
825.522520
 20
-134.571745
 30
0.0
 10
826.350236
 20
-134.713478
 30
0.0
 10
826.965354
 20
-135.070643
 30
0.0
 10
827.367874
 20
-135.629068
 30
0.0
 10
827.509606
 20
-136.329226
 30
0.0
 10
827.410394
 20
-136.986863
 30
0.0
 10
827.138268
 20
-137.545289
 30
0.0
 10
826.679055
 20
-138.030013
 30
0.0
 10
826.052598
 20
-138.458045
 30
0.0
 10
825.207874
 20
-138.917257
 30
0.0
 10
823.807559
 20
-139.801667
 30
0.0
 10
822.821102
 20
-140.745604
 30
0.0
 10
822.234331
 20
-141.890800
 30
0.0
 10
822.047244
 20
-143.333635
 30
0.0
 10
822.047244
 20
-143.376155
 30
0.0
  0
LWPOLYLINE
  5
133
100
AcDbEntity
  8
0
 62
7
100
AcDbPolyline
 90
12
 70
1
 10
19.369729
 20
130.275436
 30
0.0
 10
19.369729
 20
131.562081
 30
0.0
 10
16.910872
 20
131.562081
 30
0.0
 10
16.910872
 20
132.977137
 30
0.0
 10
15.767206
 20
132.977137
 30
0.0
 10
15.767206
 20
131.562081
 30
0.0
 10
9.662882
 20
131.562081
 30
0.0
 10
9.662882
 20
130.260979
 30
0.0
 10
15.652828
 20
125.915184
 30
0.0
 10
16.910872
 20
125.915184
 30
0.0
 10
16.910872
 20
130.275436
 30
0.0
 10
19.369729
 20
130.275436
 30
0.0
  0
LWPOLYLINE
  5
134
100
AcDbEntity
  8
0
 62
7
100
AcDbPolyline
 90
4
 70
1
 10
15.767206
 20
127.115940
 30
0.0
 10
11.321206
 20
130.275436
 30
0.0
 10
15.767206
 20
130.275436
 30
0.0
 10
15.767206
 20
127.115940
 30
0.0
  0
LWPOLYLINE
  5
135
100
AcDbEntity
  8
0
 62
7
100
AcDbPolyline
 90
11
 70
1
 10
19.369729
 20
-274.112848
 30
0.0
 10
19.369729
 20
-272.811745
 30
0.0
 10
9.377008
 20
-272.811745
 30
0.0
 10
9.377008
 20
-273.784029
 30
0.0
 10
10.249058
 20
-274.041982
 30
0.0
 10
10.835178
 20
-274.555052
 30
0.0
 10
11.178283
 20
-275.343084
 30
0.0
 10
11.292633
 20
-276.428753
 30
0.0
 10
12.307635
 20
-276.428753
 30
0.0
 10
12.307635
 20
-274.112848
 30
0.0
 10
19.369729
 20
-274.112848
 30
0.0
  0
LWPOLYLINE
  5
136
100
AcDbEntity
  8
0
 62
7
100
AcDbPolyline
 90
12
 70
1
 10
826.406929
 20
125.915184
 30
0.0
 10
827.693858
 20
125.915184
 30
0.0
 10
827.693858
 20
128.373955
 30
0.0
 10
829.111181
 20
128.373955
 30
0.0
 10
829.111181
 20
129.517735
 30
0.0
 10
827.693858
 20
129.517735
 30
0.0
 10
827.693858
 20
135.621861
 30
0.0
 10
826.392756
 20
135.621861
 30
0.0
 10
822.047244
 20
129.631971
 30
0.0
 10
822.047244
 20
128.373955
 30
0.0
 10
826.406929
 20
128.373955
 30
0.0
 10
826.406929
 20
125.915184
 30
0.0
  0
LWPOLYLINE
  5
137
100
AcDbEntity
  8
0
 62
7
100
AcDbPolyline
 90
4
 70
1
 10
823.249134
 20
129.517735
 30
0.0
 10
826.406929
 20
133.963593
 30
0.0
 10
826.406929
 20
129.517735
 30
0.0
 10
823.249134
 20
129.517735
 30
0.0
  0
LWPOLYLINE
  5
138
100
AcDbEntity
  8
0
 62
7
100
AcDbPolyline
 90
11
 70
1
 10
824.363150
 20
-278.021824
 30
0.0
 10
825.664252
 20
-278.021824
 30
0.0
 10
825.664252
 20
-268.029698
 30
0.0
 10
824.691969
 20
-268.029698
 30
0.0
 10
824.434016
 20
-268.902769
 30
0.0
 10
823.920945
 20
-269.486706
 30
0.0
 10
823.135748
 20
-269.829698
 30
0.0
 10
822.047244
 20
-269.945919
 30
0.0
 10
822.047244
 20
-270.960722
 30
0.0
 10
824.363150
 20
-270.960722
 30
0.0
 10
824.363150
 20
-278.021824
 30
0.0
  0
LWPOLYLINE
  5
139
100
AcDbEntity
  8
0
 62
7
100
AcDbPolyline
 90
11
 70
1
 10
88.817839
 20
-358.950958
 30
0.0
 10
90.147345
 20
-358.950958
 30
0.0
 10
90.147345
 20
-354.390013
 30
0.0
 10
94.321729
 20
-354.390013
 30
0.0
 10
94.321729
 20
-353.205131
 30
0.0
 10
90.147345
 20
-353.205131
 30
0.0
 10
90.147345
 20
-350.231588
 30
0.0
 10
95.279528
 20
-350.231588
 30
0.0
 10
95.279528
 20
-349.029698
 30
0.0
 10
88.817839
 20
-349.029698
 30
0.0
 10
88.817839
 20
-358.950958
 30
0.0
  0
LWPOLYLINE
  5
13a
100
AcDbEntity
  8
0
 62
7
100
AcDbPolyline
 90
13
 70
1
 10
219.685096
 20
-358.950958
 30
0.0
 10
225.975231
 20
-358.950958
 30
0.0
 10
225.975231
 20
-357.751903
 30
0.0
 10
221.000343
 20
-357.751903
 30
0.0
 10
221.000343
 20
-354.390013
 30
0.0
 10
225.432057
 20
-354.390013
 30
0.0
 10
225.432057
 20
-353.205131
 30
0.0
 10
221.000343
 20
-353.205131
 30
0.0
 10
221.000343
 20
-350.231588
 30
0.0
 10
225.860882
 20
-350.231588
 30
0.0
 10
225.860882
 20
-349.029698
 30
0.0
 10
219.685096
 20
-349.029698
 30
0.0
 10
219.685096
 20
-358.950958
 30
0.0
  0
LWPOLYLINE
  5
13b
100
AcDbEntity
  8
0
 62
7
100
AcDbPolyline
 90
14
 70
1
 10
353.854375
 20
-349.029698
 30
0.0
 10
350.552098
 20
-349.029698
 30
0.0
 10
350.552098
 20
-358.950958
 30
0.0
 10
353.854375
 20
-358.950958
 30
0.0
 10
355.412636
 20
-358.636312
 30
0.0
 10
356.570617
 20
-357.678202
 30
0.0
 10
357.285402
 20
-356.121982
 30
0.0
 10
357.542674
 20
-353.990328
 30
0.0
 10
357.313946
 20
-351.818989
 30
0.0
 10
357.028044
 20
-350.960092
 30
0.0
 10
356.627792
 20
-350.274108
 30
0.0
 10
355.469811
 20
-349.344344
 30
0.0
 10
354.712110
 20
-349.114737
 30
0.0
 10
353.854375
 20
-349.029698
 30
0.0
  0
LWPOLYLINE
  5
13c
100
AcDbEntity
  8
0
 62
7
100
AcDbPolyline
 90
12
 70
1
 10
353.754312
 20
-350.217415
 30
0.0
 10
354.840831
 20
-350.430013
 30
0.0
 10
355.584161
 20
-351.087651
 30
0.0
 10
356.027357
 20
-352.261194
 30
0.0
 10
356.170337
 20
-353.990328
 30
0.0
 10
356.013071
 20
-355.662769
 30
0.0
 10
355.569902
 20
-356.836312
 30
0.0
 10
354.812202
 20
-357.536470
 30
0.0
 10
353.754312
 20
-357.766076
 30
0.0
 10
351.881603
 20
-357.766076
 30
0.0
 10
351.881603
 20
-350.217415
 30
0.0
 10
353.754312
 20
-350.217415
 30
0.0
  0
LWPOLYLINE
  5
13d
100
AcDbEntity
  8
0
 62
7
100
AcDbPolyline
 90
2
 70
0
 10
416.956422
 20
-341.962513
 30
0.0
 10
814.066951
 20
-341.962513
 30
0.0
  0
LWPOLYLINE
  5
13e
100
AcDbEntity
  8
0
 62
7
100
AcDbPolyline
 90
2
 70
0
 10
417.086731
 20
-342.072242
 30
0.0
 10
417.086731
 20
-209.721729
 30
0.0
  0
LWPOLYLINE
  5
13f
100
AcDbEntity
  8
0
 62
7
100
AcDbPolyline
 90
2
 70
0
 10
416.956422
 20
-209.711354
 30
0.0
 10
814.066951
 20
-209.711354
 30
0.0
  0
LWPOLYLINE
  5
140
100
AcDbEntity
  8
0
 62
7
100
AcDbPolyline
 90
2
 70
0
 10
813.936643
 20
-209.616564
 30
0.0
 10
813.936643
 20
-342.072242
 30
0.0
  0
LWPOLYLINE
  5
141
100
AcDbEntity
  8
0
 62
7
100
AcDbPolyline
 90
2
 70
0
 10
416.944233
 20
-330.623930
 30
0.0
 10
754.455515
 20
-330.623930
 30
0.0
  0
LWPOLYLINE
  5
142
100
AcDbEntity
  8
0
 62
7
100
AcDbPolyline
 90
2
 70
0
 10
416.944602
 20
-293.773537
 30
0.0
 10
754.455912
 20
-293.773537
 30
0.0
  0
LWPOLYLINE
  5
143
100
AcDbEntity
  8
0
 62
7
100
AcDbPolyline
 90
2
 70
0
 10
416.944602
 20
-256.923143
 30
0.0
 10
754.455912
 20
-256.923143
 30
0.0
  0
LWPOLYLINE
  5
144
100
AcDbEntity
  8
0
 62
7
100
AcDbPolyline
 90
2
 70
0
 10
754.330904
 20
-323.063930
 30
0.0
 10
814.014907
 20
-323.063930
 30
0.0
  0
LWPOLYLINE
  5
145
100
AcDbEntity
  8
0
 62
7
100
AcDbPolyline
 90
2
 70
0
 10
754.330904
 20
-304.168182
 30
0.0
 10
814.014907
 20
-304.168182
 30
0.0
  0
LWPOLYLINE
  5
146
100
AcDbEntity
  8
0
 62
7
100
AcDbPolyline
 90
2
 70
0
 10
754.330904
 20
-285.269600
 30
0.0
 10
814.014907
 20
-285.269600
 30
0.0
  0
LWPOLYLINE
  5
147
100
AcDbEntity
  8
0
 62
7
100
AcDbPolyline
 90
2
 70
0
 10
754.330904
 20
-266.371017
 30
0.0
 10
814.014907
 20
-266.371017
 30
0.0
  0
LWPOLYLINE
  5
148
100
AcDbEntity
  8
0
 62
7
100
AcDbPolyline
 90
2
 70
0
 10
754.330904
 20
-247.475269
 30
0.0
 10
814.014907
 20
-247.475269
 30
0.0
  0
LWPOLYLINE
  5
149
100
AcDbEntity
  8
0
 62
7
100
AcDbPolyline
 90
2
 70
0
 10
754.330904
 20
-228.576686
 30
0.0
 10
814.014907
 20
-228.576686
 30
0.0
  0
LWPOLYLINE
  5
14a
100
AcDbEntity
  8
0
 62
7
100
AcDbPolyline
 90
2
 70
0
 10
466.692973
 20
-330.623930
 30
0.0
 10
466.692973
 20
-256.923143
 30
0.0
  0
LWPOLYLINE
  5
14b
100
AcDbEntity
  8
0
 62
7
100
AcDbPolyline
 90
2
 70
0
 10
524.803124
 20
-330.741228
 30
0.0
 10
524.803124
 20
-209.431489
 30
0.0
  0
LWPOLYLINE
  5
14c
100
AcDbEntity
  8
0
 62
7
100
AcDbPolyline
 90
2
 70
0
 10
700.550957
 20
-330.623930
 30
0.0
 10
700.550957
 20
-293.773537
 30
0.0
  0
LWPOLYLINE
  5
14d
100
AcDbEntity
  8
0
 62
7
100
AcDbPolyline
 90
2
 70
0
 10
754.409169
 20
-342.072242
 30
0.0
 10
754.409169
 20
-209.616564
 30
0.0
  0
LWPOLYLINE
  5
14e
100
AcDbEntity
  8
0
 62
7
100
AcDbPolyline
 90
2
 70
0
 10
768.355597
 20
-342.072242
 30
0.0
 10
768.355597
 20
-209.616564
 30
0.0
  0
LWPOLYLINE
  5
14f
100
AcDbEntity
  8
0
 62
7
100
AcDbPolyline
 90
52
 70
1
 10
420.798047
 20
-298.269143
 30
0.0
 10
420.239622
 20
-298.269143
 30
0.0
 10
420.364346
 20
-298.921112
 30
0.0
 10
420.670488
 20
-299.397332
 30
0.0
 10
421.141039
 20
-299.686466
 30
0.0
 10
421.778835
 20
-299.788513
 30
0.0
 10
422.410961
 20
-299.692135
 30
0.0
 10
422.881512
 20
-299.422844
 30
0.0
 10
423.181984
 20
-299.000482
 30
0.0
 10
423.292535
 20
-298.442056
 30
0.0
 10
423.198992
 20
-297.940324
 30
0.0
 10
422.943874
 20
-297.614340
 30
0.0
 10
422.527181
 20
-297.401741
 30
0.0
 10
421.968756
 20
-297.240167
 30
0.0
 10
421.489701
 20
-297.123946
 30
0.0
 10
421.177890
 20
-296.990718
 30
0.0
 10
420.999307
 20
-296.795127
 30
0.0
 10
420.945449
 20
-296.486151
 30
0.0
 10
420.999307
 20
-296.211190
 30
0.0
 10
421.160882
 20
-296.004261
 30
0.0
 10
421.404661
 20
-295.862529
 30
0.0
 10
421.741984
 20
-295.814340
 30
0.0
 10
422.084976
 20
-295.873867
 30
0.0
 10
422.354268
 20
-296.041112
 30
0.0
 10
422.532850
 20
-296.316072
 30
0.0
 10
422.617890
 20
-296.690245
 30
0.0
 10
423.176315
 20
-296.690245
 30
0.0
 10
423.176315
 20
-296.678907
 30
0.0
 10
423.077102
 20
-296.100639
 30
0.0
 10
422.790803
 20
-295.672608
 30
0.0
 10
422.337260
 20
-295.403316
 30
0.0
 10
421.722142
 20
-295.312608
 30
0.0
 10
421.172220
 20
-295.403316
 30
0.0
 10
420.744189
 20
-295.661269
 30
0.0
 10
420.466394
 20
-296.058119
 30
0.0
 10
420.370016
 20
-296.574025
 30
0.0
 10
420.449386
 20
-297.033238
 30
0.0
 10
420.681827
 20
-297.345049
 30
0.0
 10
421.050331
 20
-297.554812
 30
0.0
 10
421.552063
 20
-297.713552
 30
0.0
 10
422.048126
 20
-297.852450
 30
0.0
 10
422.422299
 20
-297.988513
 30
0.0
 10
422.649071
 20
-298.184104
 30
0.0
 10
422.728441
 20
-298.504419
 30
0.0
 10
422.654740
 20
-298.827568
 30
0.0
 10
422.464819
 20
-299.074182
 30
0.0
 10
422.175685
 20
-299.227253
 30
0.0
 10
421.804346
 20
-299.275442
 30
0.0
 10
421.387654
 20
-299.207411
 30
0.0
 10
421.067339
 20
-299.011820
 30
0.0
 10
420.866079
 20
-298.694340
 30
0.0
 10
420.798047
 20
-298.269143
 30
0.0
  0
LWPOLYLINE
  5
150
100
AcDbEntity
  8
0
 62
7
100
AcDbPolyline
 90
35
 70
1
 10
426.447496
 20
-298.093395
 30
0.0
 10
426.325606
 20
-298.606466
 30
0.0
 10
426.121512
 20
-298.974970
 30
0.0
 10
425.840882
 20
-299.201741
 30
0.0
 10
425.509228
 20
-299.275442
 30
0.0
 10
425.112378
 20
-299.164891
 30
0.0
 10
424.797732
 20
-298.833238
 30
0.0
 10
424.590803
 20
-298.294655
 30
0.0
 10
424.522772
 20
-297.546308
 30
0.0
 10
424.590803
 20
-296.806466
 30
0.0
 10
424.792063
 20
-296.262214
 30
0.0
 10
425.106709
 20
-295.930560
 30
0.0
 10
425.509228
 20
-295.814340
 30
0.0
 10
425.804031
 20
-295.873867
 30
0.0
 10
426.056315
 20
-296.046781
 30
0.0
 10
426.251906
 20
-296.321741
 30
0.0
 10
426.385134
 20
-296.701584
 30
0.0
 10
426.969071
 20
-296.701584
 30
0.0
 10
426.784819
 20
-296.120482
 30
0.0
 10
426.464504
 20
-295.678277
 30
0.0
 10
426.030803
 20
-295.403316
 30
0.0
 10
425.509228
 20
-295.304104
 30
0.0
 10
424.860094
 20
-295.457175
 30
0.0
 10
424.364031
 20
-295.888041
 30
0.0
 10
424.046551
 20
-296.591033
 30
0.0
 10
423.936000
 20
-297.546308
 30
0.0
 10
424.046551
 20
-298.504419
 30
0.0
 10
424.364031
 20
-299.207411
 30
0.0
 10
424.860094
 20
-299.643946
 30
0.0
 10
425.509228
 20
-299.788513
 30
0.0
 10
426.078992
 20
-299.672293
 30
0.0
 10
426.538205
 20
-299.349143
 30
0.0
 10
426.864189
 20
-298.816230
 30
0.0
 10
427.034268
 20
-298.093395
 30
0.0
 10
426.447496
 20
-298.093395
 30
0.0
  0
LWPOLYLINE
  5
151
100
AcDbEntity
  8
0
 62
7
100
AcDbPolyline
 90
9
 70
1
 10
427.280882
 20
-299.672293
 30
0.0
 10
427.844976
 20
-299.672293
 30
0.0
 10
428.290016
 20
-298.422214
 30
0.0
 10
429.987969
 20
-298.422214
 30
0.0
 10
430.435843
 20
-299.672293
 30
0.0
 10
431.011276
 20
-299.672293
 30
0.0
 10
429.455055
 20
-295.414655
 30
0.0
 10
428.831433
 20
-295.414655
 30
0.0
 10
427.280882
 20
-299.672293
 30
0.0
  0
LWPOLYLINE
  5
152
100
AcDbEntity
  8
0
 62
7
100
AcDbPolyline
 90
4
 70
1
 10
428.488441
 20
-297.903474
 30
0.0
 10
429.143244
 20
-296.026938
 30
0.0
 10
429.798047
 20
-297.903474
 30
0.0
 10
428.488441
 20
-297.903474
 30
0.0
  0
LWPOLYLINE
  5
153
100
AcDbEntity
  8
0
 62
7
100
AcDbPolyline
 90
7
 70
1
 10
431.586709
 20
-299.672293
 30
0.0
 10
434.319307
 20
-299.672293
 30
0.0
 10
434.319307
 20
-299.159222
 30
0.0
 10
432.150803
 20
-299.159222
 30
0.0
 10
432.150803
 20
-295.420324
 30
0.0
 10
431.586709
 20
-295.420324
 30
0.0
 10
431.586709
 20
-299.672293
 30
0.0
  0
LWPOLYLINE
  5
154
100
AcDbEntity
  8
0
 62
7
100
AcDbPolyline
 90
13
 70
1
 10
435.232063
 20
-299.672293
 30
0.0
 10
437.927811
 20
-299.672293
 30
0.0
 10
437.927811
 20
-299.159222
 30
0.0
 10
435.796157
 20
-299.159222
 30
0.0
 10
435.796157
 20
-297.719222
 30
0.0
 10
437.695370
 20
-297.719222
 30
0.0
 10
437.695370
 20
-297.211820
 30
0.0
 10
435.796157
 20
-297.211820
 30
0.0
 10
435.796157
 20
-295.936230
 30
0.0
 10
437.879622
 20
-295.936230
 30
0.0
 10
437.879622
 20
-295.420324
 30
0.0
 10
435.232063
 20
-295.420324
 30
0.0
 10
435.232063
 20
-299.672293
 30
0.0
  0
LWPOLYLINE
  5
155
100
AcDbEntity
  8
0
 62
7
100
AcDbPolyline
 90
14
 70
1
 10
471.183874
 20
-299.672293
 30
0.0
 10
471.722457
 20
-299.672293
 30
0.0
 10
472.334740
 20
-295.984419
 30
0.0
 10
472.966866
 20
-299.672293
 30
0.0
 10
473.482772
 20
-299.672293
 30
0.0
 10
474.228283
 20
-295.414655
 30
0.0
 10
473.737890
 20
-295.414655
 30
0.0
 10
473.210646
 20
-299.037332
 30
0.0
 10
472.606866
 20
-295.414655
 30
0.0
 10
472.071118
 20
-295.414655
 30
0.0
 10
471.478677
 20
-299.037332
 30
0.0
 10
470.951433
 20
-295.414655
 30
0.0
 10
470.449701
 20
-295.414655
 30
0.0
 10
471.183874
 20
-299.672293
 30
0.0
  0
LWPOLYLINE
  5
156
100
AcDbEntity
  8
0
 62
7
100
AcDbPolyline
 90
13
 70
1
 10
474.744189
 20
-299.672293
 30
0.0
 10
477.439937
 20
-299.672293
 30
0.0
 10
477.439937
 20
-299.159222
 30
0.0
 10
475.308283
 20
-299.159222
 30
0.0
 10
475.308283
 20
-297.719222
 30
0.0
 10
477.207496
 20
-297.719222
 30
0.0
 10
477.207496
 20
-297.211820
 30
0.0
 10
475.308283
 20
-297.211820
 30
0.0
 10
475.308283
 20
-295.936230
 30
0.0
 10
477.391748
 20
-295.936230
 30
0.0
 10
477.391748
 20
-295.420324
 30
0.0
 10
474.744189
 20
-295.420324
 30
0.0
 10
474.744189
 20
-299.672293
 30
0.0
  0
LWPOLYLINE
  5
157
100
AcDbEntity
  8
0
 62
7
100
AcDbPolyline
 90
13
 70
1
 10
479.435528
 20
-299.159222
 30
0.0
 10
478.653165
 20
-299.159222
 30
0.0
 10
478.653165
 20
-299.672293
 30
0.0
 10
480.784819
 20
-299.672293
 30
0.0
 10
480.784819
 20
-299.159222
 30
0.0
 10
479.999622
 20
-299.159222
 30
0.0
 10
479.999622
 20
-295.936230
 30
0.0
 10
480.784819
 20
-295.936230
 30
0.0
 10
480.784819
 20
-295.420324
 30
0.0
 10
478.653165
 20
-295.420324
 30
0.0
 10
478.653165
 20
-295.936230
 30
0.0
 10
479.435528
 20
-295.936230
 30
0.0
 10
479.435528
 20
-299.159222
 30
0.0
  0
LWPOLYLINE
  5
158
100
AcDbEntity
  8
0
 62
7
100
AcDbPolyline
 90
41
 70
1
 10
484.529386
 20
-299.102529
 30
0.0
 10
484.631433
 20
-299.672293
 30
0.0
 10
484.937575
 20
-299.672293
 30
0.0
 10
484.937575
 20
-297.376230
 30
0.0
 10
483.389858
 20
-297.376230
 30
0.0
 10
483.389858
 20
-297.897804
 30
0.0
 10
484.345134
 20
-297.897804
 30
0.0
 10
484.345134
 20
-297.934655
 30
0.0
 10
484.271433
 20
-298.495915
 30
0.0
 10
484.075843
 20
-298.912608
 30
0.0
 10
483.775370
 20
-299.176230
 30
0.0
 10
483.401197
 20
-299.264104
 30
0.0
 10
482.984504
 20
-299.153552
 30
0.0
 10
482.658520
 20
-298.821899
 30
0.0
 10
482.451591
 20
-298.277647
 30
0.0
 10
482.377890
 20
-297.529301
 30
0.0
 10
482.445921
 20
-296.786623
 30
0.0
 10
482.652850
 20
-296.242371
 30
0.0
 10
482.984504
 20
-295.910718
 30
0.0
 10
483.432378
 20
-295.794497
 30
0.0
 10
483.738520
 20
-295.856860
 30
0.0
 10
483.987969
 20
-296.026938
 30
0.0
 10
484.172220
 20
-296.316072
 30
0.0
 10
484.277102
 20
-296.701584
 30
0.0
 10
484.883717
 20
-296.701584
 30
0.0
 10
484.724976
 20
-296.114812
 30
0.0
 10
484.424504
 20
-295.672608
 30
0.0
 10
484.002142
 20
-295.403316
 30
0.0
 10
483.469228
 20
-295.304104
 30
0.0
 10
482.769071
 20
-295.457175
 30
0.0
 10
482.241827
 20
-295.905049
 30
0.0
 10
481.907339
 20
-296.610875
 30
0.0
 10
481.788283
 20
-297.546308
 30
0.0
 10
481.907339
 20
-298.490245
 30
0.0
 10
482.241827
 20
-299.196072
 30
0.0
 10
482.737890
 20
-299.643946
 30
0.0
 10
483.364346
 20
-299.788513
 30
0.0
 10
483.713008
 20
-299.740324
 30
0.0
 10
484.024819
 20
-299.618434
 30
0.0
 10
484.294110
 20
-299.403001
 30
0.0
 10
484.529386
 20
-299.102529
 30
0.0
  0
LWPOLYLINE
  5
159
100
AcDbEntity
  8
0
 62
7
100
AcDbPolyline
 90
13
 70
1
 10
485.674583
 20
-299.672293
 30
0.0
 10
486.244346
 20
-299.672293
 30
0.0
 10
486.244346
 20
-297.676702
 30
0.0
 10
487.947969
 20
-297.676702
 30
0.0
 10
487.947969
 20
-299.672293
 30
0.0
 10
488.512063
 20
-299.672293
 30
0.0
 10
488.512063
 20
-295.420324
 30
0.0
 10
487.947969
 20
-295.420324
 30
0.0
 10
487.947969
 20
-297.155127
 30
0.0
 10
486.244346
 20
-297.155127
 30
0.0
 10
486.244346
 20
-295.420324
 30
0.0
 10
485.674583
 20
-295.420324
 30
0.0
 10
485.674583
 20
-299.672293
 30
0.0
  0
LWPOLYLINE
  5
15a
100
AcDbEntity
  8
0
 62
7
100
AcDbPolyline
 90
9
 70
1
 10
490.501984
 20
-299.672293
 30
0.0
 10
491.066079
 20
-299.672293
 30
0.0
 10
491.066079
 20
-295.936230
 30
0.0
 10
492.353008
 20
-295.936230
 30
0.0
 10
492.353008
 20
-295.420324
 30
0.0
 10
489.209386
 20
-295.420324
 30
0.0
 10
489.209386
 20
-295.936230
 30
0.0
 10
490.501984
 20
-295.936230
 30
0.0
 10
490.501984
 20
-299.672293
 30
0.0
  0
LWPOLYLINE
  5
15b
100
AcDbEntity
  8
0
 62
7
100
AcDbPolyline
 90
19
 70
1
 10
498.609071
 20
-300.857175
 30
0.0
 10
498.994583
 20
-300.857175
 30
0.0
 10
498.643087
 20
-300.205206
 30
0.0
 10
498.399307
 20
-299.527726
 30
0.0
 10
498.246236
 20
-298.810560
 30
0.0
 10
498.198047
 20
-298.087726
 30
0.0
 10
498.246236
 20
-297.364891
 30
0.0
 10
498.399307
 20
-296.653395
 30
0.0
 10
498.643087
 20
-295.967411
 30
0.0
 10
498.994583
 20
-295.318277
 30
0.0
 10
498.609071
 20
-295.318277
 30
0.0
 10
498.161197
 20
-295.990088
 30
0.0
 10
497.846551
 20
-296.659064
 30
0.0
 10
497.665134
 20
-297.356387
 30
0.0
 10
497.608441
 20
-298.087726
 30
0.0
 10
497.665134
 20
-298.821899
 30
0.0
 10
497.846551
 20
-299.513552
 30
0.0
 10
498.161197
 20
-300.182529
 30
0.0
 10
498.609071
 20
-300.857175
 30
0.0
  0
LWPOLYLINE
  5
15c
100
AcDbEntity
  8
0
 62
7
100
AcDbPolyline
 90
13
 70
1
 10
500.652850
 20
-299.672293
 30
0.0
 10
501.194268
 20
-299.672293
 30
0.0
 10
501.194268
 20
-298.515757
 30
0.0
 10
501.755528
 20
-297.971505
 30
0.0
 10
502.724976
 20
-299.672293
 30
0.0
 10
503.331591
 20
-299.672293
 30
0.0
 10
502.124031
 20
-297.597332
 30
0.0
 10
503.362772
 20
-296.384104
 30
0.0
 10
502.682457
 20
-296.384104
 30
0.0
 10
501.194268
 20
-297.866623
 30
0.0
 10
501.194268
 20
-295.275757
 30
0.0
 10
500.652850
 20
-295.275757
 30
0.0
 10
500.652850
 20
-299.672293
 30
0.0
  0
LWPOLYLINE
  5
15d
100
AcDbEntity
  8
0
 62
7
100
AcDbPolyline
 90
37
 70
1
 10
506.829543
 20
-299.527726
 30
0.0
 10
506.829543
 20
-296.384104
 30
0.0
 10
506.316472
 20
-296.384104
 30
0.0
 10
506.316472
 20
-296.917017
 30
0.0
 10
505.891276
 20
-296.432293
 30
0.0
 10
505.636157
 20
-296.310403
 30
0.0
 10
505.347024
 20
-296.267883
 30
0.0
 10
504.825449
 20
-296.389773
 30
0.0
 10
504.422929
 20
-296.732765
 30
0.0
 10
504.159307
 20
-297.282686
 30
0.0
 10
504.065764
 20
-298.025364
 30
0.0
 10
504.159307
 20
-298.773710
 30
0.0
 10
504.422929
 20
-299.323631
 30
0.0
 10
504.825449
 20
-299.672293
 30
0.0
 10
505.347024
 20
-299.788513
 30
0.0
 10
505.641827
 20
-299.745993
 30
0.0
 10
505.885606
 20
-299.635442
 30
0.0
 10
506.316472
 20
-299.170560
 30
0.0
 10
506.316472
 20
-299.635442
 30
0.0
 10
506.265449
 20
-300.003946
 30
0.0
 10
506.132220
 20
-300.267568
 30
0.0
 10
505.874268
 20
-300.420639
 30
0.0
 10
505.488756
 20
-300.477332
 30
0.0
 10
505.151433
 20
-300.440482
 30
0.0
 10
504.913323
 20
-300.346938
 30
0.0
 10
504.771591
 20
-300.188198
 30
0.0
 10
504.729071
 20
-299.972765
 30
0.0
 10
504.207496
 20
-299.972765
 30
0.0
 10
504.207496
 20
-299.998277
 30
0.0
 10
504.286866
 20
-300.389458
 30
0.0
 10
504.533480
 20
-300.684261
 30
0.0
 10
504.924661
 20
-300.874182
 30
0.0
 10
505.457575
 20
-300.942214
 30
0.0
 10
506.095370
 20
-300.848671
 30
0.0
 10
506.517732
 20
-300.593552
 30
0.0
 10
506.755843
 20
-300.145678
 30
0.0
 10
506.829543
 20
-299.527726
 30
0.0
  0
LWPOLYLINE
  5
15e
100
AcDbEntity
  8
0
 62
7
100
AcDbPolyline
 90
17
 70
1
 10
504.624189
 20
-298.025364
 30
0.0
 10
504.678047
 20
-297.481112
 30
0.0
 10
504.845291
 20
-297.075757
 30
0.0
 10
505.103244
 20
-296.837647
 30
0.0
 10
505.446236
 20
-296.749773
 30
0.0
 10
505.806236
 20
-296.837647
 30
0.0
 10
506.075528
 20
-297.075757
 30
0.0
 10
506.242772
 20
-297.481112
 30
0.0
 10
506.302299
 20
-298.025364
 30
0.0
 10
506.242772
 20
-298.583789
 30
0.0
 10
506.075528
 20
-298.980639
 30
0.0
 10
505.806236
 20
-299.227253
 30
0.0
 10
505.446236
 20
-299.306623
 30
0.0
 10
505.103244
 20
-299.227253
 30
0.0
 10
504.845291
 20
-298.980639
 30
0.0
 10
504.678047
 20
-298.578119
 30
0.0
 10
504.624189
 20
-298.025364
 30
0.0
  0
LWPOLYLINE
  5
15f
100
AcDbEntity
  8
0
 62
7
100
AcDbPolyline
 90
19
 70
1
 10
508.785449
 20
-300.857175
 30
0.0
 10
509.224819
 20
-300.182529
 30
0.0
 10
509.536630
 20
-299.513552
 30
0.0
 10
509.720882
 20
-298.821899
 30
0.0
 10
509.783244
 20
-298.087726
 30
0.0
 10
509.720882
 20
-297.356387
 30
0.0
 10
509.536630
 20
-296.659064
 30
0.0
 10
509.224819
 20
-295.990088
 30
0.0
 10
508.785449
 20
-295.318277
 30
0.0
 10
508.397102
 20
-295.318277
 30
0.0
 10
508.740094
 20
-295.967411
 30
0.0
 10
508.986709
 20
-296.653395
 30
0.0
 10
509.134110
 20
-297.364891
 30
0.0
 10
509.187969
 20
-298.087726
 30
0.0
 10
509.134110
 20
-298.810560
 30
0.0
 10
508.986709
 20
-299.527726
 30
0.0
 10
508.734425
 20
-300.205206
 30
0.0
 10
508.397102
 20
-300.857175
 30
0.0
 10
508.785449
 20
-300.857175
 30
0.0
  0
LWPOLYLINE
  5
160
100
AcDbEntity
  8
0
 62
7
100
AcDbPolyline
 90
14
 70
1
 10
529.407496
 20
-295.420324
 30
0.0
 10
527.993008
 20
-295.420324
 30
0.0
 10
527.993008
 20
-299.672293
 30
0.0
 10
529.407496
 20
-299.672293
 30
0.0
 10
530.076472
 20
-299.539064
 30
0.0
 10
530.572535
 20
-299.128041
 30
0.0
 10
530.878677
 20
-298.459064
 30
0.0
 10
530.989228
 20
-297.546308
 30
0.0
 10
530.890016
 20
-296.616545
 30
0.0
 10
530.768126
 20
-296.248041
 30
0.0
 10
530.598047
 20
-295.953238
 30
0.0
 10
530.101984
 20
-295.556387
 30
0.0
 10
529.776000
 20
-295.457175
 30
0.0
 10
529.407496
 20
-295.420324
 30
0.0
  0
LWPOLYLINE
  5
161
100
AcDbEntity
  8
0
 62
7
100
AcDbPolyline
 90
12
 70
1
 10
529.364976
 20
-295.930560
 30
0.0
 10
529.832693
 20
-296.021269
 30
0.0
 10
530.150173
 20
-296.304734
 30
0.0
 10
530.340094
 20
-296.806466
 30
0.0
 10
530.402457
 20
-297.546308
 30
0.0
 10
530.334425
 20
-298.263474
 30
0.0
 10
530.144504
 20
-298.768041
 30
0.0
 10
529.818520
 20
-299.065678
 30
0.0
 10
529.364976
 20
-299.164891
 30
0.0
 10
528.562772
 20
-299.164891
 30
0.0
 10
528.562772
 20
-295.930560
 30
0.0
 10
529.364976
 20
-295.930560
 30
0.0
  0
LWPOLYLINE
  5
162
100
AcDbEntity
  8
0
 62
7
100
AcDbPolyline
 90
29
 70
1
 10
531.737575
 20
-299.672293
 30
0.0
 10
532.307339
 20
-299.672293
 30
0.0
 10
532.307339
 20
-297.877962
 30
0.0
 10
532.888441
 20
-297.877962
 30
0.0
 10
533.316472
 20
-297.897804
 30
0.0
 10
533.585764
 20
-297.982844
 30
0.0
 10
533.733165
 20
-298.184104
 30
0.0
 10
533.795528
 20
-298.546938
 30
0.0
 10
533.826709
 20
-299.096860
 30
0.0
 10
533.863559
 20
-299.459694
 30
0.0
 10
533.937260
 20
-299.672293
 30
0.0
 10
534.580724
 20
-299.672293
 30
0.0
 10
534.580724
 20
-299.556072
 30
0.0
 10
534.438992
 20
-299.385993
 30
0.0
 10
534.390803
 20
-299.065678
 30
0.0
 10
534.345449
 20
-298.379694
 30
0.0
 10
534.243402
 20
-297.872293
 30
0.0
 10
534.101669
 20
-297.713552
 30
0.0
 10
533.880567
 20
-297.597332
 30
0.0
 10
534.127181
 20
-297.444261
 30
0.0
 10
534.297260
 20
-297.228828
 30
0.0
 10
534.407811
 20
-296.959537
 30
0.0
 10
534.444661
 20
-296.633552
 30
0.0
 10
534.359622
 20
-296.120482
 30
0.0
 10
534.113008
 20
-295.734970
 30
0.0
 10
533.710488
 20
-295.502529
 30
0.0
 10
533.157732
 20
-295.420324
 30
0.0
 10
531.737575
 20
-295.420324
 30
0.0
 10
531.737575
 20
-299.672293
 30
0.0
  0
LWPOLYLINE
  5
163
100
AcDbEntity
  8
0
 62
7
100
AcDbPolyline
 90
12
 70
1
 10
532.998992
 20
-295.941899
 30
0.0
 10
533.373165
 20
-295.978749
 30
0.0
 10
533.636787
 20
-296.094970
 30
0.0
 10
533.801197
 20
-296.310403
 30
0.0
 10
533.857890
 20
-296.647726
 30
0.0
 10
533.795528
 20
-297.002056
 30
0.0
 10
533.631118
 20
-297.217489
 30
0.0
 10
533.347654
 20
-297.328041
 30
0.0
 10
532.962142
 20
-297.356387
 30
0.0
 10
532.307339
 20
-297.356387
 30
0.0
 10
532.307339
 20
-295.941899
 30
0.0
 10
532.998992
 20
-295.941899
 30
0.0
  0
LWPOLYLINE
  5
164
100
AcDbEntity
  8
0
 62
7
100
AcDbPolyline
 90
9
 70
1
 10
534.929386
 20
-299.672293
 30
0.0
 10
535.493480
 20
-299.672293
 30
0.0
 10
535.938520
 20
-298.422214
 30
0.0
 10
537.636472
 20
-298.422214
 30
0.0
 10
538.084346
 20
-299.672293
 30
0.0
 10
538.659780
 20
-299.672293
 30
0.0
 10
537.103559
 20
-295.414655
 30
0.0
 10
536.479937
 20
-295.414655
 30
0.0
 10
534.929386
 20
-299.672293
 30
0.0
  0
LWPOLYLINE
  5
165
100
AcDbEntity
  8
0
 62
7
100
AcDbPolyline
 90
4
 70
1
 10
536.136945
 20
-297.903474
 30
0.0
 10
536.791748
 20
-296.026938
 30
0.0
 10
537.446551
 20
-297.903474
 30
0.0
 10
536.136945
 20
-297.903474
 30
0.0
  0
LWPOLYLINE
  5
166
100
AcDbEntity
  8
0
 62
7
100
AcDbPolyline
 90
14
 70
1
 10
539.323087
 20
-299.672293
 30
0.0
 10
539.861669
 20
-299.672293
 30
0.0
 10
540.473953
 20
-295.984419
 30
0.0
 10
541.103244
 20
-299.672293
 30
0.0
 10
541.619150
 20
-299.672293
 30
0.0
 10
542.367496
 20
-295.414655
 30
0.0
 10
541.877102
 20
-295.414655
 30
0.0
 10
541.349858
 20
-299.037332
 30
0.0
 10
540.743244
 20
-295.414655
 30
0.0
 10
540.210331
 20
-295.414655
 30
0.0
 10
539.615055
 20
-299.037332
 30
0.0
 10
539.087811
 20
-295.414655
 30
0.0
 10
538.586079
 20
-295.414655
 30
0.0
 10
539.323087
 20
-299.672293
 30
0.0
  0
LWPOLYLINE
  5
167
100
AcDbEntity
  8
0
 62
7
100
AcDbPolyline
 90
13
 70
1
 10
543.886866
 20
-299.159222
 30
0.0
 10
543.101669
 20
-299.159222
 30
0.0
 10
543.101669
 20
-299.672293
 30
0.0
 10
545.233323
 20
-299.672293
 30
0.0
 10
545.233323
 20
-299.159222
 30
0.0
 10
544.450961
 20
-299.159222
 30
0.0
 10
544.450961
 20
-295.936230
 30
0.0
 10
545.233323
 20
-295.936230
 30
0.0
 10
545.233323
 20
-295.420324
 30
0.0
 10
543.101669
 20
-295.420324
 30
0.0
 10
543.101669
 20
-295.936230
 30
0.0
 10
543.886866
 20
-295.936230
 30
0.0
 10
543.886866
 20
-299.159222
 30
0.0
  0
LWPOLYLINE
  5
168
100
AcDbEntity
  8
0
 62
7
100
AcDbPolyline
 90
11
 70
1
 10
546.460724
 20
-299.672293
 30
0.0
 10
546.968126
 20
-299.672293
 30
0.0
 10
546.968126
 20
-296.188513
 30
0.0
 10
548.598047
 20
-299.672293
 30
0.0
 10
549.252850
 20
-299.672293
 30
0.0
 10
549.252850
 20
-295.420324
 30
0.0
 10
548.739780
 20
-295.420324
 30
0.0
 10
548.739780
 20
-298.906938
 30
0.0
 10
547.126866
 20
-295.420324
 30
0.0
 10
546.460724
 20
-295.420324
 30
0.0
 10
546.460724
 20
-299.672293
 30
0.0
  0
LWPOLYLINE
  5
169
100
AcDbEntity
  8
0
 62
7
100
AcDbPolyline
 90
41
 70
1
 10
552.665764
 20
-299.102529
 30
0.0
 10
552.770646
 20
-299.672293
 30
0.0
 10
553.076787
 20
-299.672293
 30
0.0
 10
553.076787
 20
-297.376230
 30
0.0
 10
551.526236
 20
-297.376230
 30
0.0
 10
551.526236
 20
-297.897804
 30
0.0
 10
552.481512
 20
-297.897804
 30
0.0
 10
552.481512
 20
-297.934655
 30
0.0
 10
552.407811
 20
-298.495915
 30
0.0
 10
552.212220
 20
-298.912608
 30
0.0
 10
551.911748
 20
-299.176230
 30
0.0
 10
551.537575
 20
-299.264104
 30
0.0
 10
551.120882
 20
-299.153552
 30
0.0
 10
550.797732
 20
-298.821899
 30
0.0
 10
550.587969
 20
-298.277647
 30
0.0
 10
550.514268
 20
-297.529301
 30
0.0
 10
550.582299
 20
-296.786623
 30
0.0
 10
550.792063
 20
-296.242371
 30
0.0
 10
551.120882
 20
-295.910718
 30
0.0
 10
551.568756
 20
-295.794497
 30
0.0
 10
551.874898
 20
-295.856860
 30
0.0
 10
552.127181
 20
-296.026938
 30
0.0
 10
552.311433
 20
-296.316072
 30
0.0
 10
552.413480
 20
-296.701584
 30
0.0
 10
553.020094
 20
-296.701584
 30
0.0
 10
552.861354
 20
-296.114812
 30
0.0
 10
552.560882
 20
-295.672608
 30
0.0
 10
552.138520
 20
-295.403316
 30
0.0
 10
551.605606
 20
-295.304104
 30
0.0
 10
550.908283
 20
-295.457175
 30
0.0
 10
550.381039
 20
-295.905049
 30
0.0
 10
550.043717
 20
-296.610875
 30
0.0
 10
549.927496
 20
-297.546308
 30
0.0
 10
550.043717
 20
-298.490245
 30
0.0
 10
550.381039
 20
-299.196072
 30
0.0
 10
550.877102
 20
-299.643946
 30
0.0
 10
551.500724
 20
-299.788513
 30
0.0
 10
551.852220
 20
-299.740324
 30
0.0
 10
552.164031
 20
-299.618434
 30
0.0
 10
552.433323
 20
-299.403001
 30
0.0
 10
552.665764
 20
-299.102529
 30
0.0
  0
LWPOLYLINE
  5
16a
100
AcDbEntity
  8
0
 62
7
100
AcDbPolyline
 90
11
 70
1
 10
557.524346
 20
-299.672293
 30
0.0
 10
558.031748
 20
-299.672293
 30
0.0
 10
558.031748
 20
-296.188513
 30
0.0
 10
559.661669
 20
-299.672293
 30
0.0
 10
560.319307
 20
-299.672293
 30
0.0
 10
560.319307
 20
-295.420324
 30
0.0
 10
559.803402
 20
-295.420324
 30
0.0
 10
559.803402
 20
-298.906938
 30
0.0
 10
558.193323
 20
-295.420324
 30
0.0
 10
557.524346
 20
-295.420324
 30
0.0
 10
557.524346
 20
-299.672293
 30
0.0
  0
LWPOLYLINE
  5
16b
100
AcDbEntity
  8
0
 62
7
100
AcDbPolyline
 90
23
 70
1
 10
561.144189
 20
-298.056545
 30
0.0
 10
561.232063
 20
-298.821899
 30
0.0
 10
561.501354
 20
-299.366151
 30
0.0
 10
561.954898
 20
-299.680797
 30
0.0
 10
562.609701
 20
-299.788513
 30
0.0
 10
563.258835
 20
-299.680797
 30
0.0
 10
563.712378
 20
-299.366151
 30
0.0
 10
563.981669
 20
-298.827568
 30
0.0
 10
564.072378
 20
-298.056545
 30
0.0
 10
564.072378
 20
-295.420324
 30
0.0
 10
563.502614
 20
-295.420324
 30
0.0
 10
563.502614
 20
-298.087726
 30
0.0
 10
563.448756
 20
-298.606466
 30
0.0
 10
563.284346
 20
-298.980639
 30
0.0
 10
563.000882
 20
-299.201741
 30
0.0
 10
562.609701
 20
-299.275442
 30
0.0
 10
562.204346
 20
-299.201741
 30
0.0
 10
561.923717
 20
-298.980639
 30
0.0
 10
561.756472
 20
-298.614970
 30
0.0
 10
561.708283
 20
-298.087726
 30
0.0
 10
561.708283
 20
-295.420324
 30
0.0
 10
561.144189
 20
-295.420324
 30
0.0
 10
561.144189
 20
-298.056545
 30
0.0
  0
LWPOLYLINE
  5
16c
100
AcDbEntity
  8
0
 62
7
100
AcDbPolyline
 90
14
 70
1
 10
564.766866
 20
-299.672293
 30
0.0
 10
565.237417
 20
-299.672293
 30
0.0
 10
565.237417
 20
-295.814340
 30
0.0
 10
566.033953
 20
-299.672293
 30
0.0
 10
566.561197
 20
-299.672293
 30
0.0
 10
567.352063
 20
-295.814340
 30
0.0
 10
567.352063
 20
-299.672293
 30
0.0
 10
567.828283
 20
-299.672293
 30
0.0
 10
567.828283
 20
-295.420324
 30
0.0
 10
567.082772
 20
-295.420324
 30
0.0
 10
566.297575
 20
-299.170560
 30
0.0
 10
565.520882
 20
-295.420324
 30
0.0
 10
564.766866
 20
-295.420324
 30
0.0
 10
564.766866
 20
-299.672293
 30
0.0
  0
LWPOLYLINE
  5
16d
100
AcDbEntity
  8
0
 62
7
100
AcDbPolyline
 90
19
 70
1
 10
570.750803
 20
-297.376230
 30
0.0
 10
571.181669
 20
-297.021899
 30
0.0
 10
571.292220
 20
-296.780954
 30
0.0
 10
571.329071
 20
-296.488986
 30
0.0
 10
571.246866
 20
-296.026938
 30
0.0
 10
571.008756
 20
-295.698119
 30
0.0
 10
570.623244
 20
-295.494025
 30
0.0
 10
570.084661
 20
-295.420324
 30
0.0
 10
568.570961
 20
-295.420324
 30
0.0
 10
568.570961
 20
-299.672293
 30
0.0
 10
570.169701
 20
-299.672293
 30
0.0
 10
570.739465
 20
-299.587253
 30
0.0
 10
571.161827
 20
-299.337804
 30
0.0
 10
571.425449
 20
-298.938119
 30
0.0
 10
571.518992
 20
-298.399537
 30
0.0
 10
571.462299
 20
-298.036702
 30
0.0
 10
571.314898
 20
-297.736230
 30
0.0
 10
571.076787
 20
-297.517962
 30
0.0
 10
570.750803
 20
-297.376230
 30
0.0
  0
LWPOLYLINE
  5
16e
100
AcDbEntity
  8
0
 62
7
100
AcDbPolyline
 90
12
 70
1
 10
569.968441
 20
-297.186308
 30
0.0
 10
569.135055
 20
-297.186308
 30
0.0
 10
569.135055
 20
-295.930560
 30
0.0
 10
570.016630
 20
-295.930560
 30
0.0
 10
570.348283
 20
-295.967411
 30
0.0
 10
570.580724
 20
-296.077962
 30
0.0
 10
570.722457
 20
-296.267883
 30
0.0
 10
570.770646
 20
-296.548513
 30
0.0
 10
570.713953
 20
-296.831978
 30
0.0
 10
570.569386
 20
-297.027568
 30
0.0
 10
570.317102
 20
-297.149458
 30
0.0
 10
569.968441
 20
-297.186308
 30
0.0
  0
LWPOLYLINE
  5
16f
100
AcDbEntity
  8
0
 62
7
100
AcDbPolyline
 90
12
 70
1
 10
570.101669
 20
-299.164891
 30
0.0
 10
569.135055
 20
-299.164891
 30
0.0
 10
569.135055
 20
-297.699379
 30
0.0
 10
570.047811
 20
-297.699379
 30
0.0
 10
570.433323
 20
-297.744734
 30
0.0
 10
570.708283
 20
-297.872293
 30
0.0
 10
570.875528
 20
-298.093395
 30
0.0
 10
570.929386
 20
-298.410875
 30
0.0
 10
570.875528
 20
-298.748198
 30
0.0
 10
570.722457
 20
-298.980639
 30
0.0
 10
570.464504
 20
-299.122371
 30
0.0
 10
570.101669
 20
-299.164891
 30
0.0
  0
LWPOLYLINE
  5
170
100
AcDbEntity
  8
0
 62
7
100
AcDbPolyline
 90
13
 70
1
 10
572.386394
 20
-299.672293
 30
0.0
 10
575.082142
 20
-299.672293
 30
0.0
 10
575.082142
 20
-299.159222
 30
0.0
 10
572.950488
 20
-299.159222
 30
0.0
 10
572.950488
 20
-297.719222
 30
0.0
 10
574.849701
 20
-297.719222
 30
0.0
 10
574.849701
 20
-297.211820
 30
0.0
 10
572.950488
 20
-297.211820
 30
0.0
 10
572.950488
 20
-295.936230
 30
0.0
 10
575.033953
 20
-295.936230
 30
0.0
 10
575.033953
 20
-295.420324
 30
0.0
 10
572.386394
 20
-295.420324
 30
0.0
 10
572.386394
 20
-299.672293
 30
0.0
  0
LWPOLYLINE
  5
171
100
AcDbEntity
  8
0
 62
7
100
AcDbPolyline
 90
29
 70
1
 10
575.994898
 20
-299.672293
 30
0.0
 10
576.567496
 20
-299.672293
 30
0.0
 10
576.567496
 20
-297.877962
 30
0.0
 10
577.148598
 20
-297.877962
 30
0.0
 10
577.576630
 20
-297.897804
 30
0.0
 10
577.845921
 20
-297.982844
 30
0.0
 10
577.993323
 20
-298.184104
 30
0.0
 10
578.055685
 20
-298.546938
 30
0.0
 10
578.086866
 20
-299.096860
 30
0.0
 10
578.120882
 20
-299.459694
 30
0.0
 10
578.194583
 20
-299.672293
 30
0.0
 10
578.838047
 20
-299.672293
 30
0.0
 10
578.838047
 20
-299.556072
 30
0.0
 10
578.699150
 20
-299.385993
 30
0.0
 10
578.648126
 20
-299.065678
 30
0.0
 10
578.605606
 20
-298.379694
 30
0.0
 10
578.500724
 20
-297.872293
 30
0.0
 10
578.361827
 20
-297.713552
 30
0.0
 10
578.140724
 20
-297.597332
 30
0.0
 10
578.384504
 20
-297.444261
 30
0.0
 10
578.557417
 20
-297.228828
 30
0.0
 10
578.667969
 20
-296.959537
 30
0.0
 10
578.704819
 20
-296.633552
 30
0.0
 10
578.619780
 20
-296.120482
 30
0.0
 10
578.373165
 20
-295.734970
 30
0.0
 10
577.967811
 20
-295.502529
 30
0.0
 10
577.417890
 20
-295.420324
 30
0.0
 10
575.994898
 20
-295.420324
 30
0.0
 10
575.994898
 20
-299.672293
 30
0.0
  0
LWPOLYLINE
  5
172
100
AcDbEntity
  8
0
 62
7
100
AcDbPolyline
 90
12
 70
1
 10
577.259150
 20
-295.941899
 30
0.0
 10
577.633323
 20
-295.978749
 30
0.0
 10
577.896945
 20
-296.094970
 30
0.0
 10
578.061354
 20
-296.310403
 30
0.0
 10
578.115213
 20
-296.647726
 30
0.0
 10
578.055685
 20
-297.002056
 30
0.0
 10
577.888441
 20
-297.217489
 30
0.0
 10
577.607811
 20
-297.328041
 30
0.0
 10
577.222299
 20
-297.356387
 30
0.0
 10
576.567496
 20
-297.356387
 30
0.0
 10
576.567496
 20
-295.941899
 30
0.0
 10
577.259150
 20
-295.941899
 30
0.0
  0
LWPOLYLINE
  5
173
100
AcDbEntity
  8
0
 62
7
100
AcDbPolyline
 90
52
 70
1
 10
704.866394
 20
-298.269143
 30
0.0
 10
704.307969
 20
-298.269143
 30
0.0
 10
704.432693
 20
-298.921112
 30
0.0
 10
704.738835
 20
-299.397332
 30
0.0
 10
705.209386
 20
-299.686466
 30
0.0
 10
705.847181
 20
-299.788513
 30
0.0
 10
706.479307
 20
-299.692135
 30
0.0
 10
706.949858
 20
-299.422844
 30
0.0
 10
707.250331
 20
-299.000482
 30
0.0
 10
707.360882
 20
-298.442056
 30
0.0
 10
707.267339
 20
-297.940324
 30
0.0
 10
707.012220
 20
-297.614340
 30
0.0
 10
706.595528
 20
-297.401741
 30
0.0
 10
706.037102
 20
-297.240167
 30
0.0
 10
705.558047
 20
-297.123946
 30
0.0
 10
705.246236
 20
-296.990718
 30
0.0
 10
705.067654
 20
-296.795127
 30
0.0
 10
705.013795
 20
-296.488986
 30
0.0
 10
705.067654
 20
-296.211190
 30
0.0
 10
705.229228
 20
-296.004261
 30
0.0
 10
705.473008
 20
-295.862529
 30
0.0
 10
705.810331
 20
-295.814340
 30
0.0
 10
706.153323
 20
-295.873867
 30
0.0
 10
706.422614
 20
-296.041112
 30
0.0
 10
706.601197
 20
-296.316072
 30
0.0
 10
706.686236
 20
-296.690245
 30
0.0
 10
707.244661
 20
-296.690245
 30
0.0
 10
707.244661
 20
-296.678907
 30
0.0
 10
707.145449
 20
-296.100639
 30
0.0
 10
706.859150
 20
-295.672608
 30
0.0
 10
706.405606
 20
-295.403316
 30
0.0
 10
705.790488
 20
-295.312608
 30
0.0
 10
705.240567
 20
-295.403316
 30
0.0
 10
704.812535
 20
-295.661269
 30
0.0
 10
704.534740
 20
-296.058119
 30
0.0
 10
704.438362
 20
-296.574025
 30
0.0
 10
704.517732
 20
-297.033238
 30
0.0
 10
704.750173
 20
-297.345049
 30
0.0
 10
705.118677
 20
-297.554812
 30
0.0
 10
705.620409
 20
-297.713552
 30
0.0
 10
706.116472
 20
-297.852450
 30
0.0
 10
706.490646
 20
-297.988513
 30
0.0
 10
706.717417
 20
-298.184104
 30
0.0
 10
706.796787
 20
-298.504419
 30
0.0
 10
706.723087
 20
-298.827568
 30
0.0
 10
706.533165
 20
-299.074182
 30
0.0
 10
706.244031
 20
-299.227253
 30
0.0
 10
705.872693
 20
-299.275442
 30
0.0
 10
705.456000
 20
-299.207411
 30
0.0
 10
705.135685
 20
-299.011820
 30
0.0
 10
704.934425
 20
-298.694340
 30
0.0
 10
704.866394
 20
-298.269143
 30
0.0
  0
LWPOLYLINE
  5
174
100
AcDbEntity
  8
0
 62
7
100
AcDbPolyline
 90
13
 70
1
 10
708.100724
 20
-299.672293
 30
0.0
 10
708.670488
 20
-299.672293
 30
0.0
 10
708.670488
 20
-297.676702
 30
0.0
 10
710.374110
 20
-297.676702
 30
0.0
 10
710.374110
 20
-299.672293
 30
0.0
 10
710.938205
 20
-299.672293
 30
0.0
 10
710.938205
 20
-295.420324
 30
0.0
 10
710.374110
 20
-295.420324
 30
0.0
 10
710.374110
 20
-297.155127
 30
0.0
 10
708.670488
 20
-297.155127
 30
0.0
 10
708.670488
 20
-295.420324
 30
0.0
 10
708.100724
 20
-295.420324
 30
0.0
 10
708.100724
 20
-299.672293
 30
0.0
  0
LWPOLYLINE
  5
175
100
AcDbEntity
  8
0
 62
7
100
AcDbPolyline
 90
13
 70
1
 10
711.924661
 20
-299.672293
 30
0.0
 10
714.620409
 20
-299.672293
 30
0.0
 10
714.620409
 20
-299.159222
 30
0.0
 10
712.488756
 20
-299.159222
 30
0.0
 10
712.488756
 20
-297.719222
 30
0.0
 10
714.387969
 20
-297.719222
 30
0.0
 10
714.387969
 20
-297.211820
 30
0.0
 10
712.488756
 20
-297.211820
 30
0.0
 10
712.488756
 20
-295.936230
 30
0.0
 10
714.572220
 20
-295.936230
 30
0.0
 10
714.572220
 20
-295.420324
 30
0.0
 10
711.924661
 20
-295.420324
 30
0.0
 10
711.924661
 20
-299.672293
 30
0.0
  0
LWPOLYLINE
  5
176
100
AcDbEntity
  8
0
 62
7
100
AcDbPolyline
 90
13
 70
1
 10
715.612535
 20
-299.672293
 30
0.0
 10
718.308283
 20
-299.672293
 30
0.0
 10
718.308283
 20
-299.159222
 30
0.0
 10
716.176630
 20
-299.159222
 30
0.0
 10
716.176630
 20
-297.719222
 30
0.0
 10
718.075843
 20
-297.719222
 30
0.0
 10
718.075843
 20
-297.211820
 30
0.0
 10
716.176630
 20
-297.211820
 30
0.0
 10
716.176630
 20
-295.936230
 30
0.0
 10
718.260094
 20
-295.936230
 30
0.0
 10
718.260094
 20
-295.420324
 30
0.0
 10
715.612535
 20
-295.420324
 30
0.0
 10
715.612535
 20
-299.672293
 30
0.0
  0
LWPOLYLINE
  5
177
100
AcDbEntity
  8
0
 62
7
100
AcDbPolyline
 90
9
 70
1
 10
720.306709
 20
-299.672293
 30
0.0
 10
720.870803
 20
-299.672293
 30
0.0
 10
720.870803
 20
-295.936230
 30
0.0
 10
722.154898
 20
-295.936230
 30
0.0
 10
722.154898
 20
-295.420324
 30
0.0
 10
719.014110
 20
-295.420324
 30
0.0
 10
719.014110
 20
-295.936230
 30
0.0
 10
720.306709
 20
-295.936230
 30
0.0
 10
720.306709
 20
-299.672293
 30
0.0
  0
LWPOLYLINE
  5
178
100
AcDbEntity
  8
0
 62
7
100
AcDbPolyline
 90
52
 70
1
 10
420.798047
 20
-261.418749
 30
0.0
 10
420.239622
 20
-261.418749
 30
0.0
 10
420.364346
 20
-262.070718
 30
0.0
 10
420.670488
 20
-262.546938
 30
0.0
 10
421.141039
 20
-262.836072
 30
0.0
 10
421.778835
 20
-262.938119
 30
0.0
 10
422.410961
 20
-262.841741
 30
0.0
 10
422.881512
 20
-262.572450
 30
0.0
 10
423.181984
 20
-262.150088
 30
0.0
 10
423.292535
 20
-261.591663
 30
0.0
 10
423.198992
 20
-261.089930
 30
0.0
 10
422.943874
 20
-260.763946
 30
0.0
 10
422.527181
 20
-260.551348
 30
0.0
 10
421.968756
 20
-260.389773
 30
0.0
 10
421.489701
 20
-260.273552
 30
0.0
 10
421.177890
 20
-260.140324
 30
0.0
 10
420.999307
 20
-259.944734
 30
0.0
 10
420.945449
 20
-259.635757
 30
0.0
 10
420.999307
 20
-259.360797
 30
0.0
 10
421.160882
 20
-259.153867
 30
0.0
 10
421.404661
 20
-259.012135
 30
0.0
 10
421.741984
 20
-258.963946
 30
0.0
 10
422.084976
 20
-259.023474
 30
0.0
 10
422.354268
 20
-259.190718
 30
0.0
 10
422.532850
 20
-259.465678
 30
0.0
 10
422.617890
 20
-259.839852
 30
0.0
 10
423.176315
 20
-259.839852
 30
0.0
 10
423.176315
 20
-259.828513
 30
0.0
 10
423.077102
 20
-259.250245
 30
0.0
 10
422.790803
 20
-258.822214
 30
0.0
 10
422.337260
 20
-258.552923
 30
0.0
 10
421.722142
 20
-258.462214
 30
0.0
 10
421.172220
 20
-258.552923
 30
0.0
 10
420.744189
 20
-258.810875
 30
0.0
 10
420.466394
 20
-259.207726
 30
0.0
 10
420.370016
 20
-259.723631
 30
0.0
 10
420.449386
 20
-260.182844
 30
0.0
 10
420.681827
 20
-260.494655
 30
0.0
 10
421.050331
 20
-260.704419
 30
0.0
 10
421.552063
 20
-260.863159
 30
0.0
 10
422.048126
 20
-261.002056
 30
0.0
 10
422.422299
 20
-261.138119
 30
0.0
 10
422.649071
 20
-261.333710
 30
0.0
 10
422.728441
 20
-261.654025
 30
0.0
 10
422.654740
 20
-261.977175
 30
0.0
 10
422.464819
 20
-262.223789
 30
0.0
 10
422.175685
 20
-262.376860
 30
0.0
 10
421.804346
 20
-262.425049
 30
0.0
 10
421.387654
 20
-262.357017
 30
0.0
 10
421.067339
 20
-262.161427
 30
0.0
 10
420.866079
 20
-261.843946
 30
0.0
 10
420.798047
 20
-261.418749
 30
0.0
  0
LWPOLYLINE
  5
179
100
AcDbEntity
  8
0
 62
7
100
AcDbPolyline
 90
13
 70
1
 10
425.171906
 20
-262.308828
 30
0.0
 10
424.389543
 20
-262.308828
 30
0.0
 10
424.389543
 20
-262.821899
 30
0.0
 10
426.521197
 20
-262.821899
 30
0.0
 10
426.521197
 20
-262.308828
 30
0.0
 10
425.736000
 20
-262.308828
 30
0.0
 10
425.736000
 20
-259.085836
 30
0.0
 10
426.521197
 20
-259.085836
 30
0.0
 10
426.521197
 20
-258.569930
 30
0.0
 10
424.389543
 20
-258.569930
 30
0.0
 10
424.389543
 20
-259.085836
 30
0.0
 10
425.171906
 20
-259.085836
 30
0.0
 10
425.171906
 20
-262.308828
 30
0.0
  0
LWPOLYLINE
  5
17a
100
AcDbEntity
  8
0
 62
7
100
AcDbPolyline
 90
11
 70
1
 10
427.618205
 20
-262.821899
 30
0.0
 10
430.668283
 20
-262.821899
 30
0.0
 10
430.668283
 20
-262.308828
 30
0.0
 10
428.290016
 20
-262.308828
 30
0.0
 10
430.668283
 20
-259.054655
 30
0.0
 10
430.668283
 20
-258.569930
 30
0.0
 10
427.782614
 20
-258.569930
 30
0.0
 10
427.782614
 20
-259.085836
 30
0.0
 10
430.030488
 20
-259.085836
 30
0.0
 10
427.618205
 20
-262.334340
 30
0.0
 10
427.618205
 20
-262.821899
 30
0.0
  0
LWPOLYLINE
  5
17b
100
AcDbEntity
  8
0
 62
7
100
AcDbPolyline
 90
13
 70
1
 10
431.544189
 20
-262.821899
 30
0.0
 10
434.239937
 20
-262.821899
 30
0.0
 10
434.239937
 20
-262.308828
 30
0.0
 10
432.108283
 20
-262.308828
 30
0.0
 10
432.108283
 20
-260.868828
 30
0.0
 10
434.007496
 20
-260.868828
 30
0.0
 10
434.007496
 20
-260.361427
 30
0.0
 10
432.108283
 20
-260.361427
 30
0.0
 10
432.108283
 20
-259.085836
 30
0.0
 10
434.191748
 20
-259.085836
 30
0.0
 10
434.191748
 20
-258.569930
 30
0.0
 10
431.544189
 20
-258.569930
 30
0.0
 10
431.544189
 20
-262.821899
 30
0.0
  0
LWPOLYLINE
  5
17c
100
AcDbEntity
  8
0
 62
7
100
AcDbPolyline
 90
14
 70
1
 10
421.758992
 20
-237.310088
 30
0.0
 10
420.344504
 20
-237.310088
 30
0.0
 10
420.344504
 20
-241.562056
 30
0.0
 10
421.758992
 20
-241.562056
 30
0.0
 10
422.427969
 20
-241.428828
 30
0.0
 10
422.924031
 20
-241.017804
 30
0.0
 10
423.230173
 20
-240.348828
 30
0.0
 10
423.340724
 20
-239.436072
 30
0.0
 10
423.241512
 20
-238.506308
 30
0.0
 10
423.119622
 20
-238.137804
 30
0.0
 10
422.949543
 20
-237.843001
 30
0.0
 10
422.453480
 20
-237.446151
 30
0.0
 10
422.127496
 20
-237.346938
 30
0.0
 10
421.758992
 20
-237.310088
 30
0.0
  0
LWPOLYLINE
  5
17d
100
AcDbEntity
  8
0
 62
7
100
AcDbPolyline
 90
12
 70
1
 10
421.716472
 20
-237.820324
 30
0.0
 10
422.184189
 20
-237.911033
 30
0.0
 10
422.501669
 20
-238.194497
 30
0.0
 10
422.691591
 20
-238.696230
 30
0.0
 10
422.753953
 20
-239.436072
 30
0.0
 10
422.685921
 20
-240.153238
 30
0.0
 10
422.496000
 20
-240.657804
 30
0.0
 10
422.170016
 20
-240.955442
 30
0.0
 10
421.716472
 20
-241.054655
 30
0.0
 10
420.914268
 20
-241.054655
 30
0.0
 10
420.914268
 20
-237.820324
 30
0.0
 10
421.716472
 20
-237.820324
 30
0.0
  0
LWPOLYLINE
  5
17e
100
AcDbEntity
  8
0
 62
7
100
AcDbPolyline
 90
9
 70
1
 10
423.593008
 20
-241.562056
 30
0.0
 10
424.157102
 20
-241.562056
 30
0.0
 10
424.602142
 20
-240.311978
 30
0.0
 10
426.300094
 20
-240.311978
 30
0.0
 10
426.747969
 20
-241.562056
 30
0.0
 10
427.323402
 20
-241.562056
 30
0.0
 10
425.767181
 20
-237.304419
 30
0.0
 10
425.143559
 20
-237.304419
 30
0.0
 10
423.593008
 20
-241.562056
 30
0.0
  0
LWPOLYLINE
  5
17f
100
AcDbEntity
  8
0
 62
7
100
AcDbPolyline
 90
4
 70
1
 10
424.797732
 20
-239.793238
 30
0.0
 10
425.455370
 20
-237.916702
 30
0.0
 10
426.110173
 20
-239.793238
 30
0.0
 10
424.797732
 20
-239.793238
 30
0.0
  0
LWPOLYLINE
  5
180
100
AcDbEntity
  8
0
 62
7
100
AcDbPolyline
 90
9
 70
1
 10
428.859780
 20
-241.562056
 30
0.0
 10
429.423874
 20
-241.562056
 30
0.0
 10
429.423874
 20
-237.825993
 30
0.0
 10
430.710803
 20
-237.825993
 30
0.0
 10
430.710803
 20
-237.310088
 30
0.0
 10
427.567181
 20
-237.310088
 30
0.0
 10
427.567181
 20
-237.825993
 30
0.0
 10
428.859780
 20
-237.825993
 30
0.0
 10
428.859780
 20
-241.562056
 30
0.0
  0
LWPOLYLINE
  5
181
100
AcDbEntity
  8
0
 62
7
100
AcDbPolyline
 90
13
 70
1
 10
431.544189
 20
-241.562056
 30
0.0
 10
434.239937
 20
-241.562056
 30
0.0
 10
434.239937
 20
-241.048986
 30
0.0
 10
432.108283
 20
-241.048986
 30
0.0
 10
432.108283
 20
-239.608986
 30
0.0
 10
434.007496
 20
-239.608986
 30
0.0
 10
434.007496
 20
-239.101584
 30
0.0
 10
432.108283
 20
-239.101584
 30
0.0
 10
432.108283
 20
-237.825993
 30
0.0
 10
434.191748
 20
-237.825993
 30
0.0
 10
434.191748
 20
-237.310088
 30
0.0
 10
431.544189
 20
-237.310088
 30
0.0
 10
431.544189
 20
-241.562056
 30
0.0
  0
LWPOLYLINE
  5
182
100
AcDbEntity
  8
0
 62
7
100
AcDbPolyline
 90
5
 70
1
 10
436.096630
 20
-241.562056
 30
0.0
 10
436.941354
 20
-241.562056
 30
0.0
 10
436.941354
 20
-240.649301
 30
0.0
 10
436.096630
 20
-240.649301
 30
0.0
 10
436.096630
 20
-241.562056
 30
0.0
  0
LWPOLYLINE
  5
183
100
AcDbEntity
  8
0
 62
7
100
AcDbPolyline
 90
5
 70
1
 10
436.096630
 20
-239.186623
 30
0.0
 10
436.941354
 20
-239.186623
 30
0.0
 10
436.941354
 20
-238.273867
 30
0.0
 10
436.096630
 20
-238.273867
 30
0.0
 10
436.096630
 20
-239.186623
 30
0.0
  0
LWPOLYLINE
  5
184
100
AcDbEntity
  8
0
 62
7
100
AcDbPolyline
 90
14
 70
1
 10
421.758992
 20
-213.366119
 30
0.0
 10
420.344504
 20
-213.366119
 30
0.0
 10
420.344504
 20
-217.618088
 30
0.0
 10
421.758992
 20
-217.618088
 30
0.0
 10
422.427969
 20
-217.484860
 30
0.0
 10
422.924031
 20
-217.073836
 30
0.0
 10
423.230173
 20
-216.404860
 30
0.0
 10
423.340724
 20
-215.492104
 30
0.0
 10
423.241512
 20
-214.562340
 30
0.0
 10
423.119622
 20
-214.193836
 30
0.0
 10
422.949543
 20
-213.899033
 30
0.0
 10
422.453480
 20
-213.502182
 30
0.0
 10
422.127496
 20
-213.402970
 30
0.0
 10
421.758992
 20
-213.366119
 30
0.0
  0
LWPOLYLINE
  5
185
100
AcDbEntity
  8
0
 62
7
100
AcDbPolyline
 90
12
 70
1
 10
421.716472
 20
-213.876356
 30
0.0
 10
422.184189
 20
-213.967064
 30
0.0
 10
422.501669
 20
-214.250529
 30
0.0
 10
422.691591
 20
-214.752261
 30
0.0
 10
422.753953
 20
-215.492104
 30
0.0
 10
422.685921
 20
-216.209269
 30
0.0
 10
422.496000
 20
-216.713836
 30
0.0
 10
422.170016
 20
-217.011474
 30
0.0
 10
421.716472
 20
-217.110686
 30
0.0
 10
420.914268
 20
-217.110686
 30
0.0
 10
420.914268
 20
-213.876356
 30
0.0
 10
421.716472
 20
-213.876356
 30
0.0
  0
LWPOLYLINE
  5
186
100
AcDbEntity
  8
0
 62
7
100
AcDbPolyline
 90
13
 70
1
 10
424.168441
 20
-217.618088
 30
0.0
 10
426.864189
 20
-217.618088
 30
0.0
 10
426.864189
 20
-217.105017
 30
0.0
 10
424.732535
 20
-217.105017
 30
0.0
 10
424.732535
 20
-215.665017
 30
0.0
 10
426.631748
 20
-215.665017
 30
0.0
 10
426.631748
 20
-215.157615
 30
0.0
 10
424.732535
 20
-215.157615
 30
0.0
 10
424.732535
 20
-213.882025
 30
0.0
 10
426.816000
 20
-213.882025
 30
0.0
 10
426.816000
 20
-213.366119
 30
0.0
 10
424.168441
 20
-213.366119
 30
0.0
 10
424.168441
 20
-217.618088
 30
0.0
  0
LWPOLYLINE
  5
187
100
AcDbEntity
  8
0
 62
7
100
AcDbPolyline
 90
52
 70
1
 10
428.173795
 20
-216.214938
 30
0.0
 10
427.618205
 20
-216.214938
 30
0.0
 10
427.740094
 20
-216.866907
 30
0.0
 10
428.046236
 20
-217.343127
 30
0.0
 10
428.516787
 20
-217.632261
 30
0.0
 10
429.154583
 20
-217.734308
 30
0.0
 10
429.786709
 20
-217.637930
 30
0.0
 10
430.257260
 20
-217.368639
 30
0.0
 10
430.557732
 20
-216.946277
 30
0.0
 10
430.668283
 20
-216.387852
 30
0.0
 10
430.577575
 20
-215.886119
 30
0.0
 10
430.319622
 20
-215.560135
 30
0.0
 10
429.902929
 20
-215.347537
 30
0.0
 10
429.344504
 20
-215.185962
 30
0.0
 10
428.868283
 20
-215.069741
 30
0.0
 10
428.553638
 20
-214.936513
 30
0.0
 10
428.377890
 20
-214.740923
 30
0.0
 10
428.321197
 20
-214.431946
 30
0.0
 10
428.377890
 20
-214.156986
 30
0.0
 10
428.536630
 20
-213.950056
 30
0.0
 10
428.780409
 20
-213.808324
 30
0.0
 10
429.117732
 20
-213.760135
 30
0.0
 10
429.460724
 20
-213.819663
 30
0.0
 10
429.730016
 20
-213.986907
 30
0.0
 10
429.908598
 20
-214.261867
 30
0.0
 10
429.993638
 20
-214.636041
 30
0.0
 10
430.552063
 20
-214.636041
 30
0.0
 10
430.552063
 20
-214.621867
 30
0.0
 10
430.452850
 20
-214.046434
 30
0.0
 10
430.166551
 20
-213.618403
 30
0.0
 10
429.713008
 20
-213.349112
 30
0.0
 10
429.100724
 20
-213.258403
 30
0.0
 10
428.547969
 20
-213.349112
 30
0.0
 10
428.119937
 20
-213.607064
 30
0.0
 10
427.844976
 20
-214.003915
 30
0.0
 10
427.745764
 20
-214.519820
 30
0.0
 10
427.825134
 20
-214.979033
 30
0.0
 10
428.057575
 20
-215.290844
 30
0.0
 10
428.426079
 20
-215.500608
 30
0.0
 10
428.927811
 20
-215.659348
 30
0.0
 10
429.423874
 20
-215.798245
 30
0.0
 10
429.798047
 20
-215.934308
 30
0.0
 10
430.024819
 20
-216.129899
 30
0.0
 10
430.104189
 20
-216.450214
 30
0.0
 10
430.030488
 20
-216.773364
 30
0.0
 10
429.840567
 20
-217.019978
 30
0.0
 10
429.554268
 20
-217.173049
 30
0.0
 10
429.180094
 20
-217.221238
 30
0.0
 10
428.763402
 20
-217.153206
 30
0.0
 10
428.445921
 20
-216.957615
 30
0.0
 10
428.241827
 20
-216.640135
 30
0.0
 10
428.173795
 20
-216.214938
 30
0.0
  0
LWPOLYLINE
  5
188
100
AcDbEntity
  8
0
 62
7
100
AcDbPolyline
 90
13
 70
1
 10
432.550488
 20
-217.105017
 30
0.0
 10
431.765291
 20
-217.105017
 30
0.0
 10
431.765291
 20
-217.618088
 30
0.0
 10
433.896945
 20
-217.618088
 30
0.0
 10
433.896945
 20
-217.105017
 30
0.0
 10
433.111748
 20
-217.105017
 30
0.0
 10
433.111748
 20
-213.882025
 30
0.0
 10
433.896945
 20
-213.882025
 30
0.0
 10
433.896945
 20
-213.366119
 30
0.0
 10
431.765291
 20
-213.366119
 30
0.0
 10
431.765291
 20
-213.882025
 30
0.0
 10
432.550488
 20
-213.882025
 30
0.0
 10
432.550488
 20
-217.105017
 30
0.0
  0
LWPOLYLINE
  5
189
100
AcDbEntity
  8
0
 62
7
100
AcDbPolyline
 90
41
 70
1
 10
437.641512
 20
-217.048324
 30
0.0
 10
437.746394
 20
-217.618088
 30
0.0
 10
438.052535
 20
-217.618088
 30
0.0
 10
438.052535
 20
-215.322025
 30
0.0
 10
436.501984
 20
-215.322025
 30
0.0
 10
436.501984
 20
-215.843600
 30
0.0
 10
437.457260
 20
-215.843600
 30
0.0
 10
437.457260
 20
-215.880450
 30
0.0
 10
437.383559
 20
-216.441710
 30
0.0
 10
437.187969
 20
-216.858403
 30
0.0
 10
436.887496
 20
-217.122025
 30
0.0
 10
436.513323
 20
-217.209899
 30
0.0
 10
436.096630
 20
-217.099348
 30
0.0
 10
435.773480
 20
-216.767694
 30
0.0
 10
435.563717
 20
-216.223442
 30
0.0
 10
435.490016
 20
-215.475096
 30
0.0
 10
435.558047
 20
-214.732419
 30
0.0
 10
435.764976
 20
-214.188167
 30
0.0
 10
436.096630
 20
-213.856513
 30
0.0
 10
436.544504
 20
-213.740293
 30
0.0
 10
436.850646
 20
-213.802655
 30
0.0
 10
437.102929
 20
-213.972734
 30
0.0
 10
437.284346
 20
-214.261867
 30
0.0
 10
437.389228
 20
-214.647379
 30
0.0
 10
437.995843
 20
-214.647379
 30
0.0
 10
437.837102
 20
-214.060608
 30
0.0
 10
437.536630
 20
-213.618403
 30
0.0
 10
437.114268
 20
-213.349112
 30
0.0
 10
436.581354
 20
-213.249899
 30
0.0
 10
435.881197
 20
-213.402970
 30
0.0
 10
435.356787
 20
-213.850844
 30
0.0
 10
435.019465
 20
-214.556671
 30
0.0
 10
434.903244
 20
-215.492104
 30
0.0
 10
435.019465
 20
-216.436041
 30
0.0
 10
435.356787
 20
-217.141867
 30
0.0
 10
435.852850
 20
-217.589741
 30
0.0
 10
436.476472
 20
-217.734308
 30
0.0
 10
436.825134
 20
-217.686119
 30
0.0
 10
437.139780
 20
-217.564230
 30
0.0
 10
437.409071
 20
-217.348797
 30
0.0
 10
437.641512
 20
-217.048324
 30
0.0
  0
LWPOLYLINE
  5
18a
100
AcDbEntity
  8
0
 62
7
100
AcDbPolyline
 90
11
 70
1
 10
438.812220
 20
-217.618088
 30
0.0
 10
439.319622
 20
-217.618088
 30
0.0
 10
439.319622
 20
-214.134308
 30
0.0
 10
440.949543
 20
-217.618088
 30
0.0
 10
441.604346
 20
-217.618088
 30
0.0
 10
441.604346
 20
-213.366119
 30
0.0
 10
441.091276
 20
-213.366119
 30
0.0
 10
441.091276
 20
-216.852734
 30
0.0
 10
439.478362
 20
-213.366119
 30
0.0
 10
438.812220
 20
-213.366119
 30
0.0
 10
438.812220
 20
-217.618088
 30
0.0
  0
LWPOLYLINE
  5
18b
100
AcDbEntity
  8
0
 62
7
100
AcDbPolyline
 90
13
 70
1
 10
442.610646
 20
-217.618088
 30
0.0
 10
445.306394
 20
-217.618088
 30
0.0
 10
445.306394
 20
-217.105017
 30
0.0
 10
443.174740
 20
-217.105017
 30
0.0
 10
443.174740
 20
-215.665017
 30
0.0
 10
445.073953
 20
-215.665017
 30
0.0
 10
445.073953
 20
-215.157615
 30
0.0
 10
443.174740
 20
-215.157615
 30
0.0
 10
443.174740
 20
-213.882025
 30
0.0
 10
445.255370
 20
-213.882025
 30
0.0
 10
445.255370
 20
-213.366119
 30
0.0
 10
442.610646
 20
-213.366119
 30
0.0
 10
442.610646
 20
-217.618088
 30
0.0
  0
LWPOLYLINE
  5
18c
100
AcDbEntity
  8
0
 62
7
100
AcDbPolyline
 90
14
 70
1
 10
447.579780
 20
-213.366119
 30
0.0
 10
446.162457
 20
-213.366119
 30
0.0
 10
446.162457
 20
-217.618088
 30
0.0
 10
447.579780
 20
-217.618088
 30
0.0
 10
448.245921
 20
-217.484860
 30
0.0
 10
448.741984
 20
-217.073836
 30
0.0
 10
449.048126
 20
-216.404860
 30
0.0
 10
449.158677
 20
-215.492104
 30
0.0
 10
449.062299
 20
-214.562340
 30
0.0
 10
448.937575
 20
-214.193836
 30
0.0
 10
448.767496
 20
-213.899033
 30
0.0
 10
448.271433
 20
-213.502182
 30
0.0
 10
447.945449
 20
-213.402970
 30
0.0
 10
447.579780
 20
-213.366119
 30
0.0
  0
LWPOLYLINE
  5
18d
100
AcDbEntity
  8
0
 62
7
100
AcDbPolyline
 90
12
 70
1
 10
447.534425
 20
-213.876356
 30
0.0
 10
448.002142
 20
-213.967064
 30
0.0
 10
448.319622
 20
-214.250529
 30
0.0
 10
448.509543
 20
-214.752261
 30
0.0
 10
448.571906
 20
-215.492104
 30
0.0
 10
448.503874
 20
-216.209269
 30
0.0
 10
448.313953
 20
-216.713836
 30
0.0
 10
447.987969
 20
-217.011474
 30
0.0
 10
447.534425
 20
-217.110686
 30
0.0
 10
446.732220
 20
-217.110686
 30
0.0
 10
446.732220
 20
-213.876356
 30
0.0
 10
447.534425
 20
-213.876356
 30
0.0
  0
LWPOLYLINE
  5
18e
100
AcDbEntity
  8
0
 62
7
100
AcDbPolyline
 90
19
 70
1
 10
455.726551
 20
-215.322025
 30
0.0
 10
456.157417
 20
-214.967694
 30
0.0
 10
456.265134
 20
-214.726749
 30
0.0
 10
456.301984
 20
-214.431946
 30
0.0
 10
456.222614
 20
-213.972734
 30
0.0
 10
455.984504
 20
-213.643915
 30
0.0
 10
455.598992
 20
-213.439820
 30
0.0
 10
455.060409
 20
-213.366119
 30
0.0
 10
453.546709
 20
-213.366119
 30
0.0
 10
453.546709
 20
-217.618088
 30
0.0
 10
455.145449
 20
-217.618088
 30
0.0
 10
455.715213
 20
-217.533049
 30
0.0
 10
456.137575
 20
-217.283600
 30
0.0
 10
456.401197
 20
-216.883915
 30
0.0
 10
456.491906
 20
-216.345332
 30
0.0
 10
456.438047
 20
-215.982497
 30
0.0
 10
456.290646
 20
-215.682025
 30
0.0
 10
456.052535
 20
-215.463757
 30
0.0
 10
455.726551
 20
-215.322025
 30
0.0
  0
LWPOLYLINE
  5
18f
100
AcDbEntity
  8
0
 62
7
100
AcDbPolyline
 90
12
 70
1
 10
454.944189
 20
-215.132104
 30
0.0
 10
454.110803
 20
-215.132104
 30
0.0
 10
454.110803
 20
-213.876356
 30
0.0
 10
454.992378
 20
-213.876356
 30
0.0
 10
455.324031
 20
-213.913206
 30
0.0
 10
455.556472
 20
-214.023757
 30
0.0
 10
455.695370
 20
-214.213678
 30
0.0
 10
455.746394
 20
-214.494308
 30
0.0
 10
455.689701
 20
-214.777773
 30
0.0
 10
455.542299
 20
-214.973364
 30
0.0
 10
455.292850
 20
-215.095253
 30
0.0
 10
454.944189
 20
-215.132104
 30
0.0
  0
LWPOLYLINE
  5
190
100
AcDbEntity
  8
0
 62
7
100
AcDbPolyline
 90
12
 70
1
 10
455.077417
 20
-217.110686
 30
0.0
 10
454.110803
 20
-217.110686
 30
0.0
 10
454.110803
 20
-215.645175
 30
0.0
 10
455.023559
 20
-215.645175
 30
0.0
 10
455.409071
 20
-215.690529
 30
0.0
 10
455.684031
 20
-215.818088
 30
0.0
 10
455.848441
 20
-216.039190
 30
0.0
 10
455.905134
 20
-216.356671
 30
0.0
 10
455.848441
 20
-216.693993
 30
0.0
 10
455.695370
 20
-216.926434
 30
0.0
 10
455.440252
 20
-217.068167
 30
0.0
 10
455.077417
 20
-217.110686
 30
0.0
  0
LWPOLYLINE
  5
191
100
AcDbEntity
  8
0
 62
7
100
AcDbPolyline
 90
10
 70
1
 10
458.969386
 20
-217.618088
 30
0.0
 10
458.969386
 20
-215.897458
 30
0.0
 10
460.364031
 20
-213.360450
 30
0.0
 10
459.729071
 20
-213.360450
 30
0.0
 10
458.680252
 20
-215.375883
 30
0.0
 10
457.620094
 20
-213.360450
 30
0.0
 10
456.939780
 20
-213.360450
 30
0.0
 10
458.399622
 20
-215.934308
 30
0.0
 10
458.399622
 20
-217.618088
 30
0.0
 10
458.969386
 20
-217.618088
 30
0.0
  0
LWPOLYLINE
  5
192
100
AcDbEntity
  8
0
 62
7
100
AcDbPolyline
 90
5
 70
1
 10
461.914583
 20
-217.618088
 30
0.0
 10
462.762142
 20
-217.618088
 30
0.0
 10
462.762142
 20
-216.705332
 30
0.0
 10
461.914583
 20
-216.705332
 30
0.0
 10
461.914583
 20
-217.618088
 30
0.0
  0
LWPOLYLINE
  5
193
100
AcDbEntity
  8
0
 62
7
100
AcDbPolyline
 90
5
 70
1
 10
461.914583
 20
-215.242655
 30
0.0
 10
462.762142
 20
-215.242655
 30
0.0
 10
462.762142
 20
-214.329899
 30
0.0
 10
461.914583
 20
-214.329899
 30
0.0
 10
461.914583
 20
-215.242655
 30
0.0
  0
LWPOLYLINE
  5
194
100
AcDbEntity
  8
0
 62
7
100
AcDbPolyline
 90
9
 70
1
 10
758.166236
 20
-336.225049
 30
0.0
 10
759.104504
 20
-336.225049
 30
0.0
 10
759.850016
 20
-334.141584
 30
0.0
 10
762.678992
 20
-334.141584
 30
0.0
 10
763.424504
 20
-336.225049
 30
0.0
 10
764.385449
 20
-336.225049
 30
0.0
 10
761.791748
 20
-329.129930
 30
0.0
 10
760.748598
 20
-329.129930
 30
0.0
 10
758.166236
 20
-336.225049
 30
0.0
  0
LWPOLYLINE
  5
195
100
AcDbEntity
  8
0
 62
7
100
AcDbPolyline
 90
4
 70
1
 10
760.178835
 20
-333.274182
 30
0.0
 10
761.270173
 20
-330.150403
 30
0.0
 10
762.361512
 20
-333.274182
 30
0.0
 10
760.178835
 20
-333.274182
 30
0.0
  0
LWPOLYLINE
  5
196
100
AcDbEntity
  8
0
 62
7
100
AcDbPolyline
 90
5
 70
1
 10
786.512976
 20
-337.920167
 30
0.0
 10
786.512976
 20
-338.634497
 30
0.0
 10
792.658488
 20
-338.634497
 30
0.0
 10
792.658488
 20
-337.920167
 30
0.0
 10
786.512976
 20
-337.920167
 30
0.0
  0
LWPOLYLINE
  5
197
100
AcDbEntity
  8
0
 62
7
100
AcDbPolyline
 90
19
 70
1
 10
762.545764
 20
-313.499694
 30
0.0
 10
763.260094
 20
-312.907253
 30
0.0
 10
763.444346
 20
-312.507568
 30
0.0
 10
763.506709
 20
-312.017175
 30
0.0
 10
763.373480
 20
-311.251820
 30
0.0
 10
762.976630
 20
-310.701899
 30
0.0
 10
762.333165
 20
-310.364576
 30
0.0
 10
761.434583
 20
-310.239852
 30
0.0
 10
758.911748
 20
-310.239852
 30
0.0
 10
758.911748
 20
-317.326466
 30
0.0
 10
761.576315
 20
-317.326466
 30
0.0
 10
762.525921
 20
-317.184734
 30
0.0
 10
763.231748
 20
-316.765206
 30
0.0
 10
763.671118
 20
-316.101899
 30
0.0
 10
763.824189
 20
-315.203316
 30
0.0
 10
763.730646
 20
-314.602371
 30
0.0
 10
763.486866
 20
-314.100639
 30
0.0
 10
763.087181
 20
-313.732135
 30
0.0
 10
762.545764
 20
-313.499694
 30
0.0
  0
LWPOLYLINE
  5
198
100
AcDbEntity
  8
0
 62
7
100
AcDbPolyline
 90
12
 70
1
 10
761.238992
 20
-313.182214
 30
0.0
 10
759.850016
 20
-313.182214
 30
0.0
 10
759.850016
 20
-311.087411
 30
0.0
 10
761.321197
 20
-311.087411
 30
0.0
 10
761.873953
 20
-311.149773
 30
0.0
 10
762.259465
 20
-311.334025
 30
0.0
 10
762.494740
 20
-311.651505
 30
0.0
 10
762.576945
 20
-312.119222
 30
0.0
 10
762.486236
 20
-312.589773
 30
0.0
 10
762.239622
 20
-312.915757
 30
0.0
 10
761.822929
 20
-313.119852
 30
0.0
 10
761.238992
 20
-313.182214
 30
0.0
  0
LWPOLYLINE
  5
199
100
AcDbEntity
  8
0
 62
7
100
AcDbPolyline
 90
12
 70
1
 10
761.462929
 20
-316.478907
 30
0.0
 10
759.850016
 20
-316.478907
 30
0.0
 10
759.850016
 20
-314.041112
 30
0.0
 10
761.372220
 20
-314.041112
 30
0.0
 10
762.015685
 20
-314.111978
 30
0.0
 10
762.474898
 20
-314.324576
 30
0.0
 10
762.749858
 20
-314.693080
 30
0.0
 10
762.843402
 20
-315.223159
 30
0.0
 10
762.749858
 20
-315.787253
 30
0.0
 10
762.494740
 20
-316.172765
 30
0.0
 10
762.066709
 20
-316.408041
 30
0.0
 10
761.462929
 20
-316.478907
 30
0.0
  0
LWPOLYLINE
  5
19a
100
AcDbEntity
  8
0
 62
7
100
AcDbPolyline
 90
5
 70
1
 10
786.512976
 20
-319.021584
 30
0.0
 10
786.512976
 20
-319.738749
 30
0.0
 10
792.658488
 20
-319.738749
 30
0.0
 10
792.658488
 20
-319.021584
 30
0.0
 10
786.512976
 20
-319.021584
 30
0.0
  0
LWPOLYLINE
  5
19b
100
AcDbEntity
  8
0
 62
7
100
AcDbPolyline
 90
35
 70
1
 10
762.925606
 20
-295.794497
 30
0.0
 10
762.721512
 20
-296.653395
 30
0.0
 10
762.384189
 20
-297.265678
 30
0.0
 10
761.913638
 20
-297.642686
 30
0.0
 10
761.360882
 20
-297.767411
 30
0.0
 10
760.697575
 20
-297.583159
 30
0.0
 10
760.178835
 20
-297.030403
 30
0.0
 10
759.830173
 20
-296.131820
 30
0.0
 10
759.716787
 20
-294.887411
 30
0.0
 10
759.830173
 20
-293.651505
 30
0.0
 10
760.167496
 20
-292.741584
 30
0.0
 10
760.689071
 20
-292.191663
 30
0.0
 10
761.360882
 20
-291.996072
 30
0.0
 10
761.851276
 20
-292.098119
 30
0.0
 10
762.270803
 20
-292.384419
 30
0.0
 10
762.596787
 20
-292.843631
 30
0.0
 10
762.823559
 20
-293.478592
 30
0.0
 10
763.793008
 20
-293.478592
 30
0.0
 10
763.486866
 20
-292.506308
 30
0.0
 10
762.953953
 20
-291.772135
 30
0.0
 10
762.231118
 20
-291.312923
 30
0.0
 10
761.360882
 20
-291.148513
 30
0.0
 10
760.280882
 20
-291.403631
 30
0.0
 10
759.453165
 20
-292.120797
 30
0.0
 10
758.920252
 20
-293.294340
 30
0.0
 10
758.738835
 20
-294.887411
 30
0.0
 10
758.920252
 20
-296.480482
 30
0.0
 10
759.453165
 20
-297.654025
 30
0.0
 10
760.280882
 20
-298.379694
 30
0.0
 10
761.360882
 20
-298.623474
 30
0.0
 10
762.310488
 20
-298.430718
 30
0.0
 10
763.078677
 20
-297.889301
 30
0.0
 10
763.620094
 20
-296.999222
 30
0.0
 10
763.903559
 20
-295.794497
 30
0.0
 10
762.925606
 20
-295.794497
 30
0.0
  0
LWPOLYLINE
  5
19c
100
AcDbEntity
  8
0
 62
7
100
AcDbPolyline
 90
5
 70
1
 10
786.512976
 20
-300.125836
 30
0.0
 10
786.512976
 20
-300.840167
 30
0.0
 10
792.658488
 20
-300.840167
 30
0.0
 10
792.658488
 20
-300.125836
 30
0.0
 10
786.512976
 20
-300.125836
 30
0.0
  0
LWPOLYLINE
  5
19d
100
AcDbEntity
  8
0
 62
7
100
AcDbPolyline
 90
14
 70
1
 10
761.258835
 20
-272.445521
 30
0.0
 10
758.900409
 20
-272.445521
 30
0.0
 10
758.900409
 20
-279.532135
 30
0.0
 10
761.258835
 20
-279.532135
 30
0.0
 10
762.372850
 20
-279.308198
 30
0.0
 10
763.200567
 20
-278.622214
 30
0.0
 10
763.710803
 20
-277.511033
 30
0.0
 10
763.895055
 20
-275.988828
 30
0.0
 10
763.730646
 20
-274.438277
 30
0.0
 10
763.526551
 20
-273.823159
 30
0.0
 10
763.240252
 20
-273.335600
 30
0.0
 10
762.412535
 20
-272.669458
 30
0.0
 10
761.873953
 20
-272.507883
 30
0.0
 10
761.258835
 20
-272.445521
 30
0.0
  0
LWPOLYLINE
  5
19e
100
AcDbEntity
  8
0
 62
7
100
AcDbPolyline
 90
12
 70
1
 10
761.187969
 20
-273.293080
 30
0.0
 10
761.964661
 20
-273.446151
 30
0.0
 10
762.494740
 20
-273.916702
 30
0.0
 10
762.812220
 20
-274.752923
 30
0.0
 10
762.914268
 20
-275.988828
 30
0.0
 10
762.800882
 20
-277.185049
 30
0.0
 10
762.486236
 20
-278.021269
 30
0.0
 10
761.944819
 20
-278.520167
 30
0.0
 10
761.187969
 20
-278.684576
 30
0.0
 10
759.850016
 20
-278.684576
 30
0.0
 10
759.850016
 20
-273.293080
 30
0.0
 10
761.187969
 20
-273.293080
 30
0.0
  0
LWPOLYLINE
  5
19f
100
AcDbEntity
  8
0
 62
7
100
AcDbPolyline
 90
5
 70
1
 10
786.512976
 20
-281.227253
 30
0.0
 10
786.512976
 20
-281.941584
 30
0.0
 10
792.658488
 20
-281.941584
 30
0.0
 10
792.658488
 20
-281.227253
 30
0.0
 10
786.512976
 20
-281.227253
 30
0.0
  0
LWPOLYLINE
  5
1a0
100
AcDbEntity
  8
0
 62
7
100
AcDbPolyline
 90
13
 70
1
 10
759.127181
 20
-260.633552
 30
0.0
 10
763.620094
 20
-260.633552
 30
0.0
 10
763.620094
 20
-259.777489
 30
0.0
 10
760.065449
 20
-259.777489
 30
0.0
 10
760.065449
 20
-257.376545
 30
0.0
 10
763.231748
 20
-257.376545
 30
0.0
 10
763.231748
 20
-256.528986
 30
0.0
 10
760.065449
 20
-256.528986
 30
0.0
 10
760.065449
 20
-254.405836
 30
0.0
 10
763.537890
 20
-254.405836
 30
0.0
 10
763.537890
 20
-253.546938
 30
0.0
 10
759.127181
 20
-253.546938
 30
0.0
 10
759.127181
 20
-260.633552
 30
0.0
  0
LWPOLYLINE
  5
1a1
100
AcDbEntity
  8
0
 62
7
100
AcDbPolyline
 90
5
 70
1
 10
786.512976
 20
-262.328671
 30
0.0
 10
786.512976
 20
-263.045836
 30
0.0
 10
792.658488
 20
-263.045836
 30
0.0
 10
792.658488
 20
-262.328671
 30
0.0
 10
786.512976
 20
-262.328671
 30
0.0
  0
LWPOLYLINE
  5
1a2
100
AcDbEntity
  8
0
 62
7
100
AcDbPolyline
 90
11
 70
1
 10
759.178205
 20
-241.737804
 30
0.0
 10
760.127811
 20
-241.737804
 30
0.0
 10
760.127811
 20
-238.480797
 30
0.0
 10
763.107024
 20
-238.480797
 30
0.0
 10
763.107024
 20
-237.633238
 30
0.0
 10
760.127811
 20
-237.633238
 30
0.0
 10
760.127811
 20
-235.507253
 30
0.0
 10
763.793008
 20
-235.507253
 30
0.0
 10
763.793008
 20
-234.651190
 30
0.0
 10
759.178205
 20
-234.651190
 30
0.0
 10
759.178205
 20
-241.737804
 30
0.0
  0
LWPOLYLINE
  5
1a3
100
AcDbEntity
  8
0
 62
7
100
AcDbPolyline
 90
5
 70
1
 10
786.512976
 20
-243.432923
 30
0.0
 10
786.512976
 20
-244.147253
 30
0.0
 10
792.658488
 20
-244.147253
 30
0.0
 10
792.658488
 20
-243.432923
 30
0.0
 10
786.512976
 20
-243.432923
 30
0.0
  0
LWPOLYLINE
  5
1a4
100
AcDbEntity
  8
0
 62
7
100
AcDbPolyline
 90
41
 70
1
 10
763.138205
 20
-221.889615
 30
0.0
 10
763.311118
 20
-222.839222
 30
0.0
 10
763.824189
 20
-222.839222
 30
0.0
 10
763.824189
 20
-219.009615
 30
0.0
 10
761.238992
 20
-219.009615
 30
0.0
 10
761.238992
 20
-219.877017
 30
0.0
 10
762.832063
 20
-219.877017
 30
0.0
 10
762.832063
 20
-219.939379
 30
0.0
 10
762.710173
 20
-220.877647
 30
0.0
 10
762.384189
 20
-221.572135
 30
0.0
 10
761.882457
 20
-222.011505
 30
0.0
 10
761.258835
 20
-222.156072
 30
0.0
 10
760.564346
 20
-221.971820
 30
0.0
 10
760.025764
 20
-221.419064
 30
0.0
 10
759.677102
 20
-220.511978
 30
0.0
 10
759.555213
 20
-219.264734
 30
0.0
 10
759.665764
 20
-218.028828
 30
0.0
 10
760.014425
 20
-217.121741
 30
0.0
 10
760.564346
 20
-216.568986
 30
0.0
 10
761.309858
 20
-216.376230
 30
0.0
 10
761.822929
 20
-216.478277
 30
0.0
 10
762.239622
 20
-216.764576
 30
0.0
 10
762.545764
 20
-217.243631
 30
0.0
 10
762.721512
 20
-217.887096
 30
0.0
 10
763.730646
 20
-217.887096
 30
0.0
 10
763.467024
 20
-216.906308
 30
0.0
 10
762.965291
 20
-216.172135
 30
0.0
 10
762.259465
 20
-215.721427
 30
0.0
 10
761.372220
 20
-215.559852
 30
0.0
 10
760.207181
 20
-215.814970
 30
0.0
 10
759.331276
 20
-216.560482
 30
0.0
 10
758.767181
 20
-217.734025
 30
0.0
 10
758.574425
 20
-219.295915
 30
0.0
 10
758.767181
 20
-220.869143
 30
0.0
 10
759.331276
 20
-222.042686
 30
0.0
 10
760.156157
 20
-222.788198
 30
0.0
 10
761.199307
 20
-223.034812
 30
0.0
 10
761.780409
 20
-222.952608
 30
0.0
 10
762.301984
 20
-222.748513
 30
0.0
 10
762.749858
 20
-222.391348
 30
0.0
 10
763.138205
 20
-221.889615
 30
0.0
  0
LWPOLYLINE
  5
1a5
100
AcDbEntity
  8
0
 62
7
100
AcDbPolyline
 90
5
 70
1
 10
786.512976
 20
-224.534340
 30
0.0
 10
786.512976
 20
-225.248671
 30
0.0
 10
792.658488
 20
-225.248671
 30
0.0
 10
792.658488
 20
-224.534340
 30
0.0
 10
786.512976
 20
-224.534340
 30
0.0
  0
LWPOLYLINE
  5
1a6
100
AcDbEntity
  8
0
 62
1
100
AcDbPolyline
 90
11
 70
1
 10
718.604482
 20
-259.879929
 30
0.0
 10
718.604482
 20
-288.168446
 30
0.0
 10
724.912057
 20
-288.168446
 30
0.0
 10
724.912057
 20
-277.098334
 30
0.0
 10
729.371958
 20
-277.098334
 30
0.0
 10
729.371958
 20
-272.734001
 30
0.0
 10
724.912057
 20
-272.734001
 30
0.0
 10
724.912057
 20
-268.023388
 30
0.0
 10
735.898777
 20
-268.023388
 30
0.0
 10
735.898777
 20
-259.895857
 30
0.0
 10
718.604482
 20
-259.879929
 30
0.0
  0
LWPOLYLINE
  5
1a7
100
AcDbEntity
  8
0
 62
5
100
AcDbPolyline
 90
33
 70
1
 10
746.681835
 20
-268.310824
 30
0.0
 10
743.012860
 20
-270.415841
 30
0.0
 10
741.392672
 20
-269.853591
 30
0.0
 10
739.846875
 20
-265.903024
 30
0.0
 10
737.415255
 20
-266.030806
 30
0.0
 10
736.306131
 20
-270.115940
 30
0.0
 10
734.753846
 20
-270.859296
 30
0.0
 10
730.882188
 20
-269.165647
 30
0.0
 10
729.246903
 20
-270.982834
 30
0.0
 10
731.351925
 20
-274.651807
 30
0.0
 10
730.776684
 20
-276.267247
 30
0.0
 10
726.826114
 20
-277.813045
 30
0.0
 10
726.966884
 20
-280.249406
 30
0.0
 10
731.052021
 20
-281.358530
 30
0.0
 10
731.795377
 20
-282.910811
 30
0.0
 10
730.088743
 20
-286.777731
 30
0.0
 10
731.905926
 20
-288.413015
 30
0.0
 10
735.574896
 20
-286.307997
 30
0.0
 10
737.203331
 20
-286.887979
 30
0.0
 10
738.736140
 20
-290.833804
 30
0.0
 10
741.185488
 20
-290.697773
 30
0.0
 10
742.281624
 20
-286.607898
 30
0.0
 10
743.833910
 20
-285.864541
 30
0.0
 10
747.713810
 20
-287.575924
 30
0.0
 10
749.349095
 20
-285.758737
 30
0.0
 10
747.244078
 20
-282.089764
 30
0.0
 10
747.811066
 20
-280.456590
 30
0.0
 10
751.756891
 20
-278.923781
 30
0.0
 10
751.633859
 20
-276.479175
 30
0.0
 10
747.543982
 20
-275.383041
 30
0.0
 10
746.800621
 20
-273.830760
 30
0.0
 10
748.499012
 20
-269.946106
 30
0.0
 10
746.681835
 20
-268.310824
 30
0.0
  0
SPLINE
  5
1a8
100
AcDbEntity
  8
0
 62
7
100
AcDbSpline
 70
8
 71
3
 72
8
 73
4
 74
0
 40
0
 40
0
 40
0
 40
0
 40
1
 40
1
 40
1
 40
1
 10
383.548819
 20
-25.844375
 30
0.0
 10
383.547969
 20
-25.716249
 30
0.0
 10
383.454709
 20
-25.593226
 30
0.0
 10
383.331969
 20
-25.578485
 30
0.0
  0
SPLINE
  5
1a9
100
AcDbEntity
  8
0
 62
7
100
AcDbSpline
 70
8
 71
3
 72
8
 73
4
 74
0
 40
0
 40
0
 40
0
 40
0
 40
1
 40
1
 40
1
 40
1
 10
383.331969
 20
-25.578485
 30
0.0
 10
383.176630
 20
-25.556092
 30
0.0
 10
383.060693
 20
-25.713131
 30
0.0
 10
383.066079
 20
-25.845509
 30
0.0
  0
LWPOLYLINE
  5
1aa
100
AcDbEntity
  8
0
 62
5
100
AcDbPolyline
 90
33
 70
1
 10
741.186828
 20
-274.327490
 30
0.0
 10
741.939991
 20
-274.764488
 30
0.0
 10
742.592523
 20
-275.356118
 30
0.0
 10
743.114938
 20
-276.062170
 30
0.0
 10
743.490737
 20
-276.847177
 30
0.0
 10
743.711688
 20
-277.693408
 30
0.0
 10
743.748285
 20
-278.560649
 30
0.0
 10
743.623025
 20
-279.427664
 30
0.0
 10
743.337163
 20
-280.250748
 30
0.0
 10
742.882432
 20
-281.012159
 30
0.0
 10
742.308537
 20
-281.656443
 30
0.0
 10
741.602481
 20
-282.178854
 30
0.0
 10
740.817472
 20
-282.554654
 30
0.0
 10
739.971248
 20
-282.775601
 30
0.0
 10
739.099263
 20
-282.825201
 30
0.0
 10
738.232243
 20
-282.699950
 30
0.0
 10
737.409164
 20
-282.414082
 30
0.0
 10
736.647755
 20
-281.959351
 30
0.0
 10
736.008205
 20
-281.372463
 30
0.0
 10
735.481060
 20
-280.679402
 30
0.0
 10
735.105251
 20
-279.894395
 30
0.0
 10
734.889050
 20
-279.035175
 30
0.0
 10
734.839456
 20
-278.163191
 30
0.0
 10
734.964705
 20
-277.296173
 30
0.0
 10
735.250577
 20
-276.473092
 30
0.0
 10
735.700563
 20
-275.724669
 30
0.0
 10
736.279209
 20
-275.067396
 30
0.0
 10
736.985260
 20
-274.544984
 30
0.0
 10
737.770263
 20
-274.169183
 30
0.0
 10
738.629480
 20
-273.952981
 30
0.0
 10
739.496724
 20
-273.916374
 30
0.0
 10
740.363739
 20
-274.041624
 30
0.0
 10
741.186823
 20
-274.327493
 30
0.0
  0
SPLINE
  5
1ab
100
AcDbEntity
  8
0
 62
7
100
AcDbSpline
 70
8
 71
3
 72
8
 73
4
 74
0
 40
0
 40
0
 40
0
 40
0
 40
1
 40
1
 40
1
 40
1
 10
383.066079
 20
-25.845509
 30
0.0
 10
382.935969
 20
-33.292690
 30
0.0
 10
382.888063
 20
-40.743556
 30
0.0
 10
382.836189
 20
-48.193714
 30
0.0
  0
SPLINE
  5
1ac
100
AcDbEntity
  8
0
 62
7
100
AcDbSpline
 70
8
 71
3
 72
8
 73
4
 74
0
 40
0
 40
0
 40
0
 40
0
 40
1
 40
1
 40
1
 40
1
 10
382.836189
 20
-48.193714
 30
0.0
 10
382.779213
 20
-57.461248
 30
0.0
 10
382.736409
 20
-66.729065
 30
0.0
 10
382.707213
 20
-75.997137
 30
0.0
  0
LWPOLYLINE
  5
1ad
100
AcDbEntity
  8
0
 62
7
100
AcDbPolyline
 90
1
 70
1
 10
383.066079
 20
-25.845509
 30
0.0
  0
SPLINE
  5
1ae
100
AcDbEntity
  8
0
 62
7
100
AcDbSpline
 70
8
 71
3
 72
8
 73
4
 74
0
 40
0
 40
0
 40
0
 40
0
 40
1
 40
1
 40
1
 40
1
 10
382.707213
 20
-75.997137
 30
0.0
 10
381.332976
 20
-75.270864
 30
0.0
 10
379.756913
 20
-74.818908
 30
0.0
 10
378.222236
 20
-74.811745
 30
0.0
  0
LWPOLYLINE
  5
1af
100
AcDbEntity
  8
0
 62
7
100
AcDbPolyline
 90
1
 70
1
 10
382.707213
 20
-75.997137
 30
0.0
  0
SPLINE
  5
1b0
100
AcDbEntity
  8
0
 62
7
100
AcDbSpline
 70
8
 71
3
 72
8
 73
4
 74
0
 40
0
 40
0
 40
0
 40
0
 40
1
 40
1
 40
1
 40
1
 10
377.457165
 20
-25.491745
 30
0.0
 10
377.458866
 20
-25.191556
 30
0.0
 10
377.308346
 20
-24.895619
 30
0.0
 10
377.060031
 20
-24.661761
 30
0.0
  0
SPLINE
  5
1b1
100
AcDbEntity
  8
0
 62
7
100
AcDbSpline
 70
8
 71
3
 72
8
 73
4
 74
0
 40
0
 40
0
 40
0
 40
0
 40
1
 40
1
 40
1
 40
1
 10
377.060031
 20
-24.661761
 30
0.0
 10
376.648441
 20
-24.271147
 30
0.0
 10
375.997323
 20
-24.050328
 30
0.0
 10
375.370866
 20
-24.051745
 30
0.0
  0
LWPOLYLINE
  5
1b2
100
AcDbEntity
  8
0
 62
7
100
AcDbPolyline
 90
4
 70
0
 10
378.222236
 20
-74.811745
 30
0.0
 10
377.457165
 20
-74.811745
 30
0.0
 10
377.457165
 20
-25.491745
 30
0.0
 10
377.457165
 20
-25.491745
 30
0.0
  0
SPLINE
  5
1b3
100
AcDbEntity
  8
0
 62
7
100
AcDbSpline
 70
8
 71
3
 72
8
 73
4
 74
0
 40
0
 40
0
 40
0
 40
0
 40
1
 40
1
 40
1
 40
1
 10
372.020882
 20
-24.051745
 30
0.0
 10
371.733732
 20
-24.050611
 30
0.0
 10
371.448850
 20
-24.165982
 30
0.0
 10
371.246457
 20
-24.366108
 30
0.0
  0
SPLINE
  5
1b4
100
AcDbEntity
  8
0
 62
7
100
AcDbSpline
 70
8
 71
3
 72
8
 73
4
 74
0
 40
0
 40
0
 40
0
 40
0
 40
1
 40
1
 40
1
 40
1
 10
371.246457
 20
-24.366108
 30
0.0
 10
371.041228
 20
-24.565383
 30
0.0
 10
370.922457
 20
-24.847430
 30
0.0
 10
370.923591
 20
-25.131745
 30
0.0
  0
LWPOLYLINE
  5
1b5
100
AcDbEntity
  8
0
 62
7
100
AcDbPolyline
 90
2
 70
0
 10
375.370866
 20
-24.051745
 30
0.0
 10
372.020882
 20
-24.051745
 30
0.0
  0
SPLINE
  5
1b6
100
AcDbEntity
  8
0
 62
7
100
AcDbSpline
 70
8
 71
3
 72
8
 73
4
 74
0
 40
0
 40
0
 40
0
 40
0
 40
1
 40
1
 40
1
 40
1
 10
370.826929
 20
-100.280385
 30
0.0
 10
366.387307
 20
-100.908117
 30
0.0
 10
363.086929
 20
-104.707903
 30
0.0
 10
363.086929
 20
-109.191745
 30
0.0
  0
SPLINE
  5
1b7
100
AcDbEntity
  8
0
 62
7
100
AcDbSpline
 70
8
 71
3
 72
8
 73
4
 74
0
 40
0
 40
0
 40
0
 40
0
 40
1
 40
1
 40
1
 40
1
 10
363.086929
 20
-109.191745
 30
0.0
 10
363.086929
 20
-112.672123
 30
0.0
 10
365.093575
 20
-115.840690
 30
0.0
 10
368.240031
 20
-117.328312
 30
0.0
  0
SPLINE
  5
1b8
100
AcDbEntity
  8
0
 62
7
100
AcDbSpline
 70
8
 71
3
 72
8
 73
4
 74
0
 40
0
 40
0
 40
0
 40
0
 40
1
 40
1
 40
1
 40
1
 10
368.240031
 20
-117.328312
 30
0.0
 10
371.386772
 20
-118.815934
 30
0.0
 10
375.108945
 20
-118.355871
 30
0.0
 10
377.798457
 20
-116.147115
 30
0.0
  0
SPLINE
  5
1b9
100
AcDbEntity
  8
0
 62
7
100
AcDbSpline
 70
8
 71
3
 72
8
 73
4
 74
0
 40
0
 40
0
 40
0
 40
0
 40
1
 40
1
 40
1
 40
1
 10
377.798457
 20
-116.147115
 30
0.0
 10
378.720850
 20
-119.179336
 30
0.0
 10
381.517512
 20
-121.251745
 30
0.0
 10
384.686929
 20
-121.251745
 30
0.0
  0
LWPOLYLINE
  5
1ba
100
AcDbEntity
  8
0
 62
7
100
AcDbPolyline
 90
4
 70
0
 10
370.923591
 20
-25.131745
 30
0.0
 10
370.923591
 20
-25.131745
 30
0.0
 10
370.875118
 20
-89.211745
 30
0.0
 10
370.826929
 20
-100.280385
 30
0.0
  0
SPLINE
  5
1bb
100
AcDbEntity
  8
0
 62
7
100
AcDbSpline
 70
8
 71
3
 72
8
 73
4
 74
0
 40
0
 40
0
 40
0
 40
0
 40
1
 40
1
 40
1
 40
1
 10
456.686929
 20
-121.251745
 30
0.0
 10
459.856346
 20
-121.251745
 30
0.0
 10
462.653008
 20
-119.179336
 30
0.0
 10
463.575402
 20
-116.147115
 30
0.0
  0
SPLINE
  5
1bc
100
AcDbEntity
  8
0
 62
7
100
AcDbSpline
 70
8
 71
3
 72
8
 73
4
 74
0
 40
0
 40
0
 40
0
 40
0
 40
1
 40
1
 40
1
 40
1
 10
463.575402
 20
-116.147115
 30
0.0
 10
466.264913
 20
-118.355871
 30
0.0
 10
469.987087
 20
-118.815934
 30
0.0
 10
473.133827
 20
-117.328312
 30
0.0
  0
SPLINE
  5
1bd
100
AcDbEntity
  8
0
 62
7
100
AcDbSpline
 70
8
 71
3
 72
8
 73
4
 74
0
 40
0
 40
0
 40
0
 40
0
 40
1
 40
1
 40
1
 40
1
 10
473.133827
 20
-117.328312
 30
0.0
 10
476.280283
 20
-115.840690
 30
0.0
 10
478.286929
 20
-112.672123
 30
0.0
 10
478.286929
 20
-109.191745
 30
0.0
  0
SPLINE
  5
1be
100
AcDbEntity
  8
0
 62
7
100
AcDbSpline
 70
8
 71
3
 72
8
 73
4
 74
0
 40
0
 40
0
 40
0
 40
0
 40
1
 40
1
 40
1
 40
1
 10
478.286929
 20
-109.191745
 30
0.0
 10
478.286929
 20
-104.707903
 30
0.0
 10
474.986551
 20
-100.908117
 30
0.0
 10
470.546929
 20
-100.280385
 30
0.0
  0
LWPOLYLINE
  5
1bf
100
AcDbEntity
  8
0
 62
7
100
AcDbPolyline
 90
2
 70
0
 10
384.686929
 20
-121.251745
 30
0.0
 10
456.686929
 20
-121.251745
 30
0.0
  0
SPLINE
  5
1c0
100
AcDbEntity
  8
0
 62
7
100
AcDbSpline
 70
8
 71
3
 72
8
 73
4
 74
0
 40
0
 40
0
 40
0
 40
0
 40
1
 40
1
 40
1
 40
1
 10
470.450268
 20
-25.131745
 30
0.0
 10
470.451402
 20
-24.847430
 30
0.0
 10
470.332630
 20
-24.565383
 30
0.0
 10
470.127402
 20
-24.366108
 30
0.0
  0
SPLINE
  5
1c1
100
AcDbEntity
  8
0
 62
7
100
AcDbSpline
 70
8
 71
3
 72
8
 73
4
 74
0
 40
0
 40
0
 40
0
 40
0
 40
1
 40
1
 40
1
 40
1
 10
470.127402
 20
-24.366108
 30
0.0
 10
469.925008
 20
-24.165982
 30
0.0
 10
469.640126
 20
-24.050611
 30
0.0
 10
469.352976
 20
-24.051745
 30
0.0
  0
LWPOLYLINE
  5
1c2
100
AcDbEntity
  8
0
 62
7
100
AcDbPolyline
 90
4
 70
0
 10
470.546929
 20
-100.280385
 30
0.0
 10
470.498740
 20
-89.211745
 30
0.0
 10
470.450268
 20
-25.131745
 30
0.0
 10
470.450268
 20
-25.131745
 30
0.0
  0
SPLINE
  5
1c3
100
AcDbEntity
  8
0
 62
7
100
AcDbSpline
 70
8
 71
3
 72
8
 73
4
 74
0
 40
0
 40
0
 40
0
 40
0
 40
1
 40
1
 40
1
 40
1
 10
465.817606
 20
-24.051745
 30
0.0
 10
465.184063
 20
-24.050328
 30
0.0
 10
464.524724
 20
-24.272281
 30
0.0
 10
464.108031
 20
-24.665730
 30
0.0
  0
SPLINE
  5
1c4
100
AcDbEntity
  8
0
 62
7
100
AcDbSpline
 70
8
 71
3
 72
8
 73
4
 74
0
 40
0
 40
0
 40
0
 40
0
 40
1
 40
1
 40
1
 40
1
 10
464.108031
 20
-24.665730
 30
0.0
 10
463.859717
 20
-24.898454
 30
0.0
 10
463.708630
 20
-25.192974
 30
0.0
 10
463.710331
 20
-25.491745
 30
0.0
  0
LWPOLYLINE
  5
1c5
100
AcDbEntity
  8
0
 62
7
100
AcDbPolyline
 90
2
 70
0
 10
469.352976
 20
-24.051745
 30
0.0
 10
465.817606
 20
-24.051745
 30
0.0
  0
SPLINE
  5
1c6
100
AcDbEntity
  8
0
 62
7
100
AcDbSpline
 70
8
 71
3
 72
8
 73
4
 74
0
 40
0
 40
0
 40
0
 40
0
 40
1
 40
1
 40
1
 40
1
 10
463.151622
 20
-74.811745
 30
0.0
 10
462.096283
 20
-74.812873
 30
0.0
 10
461.022236
 20
-75.035626
 30
0.0
 10
460.007150
 20
-75.401851
 30
0.0
  0
SPLINE
  5
1c7
100
AcDbEntity
  8
0
 62
7
100
AcDbSpline
 70
8
 71
3
 72
8
 73
4
 74
0
 40
0
 40
0
 40
0
 40
0
 40
1
 40
1
 40
1
 40
1
 10
460.007150
 20
-75.401851
 30
0.0
 10
459.558992
 20
-75.563465
 30
0.0
 10
459.126142
 20
-75.754407
 30
0.0
 10
458.708882
 20
-75.974630
 30
0.0
  0
SPLINE
  5
1c8
100
AcDbEntity
  8
0
 62
7
100
AcDbSpline
 70
8
 71
3
 72
8
 73
4
 74
0
 40
0
 40
0
 40
0
 40
0
 40
1
 40
1
 40
1
 40
1
 10
458.708882
 20
-75.974630
 30
0.0
 10
458.315433
 20
-76.178498
 30
0.0
 10
457.955717
 20
-76.415559
 30
0.0
 10
457.629732
 20
-76.685786
 30
0.0
  0
SPLINE
  5
1c9
100
AcDbEntity
  8
0
 62
7
100
AcDbSpline
 70
8
 71
3
 72
8
 73
4
 74
0
 40
0
 40
0
 40
0
 40
0
 40
1
 40
1
 40
1
 40
1
 10
457.629732
 20
-76.685786
 30
0.0
 10
457.309701
 20
-76.960917
 30
0.0
 10
457.027654
 20
-77.299572
 30
0.0
 10
457.021701
 20
-77.679188
 30
0.0
  0
LWPOLYLINE
  5
1ca
100
AcDbEntity
  8
0
 62
7
100
AcDbPolyline
 90
3
 70
0
 10
463.710331
 20
-25.491745
 30
0.0
 10
463.710331
 20
-74.811745
 30
0.0
 10
463.151622
 20
-74.811745
 30
0.0
  0
SPLINE
  5
1cb
100
AcDbEntity
  8
0
 62
7
100
AcDbSpline
 70
8
 71
3
 72
8
 73
4
 74
0
 40
0
 40
0
 40
0
 40
0
 40
1
 40
1
 40
1
 40
1
 10
384.612378
 20
-93.531745
 30
0.0
 10
384.314457
 20
-75.828249
 30
0.0
 10
384.044598
 20
-58.124526
 30
0.0
 10
383.803370
 20
-40.420690
 30
0.0
  0
LWPOLYLINE
  5
1cc
100
AcDbEntity
  8
0
 62
7
100
AcDbPolyline
 90
6
 70
0
 10
457.021701
 20
-77.679188
 30
0.0
 10
457.021701
 20
-77.679188
 30
0.0
 10
456.761480
 20
-93.531745
 30
0.0
 10
456.761480
 20
-93.531745
 30
0.0
 10
384.612378
 20
-93.531745
 30
0.0
 10
384.612378
 20
-93.531745
 30
0.0
  0
SPLINE
  5
1cd
100
AcDbEntity
  8
0
 62
7
100
AcDbSpline
 70
8
 71
3
 72
8
 73
4
 74
0
 40
0
 40
0
 40
0
 40
0
 40
1
 40
1
 40
1
 40
1
 10
383.803370
 20
-40.420690
 30
0.0
 10
383.741575
 20
-35.560690
 30
0.0
 10
383.656535
 20
-30.701824
 30
0.0
 10
383.548819
 20
-25.844375
 30
0.0
  0
LWPOLYLINE
  5
1ce
100
AcDbEntity
  8
0
 62
7
100
AcDbPolyline
 90
1
 70
1
 10
383.803370
 20
-40.420690
 30
0.0
  0
LWPOLYLINE
  5
1cf
100
AcDbEntity
  8
0
 62
7
100
AcDbPolyline
 90
4
 70
1
 10
420.686929
 20
-72.651745
 30
0.0
 10
420.686929
 20
-72.651745
 30
0.0
 10
420.686929
 20
-72.651745
 30
0.0
 10
420.686929
 20
-72.651745
 30
0.0
  0
SPLINE
  5
1d0
100
AcDbEntity
  8
0
 62
7
100
AcDbSpline
 70
8
 71
3
 72
8
 73
4
 74
0
 40
0
 40
0
 40
0
 40
0
 40
1
 40
1
 40
1
 40
1
 10
470.450268
 20
-25.131745
 30
0.0
 10
470.451402
 20
-24.847430
 30
0.0
 10
470.332630
 20
-24.565383
 30
0.0
 10
470.127402
 20
-24.366108
 30
0.0
  0
SPLINE
  5
1d1
100
AcDbEntity
  8
0
 62
7
100
AcDbSpline
 70
8
 71
3
 72
8
 73
4
 74
0
 40
0
 40
0
 40
0
 40
0
 40
1
 40
1
 40
1
 40
1
 10
470.127402
 20
-24.366108
 30
0.0
 10
469.925008
 20
-24.165982
 30
0.0
 10
469.640126
 20
-24.050611
 30
0.0
 10
469.352976
 20
-24.051745
 30
0.0
  0
LWPOLYLINE
  5
1d2
100
AcDbEntity
  8
0
 62
7
100
AcDbPolyline
 90
4
 70
0
 10
470.522835
 20
-89.211745
 30
0.0
 10
470.450268
 20
-89.211745
 30
0.0
 10
470.450268
 20
-25.131745
 30
0.0
 10
470.450268
 20
-25.131745
 30
0.0
  0
SPLINE
  5
1d3
100
AcDbEntity
  8
0
 62
7
100
AcDbSpline
 70
8
 71
3
 72
8
 73
4
 74
0
 40
0
 40
0
 40
0
 40
0
 40
1
 40
1
 40
1
 40
1
 10
465.817606
 20
-24.051745
 30
0.0
 10
465.184063
 20
-24.050328
 30
0.0
 10
464.524724
 20
-24.272281
 30
0.0
 10
464.108031
 20
-24.665730
 30
0.0
  0
SPLINE
  5
1d4
100
AcDbEntity
  8
0
 62
7
100
AcDbSpline
 70
8
 71
3
 72
8
 73
4
 74
0
 40
0
 40
0
 40
0
 40
0
 40
1
 40
1
 40
1
 40
1
 10
464.108031
 20
-24.665730
 30
0.0
 10
463.859717
 20
-24.898454
 30
0.0
 10
463.708630
 20
-25.192974
 30
0.0
 10
463.710331
 20
-25.491745
 30
0.0
  0
LWPOLYLINE
  5
1d5
100
AcDbEntity
  8
0
 62
7
100
AcDbPolyline
 90
2
 70
0
 10
469.352976
 20
-24.051745
 30
0.0
 10
465.817606
 20
-24.051745
 30
0.0
  0
SPLINE
  5
1d6
100
AcDbEntity
  8
0
 62
7
100
AcDbSpline
 70
8
 71
3
 72
8
 73
4
 74
0
 40
0
 40
0
 40
0
 40
0
 40
1
 40
1
 40
1
 40
1
 10
463.151622
 20
-74.811745
 30
0.0
 10
462.096283
 20
-74.812873
 30
0.0
 10
461.022236
 20
-75.035626
 30
0.0
 10
460.007150
 20
-75.401851
 30
0.0
  0
SPLINE
  5
1d7
100
AcDbEntity
  8
0
 62
7
100
AcDbSpline
 70
8
 71
3
 72
8
 73
4
 74
0
 40
0
 40
0
 40
0
 40
0
 40
1
 40
1
 40
1
 40
1
 10
460.007150
 20
-75.401851
 30
0.0
 10
459.558992
 20
-75.563465
 30
0.0
 10
459.126142
 20
-75.754407
 30
0.0
 10
458.708882
 20
-75.974630
 30
0.0
  0
SPLINE
  5
1d8
100
AcDbEntity
  8
0
 62
7
100
AcDbSpline
 70
8
 71
3
 72
8
 73
4
 74
0
 40
0
 40
0
 40
0
 40
0
 40
1
 40
1
 40
1
 40
1
 10
458.708882
 20
-75.974630
 30
0.0
 10
458.315433
 20
-76.178498
 30
0.0
 10
457.955717
 20
-76.415559
 30
0.0
 10
457.629732
 20
-76.685786
 30
0.0
  0
SPLINE
  5
1d9
100
AcDbEntity
  8
0
 62
7
100
AcDbSpline
 70
8
 71
3
 72
8
 73
4
 74
0
 40
0
 40
0
 40
0
 40
0
 40
1
 40
1
 40
1
 40
1
 10
457.629732
 20
-76.685786
 30
0.0
 10
457.309701
 20
-76.960917
 30
0.0
 10
457.027654
 20
-77.299572
 30
0.0
 10
457.021701
 20
-77.679188
 30
0.0
  0
LWPOLYLINE
  5
1da
100
AcDbEntity
  8
0
 62
7
100
AcDbPolyline
 90
3
 70
0
 10
463.710331
 20
-25.491745
 30
0.0
 10
463.710331
 20
-74.811745
 30
0.0
 10
463.151622
 20
-74.811745
 30
0.0
  0
SPLINE
  5
1db
100
AcDbEntity
  8
0
 62
7
100
AcDbSpline
 70
8
 71
3
 72
8
 73
4
 74
0
 40
0
 40
0
 40
0
 40
0
 40
1
 40
1
 40
1
 40
1
 10
384.612378
 20
-93.531745
 30
0.0
 10
384.314457
 20
-75.828249
 30
0.0
 10
384.044598
 20
-58.124526
 30
0.0
 10
383.803370
 20
-40.420690
 30
0.0
  0
LWPOLYLINE
  5
1dc
100
AcDbEntity
  8
0
 62
7
100
AcDbPolyline
 90
6
 70
0
 10
457.021701
 20
-77.679188
 30
0.0
 10
457.021701
 20
-77.679188
 30
0.0
 10
456.761480
 20
-93.531745
 30
0.0
 10
456.761480
 20
-93.531745
 30
0.0
 10
384.612378
 20
-93.531745
 30
0.0
 10
384.612378
 20
-93.531745
 30
0.0
  0
SPLINE
  5
1dd
100
AcDbEntity
  8
0
 62
7
100
AcDbSpline
 70
8
 71
3
 72
8
 73
4
 74
0
 40
0
 40
0
 40
0
 40
0
 40
1
 40
1
 40
1
 40
1
 10
383.803370
 20
-40.420690
 30
0.0
 10
383.741575
 20
-35.560690
 30
0.0
 10
383.656535
 20
-30.701824
 30
0.0
 10
383.548819
 20
-25.844375
 30
0.0
  0
LWPOLYLINE
  5
1de
100
AcDbEntity
  8
0
 62
7
100
AcDbPolyline
 90
1
 70
1
 10
383.803370
 20
-40.420690
 30
0.0
  0
SPLINE
  5
1df
100
AcDbEntity
  8
0
 62
7
100
AcDbSpline
 70
8
 71
3
 72
8
 73
4
 74
0
 40
0
 40
0
 40
0
 40
0
 40
1
 40
1
 40
1
 40
1
 10
383.548819
 20
-25.844375
 30
0.0
 10
383.547969
 20
-25.716249
 30
0.0
 10
383.454709
 20
-25.593226
 30
0.0
 10
383.331969
 20
-25.578485
 30
0.0
  0
SPLINE
  5
1e0
100
AcDbEntity
  8
0
 62
7
100
AcDbSpline
 70
8
 71
3
 72
8
 73
4
 74
0
 40
0
 40
0
 40
0
 40
0
 40
1
 40
1
 40
1
 40
1
 10
383.331969
 20
-25.578485
 30
0.0
 10
383.176630
 20
-25.556092
 30
0.0
 10
383.060693
 20
-25.713131
 30
0.0
 10
383.066079
 20
-25.845509
 30
0.0
  0
LWPOLYLINE
  5
1e1
100
AcDbEntity
  8
0
 62
7
100
AcDbPolyline
 90
1
 70
1
 10
383.548819
 20
-25.844375
 30
0.0
  0
SPLINE
  5
1e2
100
AcDbEntity
  8
0
 62
7
100
AcDbSpline
 70
8
 71
3
 72
8
 73
4
 74
0
 40
0
 40
0
 40
0
 40
0
 40
1
 40
1
 40
1
 40
1
 10
383.066079
 20
-25.845509
 30
0.0
 10
382.935969
 20
-33.292690
 30
0.0
 10
382.888063
 20
-40.743556
 30
0.0
 10
382.836189
 20
-48.193714
 30
0.0
  0
SPLINE
  5
1e3
100
AcDbEntity
  8
0
 62
7
100
AcDbSpline
 70
8
 71
3
 72
8
 73
4
 74
0
 40
0
 40
0
 40
0
 40
0
 40
1
 40
1
 40
1
 40
1
 10
382.836189
 20
-48.193714
 30
0.0
 10
382.779213
 20
-57.461248
 30
0.0
 10
382.736409
 20
-66.729065
 30
0.0
 10
382.707213
 20
-75.997137
 30
0.0
  0
LWPOLYLINE
  5
1e4
100
AcDbEntity
  8
0
 62
7
100
AcDbPolyline
 90
1
 70
1
 10
383.066079
 20
-25.845509
 30
0.0
  0
SPLINE
  5
1e5
100
AcDbEntity
  8
0
 62
7
100
AcDbSpline
 70
8
 71
3
 72
8
 73
4
 74
0
 40
0
 40
0
 40
0
 40
0
 40
1
 40
1
 40
1
 40
1
 10
382.707213
 20
-75.997137
 30
0.0
 10
381.332976
 20
-75.270864
 30
0.0
 10
379.756913
 20
-74.818908
 30
0.0
 10
378.222236
 20
-74.811745
 30
0.0
  0
LWPOLYLINE
  5
1e6
100
AcDbEntity
  8
0
 62
7
100
AcDbPolyline
 90
1
 70
1
 10
382.707213
 20
-75.997137
 30
0.0
  0
SPLINE
  5
1e7
100
AcDbEntity
  8
0
 62
7
100
AcDbSpline
 70
8
 71
3
 72
8
 73
4
 74
0
 40
0
 40
0
 40
0
 40
0
 40
1
 40
1
 40
1
 40
1
 10
377.457165
 20
-25.491745
 30
0.0
 10
377.458866
 20
-25.191556
 30
0.0
 10
377.308346
 20
-24.895619
 30
0.0
 10
377.060031
 20
-24.661761
 30
0.0
  0
SPLINE
  5
1e8
100
AcDbEntity
  8
0
 62
7
100
AcDbSpline
 70
8
 71
3
 72
8
 73
4
 74
0
 40
0
 40
0
 40
0
 40
0
 40
1
 40
1
 40
1
 40
1
 10
377.060031
 20
-24.661761
 30
0.0
 10
376.648441
 20
-24.271147
 30
0.0
 10
375.997323
 20
-24.050328
 30
0.0
 10
375.370866
 20
-24.051745
 30
0.0
  0
LWPOLYLINE
  5
1e9
100
AcDbEntity
  8
0
 62
7
100
AcDbPolyline
 90
4
 70
0
 10
378.222236
 20
-74.811745
 30
0.0
 10
377.457165
 20
-74.811745
 30
0.0
 10
377.457165
 20
-25.491745
 30
0.0
 10
377.457165
 20
-25.491745
 30
0.0
  0
SPLINE
  5
1ea
100
AcDbEntity
  8
0
 62
7
100
AcDbSpline
 70
8
 71
3
 72
8
 73
4
 74
0
 40
0
 40
0
 40
0
 40
0
 40
1
 40
1
 40
1
 40
1
 10
372.020882
 20
-24.051745
 30
0.0
 10
371.733732
 20
-24.050611
 30
0.0
 10
371.448850
 20
-24.165982
 30
0.0
 10
371.246457
 20
-24.366108
 30
0.0
  0
SPLINE
  5
1eb
100
AcDbEntity
  8
0
 62
7
100
AcDbSpline
 70
8
 71
3
 72
8
 73
4
 74
0
 40
0
 40
0
 40
0
 40
0
 40
1
 40
1
 40
1
 40
1
 10
371.246457
 20
-24.366108
 30
0.0
 10
371.041228
 20
-24.565383
 30
0.0
 10
370.922457
 20
-24.847430
 30
0.0
 10
370.923591
 20
-25.131745
 30
0.0
  0
LWPOLYLINE
  5
1ec
100
AcDbEntity
  8
0
 62
7
100
AcDbPolyline
 90
2
 70
0
 10
375.370866
 20
-24.051745
 30
0.0
 10
372.020882
 20
-24.051745
 30
0.0
  0
SPLINE
  5
1ed
100
AcDbEntity
  8
0
 62
7
100
AcDbSpline
 70
8
 71
3
 72
8
 73
4
 74
0
 40
0
 40
0
 40
0
 40
0
 40
1
 40
1
 40
1
 40
1
 10
370.826929
 20
-100.280385
 30
0.0
 10
366.387307
 20
-100.908117
 30
0.0
 10
363.086929
 20
-104.707903
 30
0.0
 10
363.086929
 20
-109.191745
 30
0.0
  0
SPLINE
  5
1ee
100
AcDbEntity
  8
0
 62
7
100
AcDbSpline
 70
8
 71
3
 72
8
 73
4
 74
0
 40
0
 40
0
 40
0
 40
0
 40
1
 40
1
 40
1
 40
1
 10
363.086929
 20
-109.191745
 30
0.0
 10
363.086929
 20
-112.672123
 30
0.0
 10
365.093575
 20
-115.840690
 30
0.0
 10
368.240031
 20
-117.328312
 30
0.0
  0
SPLINE
  5
1ef
100
AcDbEntity
  8
0
 62
7
100
AcDbSpline
 70
8
 71
3
 72
8
 73
4
 74
0
 40
0
 40
0
 40
0
 40
0
 40
1
 40
1
 40
1
 40
1
 10
368.240031
 20
-117.328312
 30
0.0
 10
371.386772
 20
-118.815934
 30
0.0
 10
375.108945
 20
-118.355871
 30
0.0
 10
377.798457
 20
-116.147115
 30
0.0
  0
SPLINE
  5
1f0
100
AcDbEntity
  8
0
 62
7
100
AcDbSpline
 70
8
 71
3
 72
8
 73
4
 74
0
 40
0
 40
0
 40
0
 40
0
 40
1
 40
1
 40
1
 40
1
 10
377.798457
 20
-116.147115
 30
0.0
 10
378.720850
 20
-119.179336
 30
0.0
 10
381.517512
 20
-121.251745
 30
0.0
 10
384.686929
 20
-121.251745
 30
0.0
  0
LWPOLYLINE
  5
1f1
100
AcDbEntity
  8
0
 62
7
100
AcDbPolyline
 90
4
 70
0
 10
370.923591
 20
-25.131745
 30
0.0
 10
370.923591
 20
-25.131745
 30
0.0
 10
370.875118
 20
-89.211745
 30
0.0
 10
370.826929
 20
-100.280385
 30
0.0
  0
SPLINE
  5
1f2
100
AcDbEntity
  8
0
 62
7
100
AcDbSpline
 70
8
 71
3
 72
8
 73
4
 74
0
 40
0
 40
0
 40
0
 40
0
 40
1
 40
1
 40
1
 40
1
 10
456.686929
 20
-121.251745
 30
0.0
 10
459.856346
 20
-121.251745
 30
0.0
 10
462.653008
 20
-119.179336
 30
0.0
 10
463.575402
 20
-116.147115
 30
0.0
  0
SPLINE
  5
1f3
100
AcDbEntity
  8
0
 62
7
100
AcDbSpline
 70
8
 71
3
 72
8
 73
4
 74
0
 40
0
 40
0
 40
0
 40
0
 40
1
 40
1
 40
1
 40
1
 10
463.575402
 20
-116.147115
 30
0.0
 10
466.264913
 20
-118.355871
 30
0.0
 10
469.987087
 20
-118.815934
 30
0.0
 10
473.133827
 20
-117.328312
 30
0.0
  0
SPLINE
  5
1f4
100
AcDbEntity
  8
0
 62
7
100
AcDbSpline
 70
8
 71
3
 72
8
 73
4
 74
0
 40
0
 40
0
 40
0
 40
0
 40
1
 40
1
 40
1
 40
1
 10
473.133827
 20
-117.328312
 30
0.0
 10
476.280283
 20
-115.840690
 30
0.0
 10
478.286929
 20
-112.672123
 30
0.0
 10
478.286929
 20
-109.191745
 30
0.0
  0
SPLINE
  5
1f5
100
AcDbEntity
  8
0
 62
7
100
AcDbSpline
 70
8
 71
3
 72
8
 73
4
 74
0
 40
0
 40
0
 40
0
 40
0
 40
1
 40
1
 40
1
 40
1
 10
478.286929
 20
-109.191745
 30
0.0
 10
478.286929
 20
-104.707903
 30
0.0
 10
474.986551
 20
-100.908117
 30
0.0
 10
470.546929
 20
-100.280385
 30
0.0
  0
LWPOLYLINE
  5
1f6
100
AcDbEntity
  8
0
 62
7
100
AcDbPolyline
 90
2
 70
0
 10
384.686929
 20
-121.251745
 30
0.0
 10
456.686929
 20
-121.251745
 30
0.0
  0
LWPOLYLINE
  5
1f7
100
AcDbEntity
  8
0
 62
7
100
AcDbPolyline
 90
2
 70
0
 10
470.546929
 20
-100.280385
 30
0.0
 10
470.522835
 20
-89.211745
 30
0.0
  0
SPLINE
  5
1f8
100
AcDbEntity
  8
0
 62
7
100
AcDbSpline
 70
8
 71
3
 72
8
 73
4
 74
0
 40
0
 40
0
 40
0
 40
0
 40
1
 40
1
 40
1
 40
1
 10
370.923591
 20
-25.131745
 30
0.0
 10
370.922457
 20
-24.847430
 30
0.0
 10
371.041228
 20
-24.565383
 30
0.0
 10
371.246457
 20
-24.366108
 30
0.0
  0
SPLINE
  5
1f9
100
AcDbEntity
  8
0
 62
7
100
AcDbSpline
 70
8
 71
3
 72
8
 73
4
 74
0
 40
0
 40
0
 40
0
 40
0
 40
1
 40
1
 40
1
 40
1
 10
371.246457
 20
-24.366108
 30
0.0
 10
371.448850
 20
-24.165982
 30
0.0
 10
371.733732
 20
-24.050611
 30
0.0
 10
372.020882
 20
-24.051745
 30
0.0
  0
LWPOLYLINE
  5
1fa
100
AcDbEntity
  8
0
 62
7
100
AcDbPolyline
 90
2
 70
0
 10
375.370866
 20
-24.051745
 30
0.0
 10
372.020882
 20
-24.051745
 30
0.0
  0
LWPOLYLINE
  5
1fb
100
AcDbEntity
  8
0
 62
7
100
AcDbPolyline
 90
2
 70
0
 10
370.923591
 20
-89.211745
 30
0.0
 10
370.923591
 20
-25.131745
 30
0.0
  0
LWPOLYLINE
  5
1fc
100
AcDbEntity
  8
0
 62
7
100
AcDbPolyline
 90
2
 70
0
 10
370.826929
 20
-89.211745
 30
0.0
 10
370.923591
 20
-89.211745
 30
0.0
  0
SPLINE
  5
1fd
100
AcDbEntity
  8
0
 62
7
100
AcDbSpline
 70
8
 71
3
 72
8
 73
4
 74
0
 40
0
 40
0
 40
0
 40
0
 40
1
 40
1
 40
1
 40
1
 10
370.826929
 20
-100.280385
 30
0.0
 10
366.387307
 20
-100.908117
 30
0.0
 10
363.086929
 20
-104.707903
 30
0.0
 10
363.086929
 20
-109.191745
 30
0.0
  0
SPLINE
  5
1fe
100
AcDbEntity
  8
0
 62
7
100
AcDbSpline
 70
8
 71
3
 72
8
 73
4
 74
0
 40
0
 40
0
 40
0
 40
0
 40
1
 40
1
 40
1
 40
1
 10
363.086929
 20
-109.191745
 30
0.0
 10
363.086929
 20
-112.672123
 30
0.0
 10
365.093575
 20
-115.840690
 30
0.0
 10
368.240031
 20
-117.328312
 30
0.0
  0
SPLINE
  5
1ff
100
AcDbEntity
  8
0
 62
7
100
AcDbSpline
 70
8
 71
3
 72
8
 73
4
 74
0
 40
0
 40
0
 40
0
 40
0
 40
1
 40
1
 40
1
 40
1
 10
368.240031
 20
-117.328312
 30
0.0
 10
371.386772
 20
-118.815934
 30
0.0
 10
375.108945
 20
-118.355871
 30
0.0
 10
377.798457
 20
-116.147115
 30
0.0
  0
SPLINE
  5
200
100
AcDbEntity
  8
0
 62
7
100
AcDbSpline
 70
8
 71
3
 72
8
 73
4
 74
0
 40
0
 40
0
 40
0
 40
0
 40
1
 40
1
 40
1
 40
1
 10
384.686929
 20
-121.251745
 30
0.0
 10
381.517512
 20
-121.251745
 30
0.0
 10
378.720850
 20
-119.179336
 30
0.0
 10
377.798457
 20
-116.147115
 30
0.0
  0
LWPOLYLINE
  5
201
100
AcDbEntity
  8
0
 62
7
100
AcDbPolyline
 90
2
 70
0
 10
370.826929
 20
-89.211745
 30
0.0
 10
370.826929
 20
-100.280385
 30
0.0
  0
SPLINE
  5
202
100
AcDbEntity
  8
0
 62
7
100
AcDbSpline
 70
8
 71
3
 72
8
 73
4
 74
0
 40
0
 40
0
 40
0
 40
0
 40
1
 40
1
 40
1
 40
1
 10
456.686929
 20
-121.251745
 30
0.0
 10
459.856346
 20
-121.251745
 30
0.0
 10
462.653008
 20
-119.179336
 30
0.0
 10
463.575402
 20
-116.147115
 30
0.0
  0
SPLINE
  5
203
100
AcDbEntity
  8
0
 62
7
100
AcDbSpline
 70
8
 71
3
 72
8
 73
4
 74
0
 40
0
 40
0
 40
0
 40
0
 40
1
 40
1
 40
1
 40
1
 10
463.575402
 20
-116.147115
 30
0.0
 10
466.264913
 20
-118.355871
 30
0.0
 10
469.987087
 20
-118.815934
 30
0.0
 10
473.133827
 20
-117.328312
 30
0.0
  0
SPLINE
  5
204
100
AcDbEntity
  8
0
 62
7
100
AcDbSpline
 70
8
 71
3
 72
8
 73
4
 74
0
 40
0
 40
0
 40
0
 40
0
 40
1
 40
1
 40
1
 40
1
 10
473.133827
 20
-117.328312
 30
0.0
 10
476.280283
 20
-115.840690
 30
0.0
 10
478.286929
 20
-112.672123
 30
0.0
 10
478.286929
 20
-109.191745
 30
0.0
  0
SPLINE
  5
205
100
AcDbEntity
  8
0
 62
7
100
AcDbSpline
 70
8
 71
3
 72
8
 73
4
 74
0
 40
0
 40
0
 40
0
 40
0
 40
1
 40
1
 40
1
 40
1
 10
478.286929
 20
-109.191745
 30
0.0
 10
478.286929
 20
-104.707903
 30
0.0
 10
474.986551
 20
-100.908117
 30
0.0
 10
470.546929
 20
-100.280385
 30
0.0
  0
LWPOLYLINE
  5
206
100
AcDbEntity
  8
0
 62
7
100
AcDbPolyline
 90
2
 70
0
 10
456.686929
 20
-121.251745
 30
0.0
 10
384.686929
 20
-121.251745
 30
0.0
  0
LWPOLYLINE
  5
207
100
AcDbEntity
  8
0
 62
7
100
AcDbPolyline
 90
2
 70
0
 10
470.546929
 20
-100.280385
 30
0.0
 10
470.546929
 20
-89.211745
 30
0.0
  0
LWPOLYLINE
  5
208
100
AcDbEntity
  8
0
 62
7
100
AcDbPolyline
 90
2
 70
0
 10
470.450268
 20
-89.211745
 30
0.0
 10
470.546929
 20
-89.211745
 30
0.0
  0
SPLINE
  5
209
100
AcDbEntity
  8
0
 62
7
100
AcDbSpline
 70
8
 71
3
 72
8
 73
4
 74
0
 40
0
 40
0
 40
0
 40
0
 40
1
 40
1
 40
1
 40
1
 10
470.450268
 20
-25.131745
 30
0.0
 10
470.451402
 20
-24.847430
 30
0.0
 10
470.332630
 20
-24.565383
 30
0.0
 10
470.127402
 20
-24.366108
 30
0.0
  0
SPLINE
  5
20a
100
AcDbEntity
  8
0
 62
7
100
AcDbSpline
 70
8
 71
3
 72
8
 73
4
 74
0
 40
0
 40
0
 40
0
 40
0
 40
1
 40
1
 40
1
 40
1
 10
470.127402
 20
-24.366108
 30
0.0
 10
469.925008
 20
-24.165982
 30
0.0
 10
469.640126
 20
-24.050611
 30
0.0
 10
469.352976
 20
-24.051745
 30
0.0
  0
LWPOLYLINE
  5
20b
100
AcDbEntity
  8
0
 62
7
100
AcDbPolyline
 90
2
 70
0
 10
470.450268
 20
-89.211745
 30
0.0
 10
470.450268
 20
-25.131745
 30
0.0
  0
SPLINE
  5
20c
100
AcDbEntity
  8
0
 62
7
100
AcDbSpline
 70
8
 71
3
 72
8
 73
4
 74
0
 40
0
 40
0
 40
0
 40
0
 40
1
 40
1
 40
1
 40
1
 10
465.817606
 20
-24.051745
 30
0.0
 10
465.184063
 20
-24.050328
 30
0.0
 10
464.524724
 20
-24.272281
 30
0.0
 10
464.108031
 20
-24.665730
 30
0.0
  0
SPLINE
  5
20d
100
AcDbEntity
  8
0
 62
7
100
AcDbSpline
 70
8
 71
3
 72
8
 73
4
 74
0
 40
0
 40
0
 40
0
 40
0
 40
1
 40
1
 40
1
 40
1
 10
464.108031
 20
-24.665730
 30
0.0
 10
463.859717
 20
-24.898454
 30
0.0
 10
463.708630
 20
-25.192974
 30
0.0
 10
463.710331
 20
-25.491745
 30
0.0
  0
LWPOLYLINE
  5
20e
100
AcDbEntity
  8
0
 62
7
100
AcDbPolyline
 90
2
 70
0
 10
469.352976
 20
-24.051745
 30
0.0
 10
465.817606
 20
-24.051745
 30
0.0
  0
LWPOLYLINE
  5
20f
100
AcDbEntity
  8
0
 62
7
100
AcDbPolyline
 90
2
 70
0
 10
463.710331
 20
-74.811745
 30
0.0
 10
463.710331
 20
-25.491745
 30
0.0
  0
SPLINE
  5
210
100
AcDbEntity
  8
0
 62
7
100
AcDbSpline
 70
8
 71
3
 72
8
 73
4
 74
0
 40
0
 40
0
 40
0
 40
0
 40
1
 40
1
 40
1
 40
1
 10
463.151622
 20
-74.811745
 30
0.0
 10
462.096283
 20
-74.812873
 30
0.0
 10
461.022236
 20
-75.035626
 30
0.0
 10
460.007150
 20
-75.401851
 30
0.0
  0
SPLINE
  5
211
100
AcDbEntity
  8
0
 62
7
100
AcDbSpline
 70
8
 71
3
 72
8
 73
4
 74
0
 40
0
 40
0
 40
0
 40
0
 40
1
 40
1
 40
1
 40
1
 10
460.007150
 20
-75.401851
 30
0.0
 10
459.558992
 20
-75.563465
 30
0.0
 10
459.126142
 20
-75.754407
 30
0.0
 10
458.708882
 20
-75.974630
 30
0.0
  0
SPLINE
  5
212
100
AcDbEntity
  8
0
 62
7
100
AcDbSpline
 70
8
 71
3
 72
8
 73
4
 74
0
 40
0
 40
0
 40
0
 40
0
 40
1
 40
1
 40
1
 40
1
 10
458.708882
 20
-75.974630
 30
0.0
 10
458.315433
 20
-76.178498
 30
0.0
 10
457.955717
 20
-76.415559
 30
0.0
 10
457.629732
 20
-76.685786
 30
0.0
  0
SPLINE
  5
213
100
AcDbEntity
  8
0
 62
7
100
AcDbSpline
 70
8
 71
3
 72
8
 73
4
 74
0
 40
0
 40
0
 40
0
 40
0
 40
1
 40
1
 40
1
 40
1
 10
457.629732
 20
-76.685786
 30
0.0
 10
457.309701
 20
-76.960917
 30
0.0
 10
457.027654
 20
-77.299572
 30
0.0
 10
457.021701
 20
-77.679188
 30
0.0
  0
LWPOLYLINE
  5
214
100
AcDbEntity
  8
0
 62
7
100
AcDbPolyline
 90
2
 70
0
 10
463.710331
 20
-74.811745
 30
0.0
 10
463.151622
 20
-74.811745
 30
0.0
  0
SPLINE
  5
215
100
AcDbEntity
  8
0
 62
7
100
AcDbSpline
 70
8
 71
3
 72
8
 73
4
 74
0
 40
0
 40
0
 40
0
 40
0
 40
1
 40
1
 40
1
 40
1
 10
384.612378
 20
-93.531745
 30
0.0
 10
384.314457
 20
-75.828249
 30
0.0
 10
384.044598
 20
-58.124526
 30
0.0
 10
383.803370
 20
-40.420690
 30
0.0
  0
SPLINE
  5
216
100
AcDbEntity
  8
0
 62
7
100
AcDbSpline
 70
8
 71
3
 72
8
 73
4
 74
0
 40
0
 40
0
 40
0
 40
0
 40
1
 40
1
 40
1
 40
1
 10
383.548819
 20
-25.844375
 30
0.0
 10
383.656535
 20
-30.701824
 30
0.0
 10
383.741575
 20
-35.560690
 30
0.0
 10
383.803370
 20
-40.420690
 30
0.0
  0
SPLINE
  5
217
100
AcDbEntity
  8
0
 62
7
100
AcDbSpline
 70
8
 71
3
 72
8
 73
4
 74
0
 40
0
 40
0
 40
0
 40
0
 40
1
 40
1
 40
1
 40
1
 10
383.548819
 20
-25.844375
 30
0.0
 10
383.547969
 20
-25.716249
 30
0.0
 10
383.454709
 20
-25.593226
 30
0.0
 10
383.331969
 20
-25.578485
 30
0.0
  0
SPLINE
  5
218
100
AcDbEntity
  8
0
 62
7
100
AcDbSpline
 70
8
 71
3
 72
8
 73
4
 74
0
 40
0
 40
0
 40
0
 40
0
 40
1
 40
1
 40
1
 40
1
 10
383.331969
 20
-25.578485
 30
0.0
 10
383.176630
 20
-25.556092
 30
0.0
 10
383.060693
 20
-25.713131
 30
0.0
 10
383.066079
 20
-25.845509
 30
0.0
  0
SPLINE
  5
219
100
AcDbEntity
  8
0
 62
7
100
AcDbSpline
 70
8
 71
3
 72
8
 73
4
 74
0
 40
0
 40
0
 40
0
 40
0
 40
1
 40
1
 40
1
 40
1
 10
382.707213
 20
-75.997137
 30
0.0
 10
382.736409
 20
-66.729065
 30
0.0
 10
382.779213
 20
-57.461248
 30
0.0
 10
382.836189
 20
-48.193714
 30
0.0
  0
SPLINE
  5
21a
100
AcDbEntity
  8
0
 62
7
100
AcDbSpline
 70
8
 71
3
 72
8
 73
4
 74
0
 40
0
 40
0
 40
0
 40
0
 40
1
 40
1
 40
1
 40
1
 10
382.836189
 20
-48.193714
 30
0.0
 10
382.888063
 20
-40.743556
 30
0.0
 10
382.935969
 20
-33.292690
 30
0.0
 10
383.066079
 20
-25.845509
 30
0.0
  0
SPLINE
  5
21b
100
AcDbEntity
  8
0
 62
7
100
AcDbSpline
 70
8
 71
3
 72
8
 73
4
 74
0
 40
0
 40
0
 40
0
 40
0
 40
1
 40
1
 40
1
 40
1
 10
378.222236
 20
-74.811745
 30
0.0
 10
379.756913
 20
-74.818908
 30
0.0
 10
381.332976
 20
-75.270864
 30
0.0
 10
382.707213
 20
-75.997137
 30
0.0
  0
LWPOLYLINE
  5
21c
100
AcDbEntity
  8
0
 62
7
100
AcDbPolyline
 90
3
 70
0
 10
457.021701
 20
-77.679188
 30
0.0
 10
456.761480
 20
-93.531745
 30
0.0
 10
384.612378
 20
-93.531745
 30
0.0
  0
SPLINE
  5
21d
100
AcDbEntity
  8
0
 62
7
100
AcDbSpline
 70
8
 71
3
 72
8
 73
4
 74
0
 40
0
 40
0
 40
0
 40
0
 40
1
 40
1
 40
1
 40
1
 10
375.370866
 20
-24.051745
 30
0.0
 10
375.997323
 20
-24.050328
 30
0.0
 10
376.648441
 20
-24.271147
 30
0.0
 10
377.060031
 20
-24.661761
 30
0.0
  0
SPLINE
  5
21e
100
AcDbEntity
  8
0
 62
7
100
AcDbSpline
 70
8
 71
3
 72
8
 73
4
 74
0
 40
0
 40
0
 40
0
 40
0
 40
1
 40
1
 40
1
 40
1
 10
377.060031
 20
-24.661761
 30
0.0
 10
377.308346
 20
-24.895619
 30
0.0
 10
377.458866
 20
-25.191556
 30
0.0
 10
377.457165
 20
-25.491745
 30
0.0
  0
LWPOLYLINE
  5
21f
100
AcDbEntity
  8
0
 62
7
100
AcDbPolyline
 90
3
 70
0
 10
378.222236
 20
-74.811745
 30
0.0
 10
377.457165
 20
-74.811745
 30
0.0
 10
377.457165
 20
-25.491745
 30
0.0
  0
LWPOLYLINE
  5
220
100
AcDbEntity
  8
0
 62
7
100
AcDbPolyline
 90
4
 70
1
 10
420.686929
 20
-72.651745
 30
0.0
 10
420.686929
 20
-72.651745
 30
0.0
 10
420.686929
 20
-72.651745
 30
0.0
 10
420.686929
 20
-72.651745
 30
0.0
  0
LWPOLYLINE
  5
221
100
AcDbEntity
  8
0
 62
7
100
AcDbPolyline
 90
2
 70
0
 10
469.286929
 20
-109.191745
 30
0.0
 10
512.958331
 20
-144.526454
 30
0.0
  0
LWPOLYLINE
  5
222
100
AcDbEntity
  8
0
 62
7
100
AcDbPolyline
 90
3
 70
1
 10
476.282835
 20
-114.853950
 30
0.0
 10
485.815323
 20
-125.605336
 30
0.0
 10
488.786995
 20
-121.932542
 30
0.0
  0
LWPOLYLINE
  5
223
100
AcDbEntity
  8
0
 62
7
100
AcDbPolyline
 90
4
 70
1
 10
420.686929
 20
-72.651745
 30
0.0
 10
420.686929
 20
-72.651745
 30
0.0
 10
420.686929
 20
-72.651745
 30
0.0
 10
420.686929
 20
-72.651745
 30
0.0
  0
LWPOLYLINE
  5
224
100
AcDbEntity
  8
0
 62
7
100
AcDbPolyline
 90
2
 70
0
 10
384.686929
 20
-114.051745
 30
0.0
 10
327.043559
 20
-179.800501
 30
0.0
  0
LWPOLYLINE
  5
225
100
AcDbEntity
  8
0
 62
7
100
AcDbPolyline
 90
3
 70
1
 10
379.938898
 20
-119.465919
 30
0.0
 10
368.819150
 20
-128.566010
 30
0.0
 10
372.371613
 20
-131.680520
 30
0.0
  0
LWPOLYLINE
  5
226
100
AcDbEntity
  8
0
 62
7
100
AcDbPolyline
 90
4
 70
1
 10
420.686929
 20
-72.651745
 30
0.0
 10
420.686929
 20
-72.651745
 30
0.0
 10
420.686929
 20
-72.651745
 30
0.0
 10
420.686929
 20
-72.651745
 30
0.0
  0
LWPOLYLINE
  5
227
100
AcDbEntity
  8
0
 62
7
100
AcDbPolyline
 90
2
 70
0
 10
384.686929
 20
-184.807336
 30
0.0
 10
456.686929
 20
-184.807336
 30
0.0
  0
LWPOLYLINE
  5
228
100
AcDbEntity
  8
0
 62
7
100
AcDbPolyline
 90
2
 70
0
 10
456.686929
 20
-114.051745
 30
0.0
 10
456.686929
 20
-187.755367
 30
0.0
  0
LWPOLYLINE
  5
229
100
AcDbEntity
  8
0
 62
7
100
AcDbPolyline
 90
2
 70
0
 10
384.686929
 20
-114.051745
 30
0.0
 10
384.686929
 20
-187.755367
 30
0.0
  0
LWPOLYLINE
  5
22a
100
AcDbEntity
  8
0
 62
7
100
AcDbPolyline
 90
3
 70
1
 10
456.686929
 20
-184.807336
 30
0.0
 10
442.513701
 20
-182.445132
 30
0.0
 10
442.513701
 20
-187.169540
 30
0.0
  0
LWPOLYLINE
  5
22b
100
AcDbEntity
  8
0
 62
7
100
AcDbPolyline
 90
3
 70
1
 10
384.686929
 20
-184.807336
 30
0.0
 10
398.860157
 20
-187.169540
 30
0.0
 10
398.860157
 20
-182.445132
 30
0.0
  0
LWPOLYLINE
  5
22c
100
AcDbEntity
  8
0
 62
7
100
AcDbPolyline
 90
4
 70
1
 10
420.686929
 20
-72.651745
 30
0.0
 10
420.686929
 20
-72.651745
 30
0.0
 10
420.686929
 20
-72.651745
 30
0.0
 10
420.686929
 20
-72.651745
 30
0.0
  0
LWPOLYLINE
  5
22d
100
AcDbEntity
  8
0
 62
7
100
AcDbPolyline
 90
2
 70
0
 10
372.086929
 20
-163.604753
 30
0.0
 10
469.286929
 20
-163.604753
 30
0.0
  0
LWPOLYLINE
  5
22e
100
AcDbEntity
  8
0
 62
7
100
AcDbPolyline
 90
2
 70
0
 10
469.286929
 20
-109.191745
 30
0.0
 10
469.286929
 20
-166.552785
 30
0.0
  0
LWPOLYLINE
  5
22f
100
AcDbEntity
  8
0
 62
7
100
AcDbPolyline
 90
2
 70
0
 10
372.086929
 20
-109.191745
 30
0.0
 10
372.086929
 20
-166.552785
 30
0.0
  0
LWPOLYLINE
  5
230
100
AcDbEntity
  8
0
 62
7
100
AcDbPolyline
 90
3
 70
1
 10
469.286929
 20
-163.604186
 30
0.0
 10
455.113701
 20
-161.241982
 30
0.0
 10
455.113701
 20
-165.966390
 30
0.0
  0
LWPOLYLINE
  5
231
100
AcDbEntity
  8
0
 62
7
100
AcDbPolyline
 90
3
 70
1
 10
372.086929
 20
-163.604186
 30
0.0
 10
386.260157
 20
-165.966390
 30
0.0
 10
386.260157
 20
-161.241982
 30
0.0
  0
LWPOLYLINE
  5
232
100
AcDbEntity
  8
0
 62
7
100
AcDbPolyline
 90
4
 70
1
 10
420.686929
 20
-72.651745
 30
0.0
 10
420.686929
 20
-72.651745
 30
0.0
 10
420.686929
 20
-72.651745
 30
0.0
 10
420.686929
 20
-72.651745
 30
0.0
  0
LWPOLYLINE
  5
233
100
AcDbEntity
  8
0
 62
7
100
AcDbPolyline
 90
2
 70
0
 10
370.826929
 20
-6.172785
 30
0.0
 10
470.546929
 20
-6.172785
 30
0.0
  0
LWPOLYLINE
  5
234
100
AcDbEntity
  8
0
 62
7
100
AcDbPolyline
 90
2
 70
0
 10
470.546929
 20
-100.280385
 30
0.0
 10
470.546929
 20
-3.224753
 30
0.0
  0
LWPOLYLINE
  5
235
100
AcDbEntity
  8
0
 62
7
100
AcDbPolyline
 90
2
 70
0
 10
370.826929
 20
-100.280385
 30
0.0
 10
370.826929
 20
-3.224753
 30
0.0
  0
LWPOLYLINE
  5
236
100
AcDbEntity
  8
0
 62
7
100
AcDbPolyline
 90
3
 70
1
 10
470.545512
 20
-6.172785
 30
0.0
 10
456.372283
 20
-3.810581
 30
0.0
 10
456.372283
 20
-8.534988
 30
0.0
  0
LWPOLYLINE
  5
237
100
AcDbEntity
  8
0
 62
7
100
AcDbPolyline
 90
3
 70
1
 10
370.825512
 20
-6.172785
 30
0.0
 10
384.998740
 20
-8.534988
 30
0.0
 10
384.998740
 20
-3.810581
 30
0.0
  0
LWPOLYLINE
  5
238
100
AcDbEntity
  8
0
 62
7
100
AcDbPolyline
 90
4
 70
1
 10
420.686929
 20
-72.651745
 30
0.0
 10
420.686929
 20
-72.651745
 30
0.0
 10
420.686929
 20
-72.651745
 30
0.0
 10
420.686929
 20
-72.651745
 30
0.0
  0
LWPOLYLINE
  5
239
100
AcDbEntity
  8
0
 62
7
100
AcDbPolyline
 90
2
 70
0
 10
323.082142
 20
-149.598202
 30
0.0
 10
323.082142
 20
-65.185289
 30
0.0
  0
LWPOLYLINE
  5
23a
100
AcDbEntity
  8
0
 62
7
100
AcDbPolyline
 90
2
 70
0
 10
456.761480
 20
-93.531745
 30
0.0
 10
320.134110
 20
-93.531745
 30
0.0
  0
LWPOLYLINE
  5
23b
100
AcDbEntity
  8
0
 62
7
100
AcDbPolyline
 90
2
 70
0
 10
456.686929
 20
-121.251745
 30
0.0
 10
320.134110
 20
-121.251745
 30
0.0
  0
LWPOLYLINE
  5
23c
100
AcDbEntity
  8
0
 62
7
100
AcDbPolyline
 90
3
 70
1
 10
323.081575
 20
-93.531745
 30
0.0
 10
325.443779
 20
-79.358517
 30
0.0
 10
320.719371
 20
-79.358517
 30
0.0
  0
LWPOLYLINE
  5
23d
100
AcDbEntity
  8
0
 62
7
100
AcDbPolyline
 90
3
 70
1
 10
323.081575
 20
-121.251745
 30
0.0
 10
320.719371
 20
-135.424974
 30
0.0
 10
325.443779
 20
-135.424974
 30
0.0
  0
ENDSEC
  0
SECTION
  2
OBJECTS
  0
DICTIONARY
  5
C
330
0
100
AcDbDictionary
  3
ACAD_GROUP
350
D
  3
ACAD_MLINESTYLE
350
17
  0
DICTIONARY
  5
D
330
C
100
AcDbDictionary
  0
DICTIONARY
  5
1A
330
C
100
AcDbDictionary
  0
DICTIONARY
  5
17
330
C
100
AcDbDictionary
  3
STANDARD
350
18
  0
DICTIONARY
  5
19
330
C
100
AcDbDictionary
  0
ENDSEC
  0
EOF
