  0
SECTION
  2
HEADER
  9
$ACADVER
  1
AC1014
  9
$HANDSEED
  5
FFFF
  9
$MEASUREMENT
 70
     1
  0
ENDSEC
  0
SECTION
  2
TABLES
  0
TABLE
  2
VPORT
  5
8
330
0
100
AcDbSymbolTable
 70
     4
  0
VPORT
  5
2E
330
8
100
AcDbSymbolTableRecord
100
AcDbViewportTableRecord
  2
*ACTIVE
 70
     0
 10
0.0
 20
0.0
 11
1.0
 21
1.0
 12
210.0
 22
148.5
 13
0.0
 23
0.0
 14
10.0
 24
10.0
 15
10.0
 25
10.0
 16
0.0
 26
0.0
 36
1.0
 17
0.0
 27
0.0
 37
0.0
 40
341.0
 41
1.24
 42
50.0
 43
0.0
 44
0.0
 50
0.0
 51
0.0
 71
     0
 72
   100
 73
     1
 74
     3
 75
     0
 76
     0
 77
     0
 78
     0
  0
ENDTAB
  0
TABLE
  2
LTYPE
  5
5
330
0
100
AcDbSymbolTable
 70
     1
  0
LTYPE
  5
14
330
5
100
AcDbSymbolTableRecord
100
AcDbLinetypeTableRecord
  2
BYBLOCK
 70
     0
  3

 72
    65
 73
     0
 40
0.0
  0
LTYPE
  5
15
330
5
100
AcDbSymbolTableRecord
100
AcDbLinetypeTableRecord
  2
BYLAYER
 70
     0
  3

 72
    65
 73
     0
 40
0.0
  0
LTYPE
  5
16
330
5
100
AcDbSymbolTableRecord
100
AcDbLinetypeTableRecord
  2
CONTINUOUS
 70
     0
  3
Solid line
 72
    65
 73
     0
 40
0.0
  0
ENDTAB
  0
TABLE
  2
LAYER
  5
2
100
AcDbSymbolTable
 70
1
  0
LAYER
  5
50
100
AcDbSymbolTableRecord
100
AcDbLayerTableRecord
  2
0
 70
0
  6
CONTINUOUS
  0
ENDTAB
  0
TABLE
  2
STYLE
  5
3
330
0
100
AcDbSymbolTable
 70
     1
  0
STYLE
  5
11
330
3
100
AcDbSymbolTableRecord
100
AcDbTextStyleTableRecord
  2
STANDARD
 70
     0
 40
0.0
 41
1.0
 50
0.0
 71
     0
 42
2.5
  3
txt
  4

  0
ENDTAB
  0
TABLE
  2
VIEW
  5
6
330
0
100
AcDbSymbolTable
 70
     0
  0
ENDTAB
  0
TABLE
  2
UCS
  5
7
330
0
100
AcDbSymbolTable
 70
     0
  0
ENDTAB
  0
TABLE
  2
APPID
  5
9
330
0
100
AcDbSymbolTable
 70
     2
  0
APPID
  5
12
330
9
100
AcDbSymbolTableRecord
100
AcDbRegAppTableRecord
  2
ACAD
 70
     0
  0
ENDTAB
  0
TABLE
  2
DIMSTYLE
  5
A
330
0
100
AcDbSymbolTable
 70
     1
  0
DIMSTYLE
105
27
330
A
100
AcDbSymbolTableRecord
100
AcDbDimStyleTableRecord
  2
ISO-25
 70
     0
  3

  4

  5

  6

  7

 40
1.0
 41
2.5
 42
0.625
 43
3.75
 44
1.25
 45
0.0
 46
0.0
 47
0.0
 48
0.0
140
2.5
141
2.5
142
0.0
143
0.03937007874016
144
1.0
145
0.0
146
1.0
147
0.625
 71
     0
 72
     0
 73
     0
 74
     0
 75
     0
 76
     0
 77
     1
 78
     8
170
     0
171
     3
172
     1
173
     0
174
     0
175
     0
176
     0
177
     0
178
     0
270
     2
271
     2
272
     2
273
     2
274
     3
340
11
275
     0
280
     0
281
     0
282
     0
283
     0
284
     8
285
     0
286
     0
287
     3
288
     0
  0
ENDTAB
  0
TABLE
  2
BLOCK_RECORD
  5
1
330
0
100
AcDbSymbolTable
 70
     1
  0
BLOCK_RECORD
  5
1F
330
1
100
AcDbSymbolTableRecord
100
AcDbBlockTableRecord
  2
*MODEL_SPACE
  0
BLOCK_RECORD
  5
1B
330
1
100
AcDbSymbolTableRecord
100
AcDbBlockTableRecord
  2
*PAPER_SPACE
  0
ENDTAB
  0
ENDSEC
  0
SECTION
  2
BLOCKS
  0
BLOCK
  5
20
330
1F
100
AcDbEntity
  8
0
100
AcDbBlockBegin
  2
*MODEL_SPACE
 70
     0
 10
0.0
 20
0.0
 30
0.0
  3
*MODEL_SPACE
  1

  0
ENDBLK
  5
21
330
1F
100
AcDbEntity
  8
0
100
AcDbBlockEnd
  0
BLOCK
  5
1C
330
1B
100
AcDbEntity
 67
     1
  8
0
100
AcDbBlockBegin
  2
*PAPER_SPACE
  1

  0
ENDBLK
  5
1D
330
1B
100
AcDbEntity
 67
     1
  8
0
100
AcDbBlockEnd
  0
ENDSEC
  0
SECTION
  2
ENTITIES
  0
SPLINE
  5
100
100
AcDbEntity
  8
0
 62
7
100
AcDbSpline
 70
8
 71
3
 72
8
 73
4
 74
0
 40
0
 40
0
 40
0
 40
0
 40
1
 40
1
 40
1
 40
1
 10
383.548819
 20
-25.844375
 30
0.0
 10
383.547969
 20
-25.716249
 30
0.0
 10
383.454709
 20
-25.593226
 30
0.0
 10
383.331969
 20
-25.578485
 30
0.0
  0
SPLINE
  5
101
100
AcDbEntity
  8
0
 62
7
100
AcDbSpline
 70
8
 71
3
 72
8
 73
4
 74
0
 40
0
 40
0
 40
0
 40
0
 40
1
 40
1
 40
1
 40
1
 10
383.331969
 20
-25.578485
 30
0.0
 10
383.176630
 20
-25.556092
 30
0.0
 10
383.060693
 20
-25.713131
 30
0.0
 10
383.066079
 20
-25.845509
 30
0.0
  0
SPLINE
  5
102
100
AcDbEntity
  8
0
 62
7
100
AcDbSpline
 70
8
 71
3
 72
8
 73
4
 74
0
 40
0
 40
0
 40
0
 40
0
 40
1
 40
1
 40
1
 40
1
 10
383.066079
 20
-25.845509
 30
0.0
 10
382.935969
 20
-33.292690
 30
0.0
 10
382.888063
 20
-40.743556
 30
0.0
 10
382.836189
 20
-48.193714
 30
0.0
  0
SPLINE
  5
103
100
AcDbEntity
  8
0
 62
7
100
AcDbSpline
 70
8
 71
3
 72
8
 73
4
 74
0
 40
0
 40
0
 40
0
 40
0
 40
1
 40
1
 40
1
 40
1
 10
382.836189
 20
-48.193714
 30
0.0
 10
382.779213
 20
-57.461248
 30
0.0
 10
382.736409
 20
-66.729065
 30
0.0
 10
382.707213
 20
-75.997137
 30
0.0
  0
LWPOLYLINE
  5
104
100
AcDbEntity
  8
0
 62
7
100
AcDbPolyline
 90
1
 70
1
 10
383.066079
 20
-25.845509
 30
0.0
  0
SPLINE
  5
105
100
AcDbEntity
  8
0
 62
7
100
AcDbSpline
 70
8
 71
3
 72
8
 73
4
 74
0
 40
0
 40
0
 40
0
 40
0
 40
1
 40
1
 40
1
 40
1
 10
382.707213
 20
-75.997137
 30
0.0
 10
381.332976
 20
-75.270864
 30
0.0
 10
379.756913
 20
-74.818908
 30
0.0
 10
378.222236
 20
-74.811745
 30
0.0
  0
LWPOLYLINE
  5
106
100
AcDbEntity
  8
0
 62
7
100
AcDbPolyline
 90
1
 70
1
 10
382.707213
 20
-75.997137
 30
0.0
  0
SPLINE
  5
107
100
AcDbEntity
  8
0
 62
7
100
AcDbSpline
 70
8
 71
3
 72
8
 73
4
 74
0
 40
0
 40
0
 40
0
 40
0
 40
1
 40
1
 40
1
 40
1
 10
377.457165
 20
-25.491745
 30
0.0
 10
377.458866
 20
-25.191556
 30
0.0
 10
377.308346
 20
-24.895619
 30
0.0
 10
377.060031
 20
-24.661761
 30
0.0
  0
SPLINE
  5
108
100
AcDbEntity
  8
0
 62
7
100
AcDbSpline
 70
8
 71
3
 72
8
 73
4
 74
0
 40
0
 40
0
 40
0
 40
0
 40
1
 40
1
 40
1
 40
1
 10
377.060031
 20
-24.661761
 30
0.0
 10
376.648441
 20
-24.271147
 30
0.0
 10
375.997323
 20
-24.050328
 30
0.0
 10
375.370866
 20
-24.051745
 30
0.0
  0
LWPOLYLINE
  5
109
100
AcDbEntity
  8
0
 62
7
100
AcDbPolyline
 90
4
 70
0
 10
378.222236
 20
-74.811745
 30
0.0
 10
377.457165
 20
-74.811745
 30
0.0
 10
377.457165
 20
-25.491745
 30
0.0
 10
377.457165
 20
-25.491745
 30
0.0
  0
SPLINE
  5
10a
100
AcDbEntity
  8
0
 62
7
100
AcDbSpline
 70
8
 71
3
 72
8
 73
4
 74
0
 40
0
 40
0
 40
0
 40
0
 40
1
 40
1
 40
1
 40
1
 10
372.020882
 20
-24.051745
 30
0.0
 10
371.733732
 20
-24.050611
 30
0.0
 10
371.448850
 20
-24.165982
 30
0.0
 10
371.246457
 20
-24.366108
 30
0.0
  0
SPLINE
  5
10b
100
AcDbEntity
  8
0
 62
7
100
AcDbSpline
 70
8
 71
3
 72
8
 73
4
 74
0
 40
0
 40
0
 40
0
 40
0
 40
1
 40
1
 40
1
 40
1
 10
371.246457
 20
-24.366108
 30
0.0
 10
371.041228
 20
-24.565383
 30
0.0
 10
370.922457
 20
-24.847430
 30
0.0
 10
370.923591
 20
-25.131745
 30
0.0
  0
LWPOLYLINE
  5
10c
100
AcDbEntity
  8
0
 62
7
100
AcDbPolyline
 90
2
 70
0
 10
375.370866
 20
-24.051745
 30
0.0
 10
372.020882
 20
-24.051745
 30
0.0
  0
SPLINE
  5
10d
100
AcDbEntity
  8
0
 62
7
100
AcDbSpline
 70
8
 71
3
 72
8
 73
4
 74
0
 40
0
 40
0
 40
0
 40
0
 40
1
 40
1
 40
1
 40
1
 10
370.826929
 20
-100.280385
 30
0.0
 10
366.387307
 20
-100.908117
 30
0.0
 10
363.086929
 20
-104.707903
 30
0.0
 10
363.086929
 20
-109.191745
 30
0.0
  0
SPLINE
  5
10e
100
AcDbEntity
  8
0
 62
7
100
AcDbSpline
 70
8
 71
3
 72
8
 73
4
 74
0
 40
0
 40
0
 40
0
 40
0
 40
1
 40
1
 40
1
 40
1
 10
363.086929
 20
-109.191745
 30
0.0
 10
363.086929
 20
-112.672123
 30
0.0
 10
365.093575
 20
-115.840690
 30
0.0
 10
368.240031
 20
-117.328312
 30
0.0
  0
SPLINE
  5
10f
100
AcDbEntity
  8
0
 62
7
100
AcDbSpline
 70
8
 71
3
 72
8
 73
4
 74
0
 40
0
 40
0
 40
0
 40
0
 40
1
 40
1
 40
1
 40
1
 10
368.240031
 20
-117.328312
 30
0.0
 10
371.386772
 20
-118.815934
 30
0.0
 10
375.108945
 20
-118.355871
 30
0.0
 10
377.798457
 20
-116.147115
 30
0.0
  0
SPLINE
  5
110
100
AcDbEntity
  8
0
 62
7
100
AcDbSpline
 70
8
 71
3
 72
8
 73
4
 74
0
 40
0
 40
0
 40
0
 40
0
 40
1
 40
1
 40
1
 40
1
 10
377.798457
 20
-116.147115
 30
0.0
 10
378.720850
 20
-119.179336
 30
0.0
 10
381.517512
 20
-121.251745
 30
0.0
 10
384.686929
 20
-121.251745
 30
0.0
  0
LWPOLYLINE
  5
111
100
AcDbEntity
  8
0
 62
7
100
AcDbPolyline
 90
4
 70
0
 10
370.923591
 20
-25.131745
 30
0.0
 10
370.923591
 20
-25.131745
 30
0.0
 10
370.875118
 20
-89.211745
 30
0.0
 10
370.826929
 20
-100.280385
 30
0.0
  0
SPLINE
  5
112
100
AcDbEntity
  8
0
 62
7
100
AcDbSpline
 70
8
 71
3
 72
8
 73
4
 74
0
 40
0
 40
0
 40
0
 40
0
 40
1
 40
1
 40
1
 40
1
 10
456.686929
 20
-121.251745
 30
0.0
 10
459.856346
 20
-121.251745
 30
0.0
 10
462.653008
 20
-119.179336
 30
0.0
 10
463.575402
 20
-116.147115
 30
0.0
  0
SPLINE
  5
113
100
AcDbEntity
  8
0
 62
7
100
AcDbSpline
 70
8
 71
3
 72
8
 73
4
 74
0
 40
0
 40
0
 40
0
 40
0
 40
1
 40
1
 40
1
 40
1
 10
463.575402
 20
-116.147115
 30
0.0
 10
466.264913
 20
-118.355871
 30
0.0
 10
469.987087
 20
-118.815934
 30
0.0
 10
473.133827
 20
-117.328312
 30
0.0
  0
SPLINE
  5
114
100
AcDbEntity
  8
0
 62
7
100
AcDbSpline
 70
8
 71
3
 72
8
 73
4
 74
0
 40
0
 40
0
 40
0
 40
0
 40
1
 40
1
 40
1
 40
1
 10
473.133827
 20
-117.328312
 30
0.0
 10
476.280283
 20
-115.840690
 30
0.0
 10
478.286929
 20
-112.672123
 30
0.0
 10
478.286929
 20
-109.191745
 30
0.0
  0
SPLINE
  5
115
100
AcDbEntity
  8
0
 62
7
100
AcDbSpline
 70
8
 71
3
 72
8
 73
4
 74
0
 40
0
 40
0
 40
0
 40
0
 40
1
 40
1
 40
1
 40
1
 10
478.286929
 20
-109.191745
 30
0.0
 10
478.286929
 20
-104.707903
 30
0.0
 10
474.986551
 20
-100.908117
 30
0.0
 10
470.546929
 20
-100.280385
 30
0.0
  0
LWPOLYLINE
  5
116
100
AcDbEntity
  8
0
 62
7
100
AcDbPolyline
 90
2
 70
0
 10
384.686929
 20
-121.251745
 30
0.0
 10
456.686929
 20
-121.251745
 30
0.0
  0
SPLINE
  5
117
100
AcDbEntity
  8
0
 62
7
100
AcDbSpline
 70
8
 71
3
 72
8
 73
4
 74
0
 40
0
 40
0
 40
0
 40
0
 40
1
 40
1
 40
1
 40
1
 10
470.450268
 20
-25.131745
 30
0.0
 10
470.451402
 20
-24.847430
 30
0.0
 10
470.332630
 20
-24.565383
 30
0.0
 10
470.127402
 20
-24.366108
 30
0.0
  0
SPLINE
  5
118
100
AcDbEntity
  8
0
 62
7
100
AcDbSpline
 70
8
 71
3
 72
8
 73
4
 74
0
 40
0
 40
0
 40
0
 40
0
 40
1
 40
1
 40
1
 40
1
 10
470.127402
 20
-24.366108
 30
0.0
 10
469.925008
 20
-24.165982
 30
0.0
 10
469.640126
 20
-24.050611
 30
0.0
 10
469.352976
 20
-24.051745
 30
0.0
  0
LWPOLYLINE
  5
119
100
AcDbEntity
  8
0
 62
7
100
AcDbPolyline
 90
4
 70
0
 10
470.546929
 20
-100.280385
 30
0.0
 10
470.498740
 20
-89.211745
 30
0.0
 10
470.450268
 20
-25.131745
 30
0.0
 10
470.450268
 20
-25.131745
 30
0.0
  0
SPLINE
  5
11a
100
AcDbEntity
  8
0
 62
7
100
AcDbSpline
 70
8
 71
3
 72
8
 73
4
 74
0
 40
0
 40
0
 40
0
 40
0
 40
1
 40
1
 40
1
 40
1
 10
465.817606
 20
-24.051745
 30
0.0
 10
465.184063
 20
-24.050328
 30
0.0
 10
464.524724
 20
-24.272281
 30
0.0
 10
464.108031
 20
-24.665730
 30
0.0
  0
SPLINE
  5
11b
100
AcDbEntity
  8
0
 62
7
100
AcDbSpline
 70
8
 71
3
 72
8
 73
4
 74
0
 40
0
 40
0
 40
0
 40
0
 40
1
 40
1
 40
1
 40
1
 10
464.108031
 20
-24.665730
 30
0.0
 10
463.859717
 20
-24.898454
 30
0.0
 10
463.708630
 20
-25.192974
 30
0.0
 10
463.710331
 20
-25.491745
 30
0.0
  0
LWPOLYLINE
  5
11c
100
AcDbEntity
  8
0
 62
7
100
AcDbPolyline
 90
2
 70
0
 10
469.352976
 20
-24.051745
 30
0.0
 10
465.817606
 20
-24.051745
 30
0.0
  0
SPLINE
  5
11d
100
AcDbEntity
  8
0
 62
7
100
AcDbSpline
 70
8
 71
3
 72
8
 73
4
 74
0
 40
0
 40
0
 40
0
 40
0
 40
1
 40
1
 40
1
 40
1
 10
463.151622
 20
-74.811745
 30
0.0
 10
462.096283
 20
-74.812873
 30
0.0
 10
461.022236
 20
-75.035626
 30
0.0
 10
460.007150
 20
-75.401851
 30
0.0
  0
SPLINE
  5
11e
100
AcDbEntity
  8
0
 62
7
100
AcDbSpline
 70
8
 71
3
 72
8
 73
4
 74
0
 40
0
 40
0
 40
0
 40
0
 40
1
 40
1
 40
1
 40
1
 10
460.007150
 20
-75.401851
 30
0.0
 10
459.558992
 20
-75.563465
 30
0.0
 10
459.126142
 20
-75.754407
 30
0.0
 10
458.708882
 20
-75.974630
 30
0.0
  0
SPLINE
  5
11f
100
AcDbEntity
  8
0
 62
7
100
AcDbSpline
 70
8
 71
3
 72
8
 73
4
 74
0
 40
0
 40
0
 40
0
 40
0
 40
1
 40
1
 40
1
 40
1
 10
458.708882
 20
-75.974630
 30
0.0
 10
458.315433
 20
-76.178498
 30
0.0
 10
457.955717
 20
-76.415559
 30
0.0
 10
457.629732
 20
-76.685786
 30
0.0
  0
SPLINE
  5
120
100
AcDbEntity
  8
0
 62
7
100
AcDbSpline
 70
8
 71
3
 72
8
 73
4
 74
0
 40
0
 40
0
 40
0
 40
0
 40
1
 40
1
 40
1
 40
1
 10
457.629732
 20
-76.685786
 30
0.0
 10
457.309701
 20
-76.960917
 30
0.0
 10
457.027654
 20
-77.299572
 30
0.0
 10
457.021701
 20
-77.679188
 30
0.0
  0
LWPOLYLINE
  5
121
100
AcDbEntity
  8
0
 62
7
100
AcDbPolyline
 90
3
 70
0
 10
463.710331
 20
-25.491745
 30
0.0
 10
463.710331
 20
-74.811745
 30
0.0
 10
463.151622
 20
-74.811745
 30
0.0
  0
SPLINE
  5
122
100
AcDbEntity
  8
0
 62
7
100
AcDbSpline
 70
8
 71
3
 72
8
 73
4
 74
0
 40
0
 40
0
 40
0
 40
0
 40
1
 40
1
 40
1
 40
1
 10
384.612378
 20
-93.531745
 30
0.0
 10
384.314457
 20
-75.828249
 30
0.0
 10
384.044598
 20
-58.124526
 30
0.0
 10
383.803370
 20
-40.420690
 30
0.0
  0
LWPOLYLINE
  5
123
100
AcDbEntity
  8
0
 62
7
100
AcDbPolyline
 90
6
 70
0
 10
457.021701
 20
-77.679188
 30
0.0
 10
457.021701
 20
-77.679188
 30
0.0
 10
456.761480
 20
-93.531745
 30
0.0
 10
456.761480
 20
-93.531745
 30
0.0
 10
384.612378
 20
-93.531745
 30
0.0
 10
384.612378
 20
-93.531745
 30
0.0
  0
SPLINE
  5
124
100
AcDbEntity
  8
0
 62
7
100
AcDbSpline
 70
8
 71
3
 72
8
 73
4
 74
0
 40
0
 40
0
 40
0
 40
0
 40
1
 40
1
 40
1
 40
1
 10
383.803370
 20
-40.420690
 30
0.0
 10
383.741575
 20
-35.560690
 30
0.0
 10
383.656535
 20
-30.701824
 30
0.0
 10
383.548819
 20
-25.844375
 30
0.0
  0
LWPOLYLINE
  5
125
100
AcDbEntity
  8
0
 62
7
100
AcDbPolyline
 90
1
 70
1
 10
383.803370
 20
-40.420690
 30
0.0
  0
LWPOLYLINE
  5
126
100
AcDbEntity
  8
0
 62
7
100
AcDbPolyline
 90
4
 70
1
 10
420.686929
 20
-72.651745
 30
0.0
 10
420.686929
 20
-72.651745
 30
0.0
 10
420.686929
 20
-72.651745
 30
0.0
 10
420.686929
 20
-72.651745
 30
0.0
  0
SPLINE
  5
127
100
AcDbEntity
  8
0
 62
7
100
AcDbSpline
 70
8
 71
3
 72
8
 73
4
 74
0
 40
0
 40
0
 40
0
 40
0
 40
1
 40
1
 40
1
 40
1
 10
470.450268
 20
-25.131745
 30
0.0
 10
470.451402
 20
-24.847430
 30
0.0
 10
470.332630
 20
-24.565383
 30
0.0
 10
470.127402
 20
-24.366108
 30
0.0
  0
SPLINE
  5
128
100
AcDbEntity
  8
0
 62
7
100
AcDbSpline
 70
8
 71
3
 72
8
 73
4
 74
0
 40
0
 40
0
 40
0
 40
0
 40
1
 40
1
 40
1
 40
1
 10
470.127402
 20
-24.366108
 30
0.0
 10
469.925008
 20
-24.165982
 30
0.0
 10
469.640126
 20
-24.050611
 30
0.0
 10
469.352976
 20
-24.051745
 30
0.0
  0
LWPOLYLINE
  5
129
100
AcDbEntity
  8
0
 62
7
100
AcDbPolyline
 90
4
 70
0
 10
470.522835
 20
-89.211745
 30
0.0
 10
470.450268
 20
-89.211745
 30
0.0
 10
470.450268
 20
-25.131745
 30
0.0
 10
470.450268
 20
-25.131745
 30
0.0
  0
SPLINE
  5
12a
100
AcDbEntity
  8
0
 62
7
100
AcDbSpline
 70
8
 71
3
 72
8
 73
4
 74
0
 40
0
 40
0
 40
0
 40
0
 40
1
 40
1
 40
1
 40
1
 10
465.817606
 20
-24.051745
 30
0.0
 10
465.184063
 20
-24.050328
 30
0.0
 10
464.524724
 20
-24.272281
 30
0.0
 10
464.108031
 20
-24.665730
 30
0.0
  0
SPLINE
  5
12b
100
AcDbEntity
  8
0
 62
7
100
AcDbSpline
 70
8
 71
3
 72
8
 73
4
 74
0
 40
0
 40
0
 40
0
 40
0
 40
1
 40
1
 40
1
 40
1
 10
464.108031
 20
-24.665730
 30
0.0
 10
463.859717
 20
-24.898454
 30
0.0
 10
463.708630
 20
-25.192974
 30
0.0
 10
463.710331
 20
-25.491745
 30
0.0
  0
LWPOLYLINE
  5
12c
100
AcDbEntity
  8
0
 62
7
100
AcDbPolyline
 90
2
 70
0
 10
469.352976
 20
-24.051745
 30
0.0
 10
465.817606
 20
-24.051745
 30
0.0
  0
SPLINE
  5
12d
100
AcDbEntity
  8
0
 62
7
100
AcDbSpline
 70
8
 71
3
 72
8
 73
4
 74
0
 40
0
 40
0
 40
0
 40
0
 40
1
 40
1
 40
1
 40
1
 10
463.151622
 20
-74.811745
 30
0.0
 10
462.096283
 20
-74.812873
 30
0.0
 10
461.022236
 20
-75.035626
 30
0.0
 10
460.007150
 20
-75.401851
 30
0.0
  0
SPLINE
  5
12e
100
AcDbEntity
  8
0
 62
7
100
AcDbSpline
 70
8
 71
3
 72
8
 73
4
 74
0
 40
0
 40
0
 40
0
 40
0
 40
1
 40
1
 40
1
 40
1
 10
460.007150
 20
-75.401851
 30
0.0
 10
459.558992
 20
-75.563465
 30
0.0
 10
459.126142
 20
-75.754407
 30
0.0
 10
458.708882
 20
-75.974630
 30
0.0
  0
SPLINE
  5
12f
100
AcDbEntity
  8
0
 62
7
100
AcDbSpline
 70
8
 71
3
 72
8
 73
4
 74
0
 40
0
 40
0
 40
0
 40
0
 40
1
 40
1
 40
1
 40
1
 10
458.708882
 20
-75.974630
 30
0.0
 10
458.315433
 20
-76.178498
 30
0.0
 10
457.955717
 20
-76.415559
 30
0.0
 10
457.629732
 20
-76.685786
 30
0.0
  0
SPLINE
  5
130
100
AcDbEntity
  8
0
 62
7
100
AcDbSpline
 70
8
 71
3
 72
8
 73
4
 74
0
 40
0
 40
0
 40
0
 40
0
 40
1
 40
1
 40
1
 40
1
 10
457.629732
 20
-76.685786
 30
0.0
 10
457.309701
 20
-76.960917
 30
0.0
 10
457.027654
 20
-77.299572
 30
0.0
 10
457.021701
 20
-77.679188
 30
0.0
  0
LWPOLYLINE
  5
131
100
AcDbEntity
  8
0
 62
7
100
AcDbPolyline
 90
3
 70
0
 10
463.710331
 20
-25.491745
 30
0.0
 10
463.710331
 20
-74.811745
 30
0.0
 10
463.151622
 20
-74.811745
 30
0.0
  0
SPLINE
  5
132
100
AcDbEntity
  8
0
 62
7
100
AcDbSpline
 70
8
 71
3
 72
8
 73
4
 74
0
 40
0
 40
0
 40
0
 40
0
 40
1
 40
1
 40
1
 40
1
 10
384.612378
 20
-93.531745
 30
0.0
 10
384.314457
 20
-75.828249
 30
0.0
 10
384.044598
 20
-58.124526
 30
0.0
 10
383.803370
 20
-40.420690
 30
0.0
  0
LWPOLYLINE
  5
133
100
AcDbEntity
  8
0
 62
7
100
AcDbPolyline
 90
6
 70
0
 10
457.021701
 20
-77.679188
 30
0.0
 10
457.021701
 20
-77.679188
 30
0.0
 10
456.761480
 20
-93.531745
 30
0.0
 10
456.761480
 20
-93.531745
 30
0.0
 10
384.612378
 20
-93.531745
 30
0.0
 10
384.612378
 20
-93.531745
 30
0.0
  0
SPLINE
  5
134
100
AcDbEntity
  8
0
 62
7
100
AcDbSpline
 70
8
 71
3
 72
8
 73
4
 74
0
 40
0
 40
0
 40
0
 40
0
 40
1
 40
1
 40
1
 40
1
 10
383.803370
 20
-40.420690
 30
0.0
 10
383.741575
 20
-35.560690
 30
0.0
 10
383.656535
 20
-30.701824
 30
0.0
 10
383.548819
 20
-25.844375
 30
0.0
  0
LWPOLYLINE
  5
135
100
AcDbEntity
  8
0
 62
7
100
AcDbPolyline
 90
1
 70
1
 10
383.803370
 20
-40.420690
 30
0.0
  0
SPLINE
  5
136
100
AcDbEntity
  8
0
 62
7
100
AcDbSpline
 70
8
 71
3
 72
8
 73
4
 74
0
 40
0
 40
0
 40
0
 40
0
 40
1
 40
1
 40
1
 40
1
 10
383.548819
 20
-25.844375
 30
0.0
 10
383.547969
 20
-25.716249
 30
0.0
 10
383.454709
 20
-25.593226
 30
0.0
 10
383.331969
 20
-25.578485
 30
0.0
  0
SPLINE
  5
137
100
AcDbEntity
  8
0
 62
7
100
AcDbSpline
 70
8
 71
3
 72
8
 73
4
 74
0
 40
0
 40
0
 40
0
 40
0
 40
1
 40
1
 40
1
 40
1
 10
383.331969
 20
-25.578485
 30
0.0
 10
383.176630
 20
-25.556092
 30
0.0
 10
383.060693
 20
-25.713131
 30
0.0
 10
383.066079
 20
-25.845509
 30
0.0
  0
LWPOLYLINE
  5
138
100
AcDbEntity
  8
0
 62
7
100
AcDbPolyline
 90
1
 70
1
 10
383.548819
 20
-25.844375
 30
0.0
  0
SPLINE
  5
139
100
AcDbEntity
  8
0
 62
7
100
AcDbSpline
 70
8
 71
3
 72
8
 73
4
 74
0
 40
0
 40
0
 40
0
 40
0
 40
1
 40
1
 40
1
 40
1
 10
383.066079
 20
-25.845509
 30
0.0
 10
382.935969
 20
-33.292690
 30
0.0
 10
382.888063
 20
-40.743556
 30
0.0
 10
382.836189
 20
-48.193714
 30
0.0
  0
SPLINE
  5
13a
100
AcDbEntity
  8
0
 62
7
100
AcDbSpline
 70
8
 71
3
 72
8
 73
4
 74
0
 40
0
 40
0
 40
0
 40
0
 40
1
 40
1
 40
1
 40
1
 10
382.836189
 20
-48.193714
 30
0.0
 10
382.779213
 20
-57.461248
 30
0.0
 10
382.736409
 20
-66.729065
 30
0.0
 10
382.707213
 20
-75.997137
 30
0.0
  0
LWPOLYLINE
  5
13b
100
AcDbEntity
  8
0
 62
7
100
AcDbPolyline
 90
1
 70
1
 10
383.066079
 20
-25.845509
 30
0.0
  0
SPLINE
  5
13c
100
AcDbEntity
  8
0
 62
7
100
AcDbSpline
 70
8
 71
3
 72
8
 73
4
 74
0
 40
0
 40
0
 40
0
 40
0
 40
1
 40
1
 40
1
 40
1
 10
382.707213
 20
-75.997137
 30
0.0
 10
381.332976
 20
-75.270864
 30
0.0
 10
379.756913
 20
-74.818908
 30
0.0
 10
378.222236
 20
-74.811745
 30
0.0
  0
LWPOLYLINE
  5
13d
100
AcDbEntity
  8
0
 62
7
100
AcDbPolyline
 90
1
 70
1
 10
382.707213
 20
-75.997137
 30
0.0
  0
SPLINE
  5
13e
100
AcDbEntity
  8
0
 62
7
100
AcDbSpline
 70
8
 71
3
 72
8
 73
4
 74
0
 40
0
 40
0
 40
0
 40
0
 40
1
 40
1
 40
1
 40
1
 10
377.457165
 20
-25.491745
 30
0.0
 10
377.458866
 20
-25.191556
 30
0.0
 10
377.308346
 20
-24.895619
 30
0.0
 10
377.060031
 20
-24.661761
 30
0.0
  0
SPLINE
  5
13f
100
AcDbEntity
  8
0
 62
7
100
AcDbSpline
 70
8
 71
3
 72
8
 73
4
 74
0
 40
0
 40
0
 40
0
 40
0
 40
1
 40
1
 40
1
 40
1
 10
377.060031
 20
-24.661761
 30
0.0
 10
376.648441
 20
-24.271147
 30
0.0
 10
375.997323
 20
-24.050328
 30
0.0
 10
375.370866
 20
-24.051745
 30
0.0
  0
LWPOLYLINE
  5
140
100
AcDbEntity
  8
0
 62
7
100
AcDbPolyline
 90
4
 70
0
 10
378.222236
 20
-74.811745
 30
0.0
 10
377.457165
 20
-74.811745
 30
0.0
 10
377.457165
 20
-25.491745
 30
0.0
 10
377.457165
 20
-25.491745
 30
0.0
  0
SPLINE
  5
141
100
AcDbEntity
  8
0
 62
7
100
AcDbSpline
 70
8
 71
3
 72
8
 73
4
 74
0
 40
0
 40
0
 40
0
 40
0
 40
1
 40
1
 40
1
 40
1
 10
372.020882
 20
-24.051745
 30
0.0
 10
371.733732
 20
-24.050611
 30
0.0
 10
371.448850
 20
-24.165982
 30
0.0
 10
371.246457
 20
-24.366108
 30
0.0
  0
SPLINE
  5
142
100
AcDbEntity
  8
0
 62
7
100
AcDbSpline
 70
8
 71
3
 72
8
 73
4
 74
0
 40
0
 40
0
 40
0
 40
0
 40
1
 40
1
 40
1
 40
1
 10
371.246457
 20
-24.366108
 30
0.0
 10
371.041228
 20
-24.565383
 30
0.0
 10
370.922457
 20
-24.847430
 30
0.0
 10
370.923591
 20
-25.131745
 30
0.0
  0
LWPOLYLINE
  5
143
100
AcDbEntity
  8
0
 62
7
100
AcDbPolyline
 90
2
 70
0
 10
375.370866
 20
-24.051745
 30
0.0
 10
372.020882
 20
-24.051745
 30
0.0
  0
SPLINE
  5
144
100
AcDbEntity
  8
0
 62
7
100
AcDbSpline
 70
8
 71
3
 72
8
 73
4
 74
0
 40
0
 40
0
 40
0
 40
0
 40
1
 40
1
 40
1
 40
1
 10
370.826929
 20
-100.280385
 30
0.0
 10
366.387307
 20
-100.908117
 30
0.0
 10
363.086929
 20
-104.707903
 30
0.0
 10
363.086929
 20
-109.191745
 30
0.0
  0
SPLINE
  5
145
100
AcDbEntity
  8
0
 62
7
100
AcDbSpline
 70
8
 71
3
 72
8
 73
4
 74
0
 40
0
 40
0
 40
0
 40
0
 40
1
 40
1
 40
1
 40
1
 10
363.086929
 20
-109.191745
 30
0.0
 10
363.086929
 20
-112.672123
 30
0.0
 10
365.093575
 20
-115.840690
 30
0.0
 10
368.240031
 20
-117.328312
 30
0.0
  0
SPLINE
  5
146
100
AcDbEntity
  8
0
 62
7
100
AcDbSpline
 70
8
 71
3
 72
8
 73
4
 74
0
 40
0
 40
0
 40
0
 40
0
 40
1
 40
1
 40
1
 40
1
 10
368.240031
 20
-117.328312
 30
0.0
 10
371.386772
 20
-118.815934
 30
0.0
 10
375.108945
 20
-118.355871
 30
0.0
 10
377.798457
 20
-116.147115
 30
0.0
  0
SPLINE
  5
147
100
AcDbEntity
  8
0
 62
7
100
AcDbSpline
 70
8
 71
3
 72
8
 73
4
 74
0
 40
0
 40
0
 40
0
 40
0
 40
1
 40
1
 40
1
 40
1
 10
377.798457
 20
-116.147115
 30
0.0
 10
378.720850
 20
-119.179336
 30
0.0
 10
381.517512
 20
-121.251745
 30
0.0
 10
384.686929
 20
-121.251745
 30
0.0
  0
LWPOLYLINE
  5
148
100
AcDbEntity
  8
0
 62
7
100
AcDbPolyline
 90
4
 70
0
 10
370.923591
 20
-25.131745
 30
0.0
 10
370.923591
 20
-25.131745
 30
0.0
 10
370.875118
 20
-89.211745
 30
0.0
 10
370.826929
 20
-100.280385
 30
0.0
  0
SPLINE
  5
149
100
AcDbEntity
  8
0
 62
7
100
AcDbSpline
 70
8
 71
3
 72
8
 73
4
 74
0
 40
0
 40
0
 40
0
 40
0
 40
1
 40
1
 40
1
 40
1
 10
456.686929
 20
-121.251745
 30
0.0
 10
459.856346
 20
-121.251745
 30
0.0
 10
462.653008
 20
-119.179336
 30
0.0
 10
463.575402
 20
-116.147115
 30
0.0
  0
SPLINE
  5
14a
100
AcDbEntity
  8
0
 62
7
100
AcDbSpline
 70
8
 71
3
 72
8
 73
4
 74
0
 40
0
 40
0
 40
0
 40
0
 40
1
 40
1
 40
1
 40
1
 10
463.575402
 20
-116.147115
 30
0.0
 10
466.264913
 20
-118.355871
 30
0.0
 10
469.987087
 20
-118.815934
 30
0.0
 10
473.133827
 20
-117.328312
 30
0.0
  0
SPLINE
  5
14b
100
AcDbEntity
  8
0
 62
7
100
AcDbSpline
 70
8
 71
3
 72
8
 73
4
 74
0
 40
0
 40
0
 40
0
 40
0
 40
1
 40
1
 40
1
 40
1
 10
473.133827
 20
-117.328312
 30
0.0
 10
476.280283
 20
-115.840690
 30
0.0
 10
478.286929
 20
-112.672123
 30
0.0
 10
478.286929
 20
-109.191745
 30
0.0
  0
SPLINE
  5
14c
100
AcDbEntity
  8
0
 62
7
100
AcDbSpline
 70
8
 71
3
 72
8
 73
4
 74
0
 40
0
 40
0
 40
0
 40
0
 40
1
 40
1
 40
1
 40
1
 10
478.286929
 20
-109.191745
 30
0.0
 10
478.286929
 20
-104.707903
 30
0.0
 10
474.986551
 20
-100.908117
 30
0.0
 10
470.546929
 20
-100.280385
 30
0.0
  0
LWPOLYLINE
  5
14d
100
AcDbEntity
  8
0
 62
7
100
AcDbPolyline
 90
2
 70
0
 10
384.686929
 20
-121.251745
 30
0.0
 10
456.686929
 20
-121.251745
 30
0.0
  0
LWPOLYLINE
  5
14e
100
AcDbEntity
  8
0
 62
7
100
AcDbPolyline
 90
2
 70
0
 10
470.546929
 20
-100.280385
 30
0.0
 10
470.522835
 20
-89.211745
 30
0.0
  0
SPLINE
  5
14f
100
AcDbEntity
  8
0
 62
7
100
AcDbSpline
 70
8
 71
3
 72
8
 73
4
 74
0
 40
0
 40
0
 40
0
 40
0
 40
1
 40
1
 40
1
 40
1
 10
370.923591
 20
-25.131745
 30
0.0
 10
370.922457
 20
-24.847430
 30
0.0
 10
371.041228
 20
-24.565383
 30
0.0
 10
371.246457
 20
-24.366108
 30
0.0
  0
SPLINE
  5
150
100
AcDbEntity
  8
0
 62
7
100
AcDbSpline
 70
8
 71
3
 72
8
 73
4
 74
0
 40
0
 40
0
 40
0
 40
0
 40
1
 40
1
 40
1
 40
1
 10
371.246457
 20
-24.366108
 30
0.0
 10
371.448850
 20
-24.165982
 30
0.0
 10
371.733732
 20
-24.050611
 30
0.0
 10
372.020882
 20
-24.051745
 30
0.0
  0
LWPOLYLINE
  5
151
100
AcDbEntity
  8
0
 62
7
100
AcDbPolyline
 90
2
 70
0
 10
375.370866
 20
-24.051745
 30
0.0
 10
372.020882
 20
-24.051745
 30
0.0
  0
LWPOLYLINE
  5
152
100
AcDbEntity
  8
0
 62
7
100
AcDbPolyline
 90
2
 70
0
 10
370.923591
 20
-89.211745
 30
0.0
 10
370.923591
 20
-25.131745
 30
0.0
  0
LWPOLYLINE
  5
153
100
AcDbEntity
  8
0
 62
7
100
AcDbPolyline
 90
2
 70
0
 10
370.826929
 20
-89.211745
 30
0.0
 10
370.923591
 20
-89.211745
 30
0.0
  0
SPLINE
  5
154
100
AcDbEntity
  8
0
 62
7
100
AcDbSpline
 70
8
 71
3
 72
8
 73
4
 74
0
 40
0
 40
0
 40
0
 40
0
 40
1
 40
1
 40
1
 40
1
 10
370.826929
 20
-100.280385
 30
0.0
 10
366.387307
 20
-100.908117
 30
0.0
 10
363.086929
 20
-104.707903
 30
0.0
 10
363.086929
 20
-109.191745
 30
0.0
  0
SPLINE
  5
155
100
AcDbEntity
  8
0
 62
7
100
AcDbSpline
 70
8
 71
3
 72
8
 73
4
 74
0
 40
0
 40
0
 40
0
 40
0
 40
1
 40
1
 40
1
 40
1
 10
363.086929
 20
-109.191745
 30
0.0
 10
363.086929
 20
-112.672123
 30
0.0
 10
365.093575
 20
-115.840690
 30
0.0
 10
368.240031
 20
-117.328312
 30
0.0
  0
SPLINE
  5
156
100
AcDbEntity
  8
0
 62
7
100
AcDbSpline
 70
8
 71
3
 72
8
 73
4
 74
0
 40
0
 40
0
 40
0
 40
0
 40
1
 40
1
 40
1
 40
1
 10
368.240031
 20
-117.328312
 30
0.0
 10
371.386772
 20
-118.815934
 30
0.0
 10
375.108945
 20
-118.355871
 30
0.0
 10
377.798457
 20
-116.147115
 30
0.0
  0
SPLINE
  5
157
100
AcDbEntity
  8
0
 62
7
100
AcDbSpline
 70
8
 71
3
 72
8
 73
4
 74
0
 40
0
 40
0
 40
0
 40
0
 40
1
 40
1
 40
1
 40
1
 10
384.686929
 20
-121.251745
 30
0.0
 10
381.517512
 20
-121.251745
 30
0.0
 10
378.720850
 20
-119.179336
 30
0.0
 10
377.798457
 20
-116.147115
 30
0.0
  0
LWPOLYLINE
  5
158
100
AcDbEntity
  8
0
 62
7
100
AcDbPolyline
 90
2
 70
0
 10
370.826929
 20
-89.211745
 30
0.0
 10
370.826929
 20
-100.280385
 30
0.0
  0
SPLINE
  5
159
100
AcDbEntity
  8
0
 62
7
100
AcDbSpline
 70
8
 71
3
 72
8
 73
4
 74
0
 40
0
 40
0
 40
0
 40
0
 40
1
 40
1
 40
1
 40
1
 10
456.686929
 20
-121.251745
 30
0.0
 10
459.856346
 20
-121.251745
 30
0.0
 10
462.653008
 20
-119.179336
 30
0.0
 10
463.575402
 20
-116.147115
 30
0.0
  0
SPLINE
  5
15a
100
AcDbEntity
  8
0
 62
7
100
AcDbSpline
 70
8
 71
3
 72
8
 73
4
 74
0
 40
0
 40
0
 40
0
 40
0
 40
1
 40
1
 40
1
 40
1
 10
463.575402
 20
-116.147115
 30
0.0
 10
466.264913
 20
-118.355871
 30
0.0
 10
469.987087
 20
-118.815934
 30
0.0
 10
473.133827
 20
-117.328312
 30
0.0
  0
SPLINE
  5
15b
100
AcDbEntity
  8
0
 62
7
100
AcDbSpline
 70
8
 71
3
 72
8
 73
4
 74
0
 40
0
 40
0
 40
0
 40
0
 40
1
 40
1
 40
1
 40
1
 10
473.133827
 20
-117.328312
 30
0.0
 10
476.280283
 20
-115.840690
 30
0.0
 10
478.286929
 20
-112.672123
 30
0.0
 10
478.286929
 20
-109.191745
 30
0.0
  0
SPLINE
  5
15c
100
AcDbEntity
  8
0
 62
7
100
AcDbSpline
 70
8
 71
3
 72
8
 73
4
 74
0
 40
0
 40
0
 40
0
 40
0
 40
1
 40
1
 40
1
 40
1
 10
478.286929
 20
-109.191745
 30
0.0
 10
478.286929
 20
-104.707903
 30
0.0
 10
474.986551
 20
-100.908117
 30
0.0
 10
470.546929
 20
-100.280385
 30
0.0
  0
LWPOLYLINE
  5
15d
100
AcDbEntity
  8
0
 62
7
100
AcDbPolyline
 90
2
 70
0
 10
456.686929
 20
-121.251745
 30
0.0
 10
384.686929
 20
-121.251745
 30
0.0
  0
LWPOLYLINE
  5
15e
100
AcDbEntity
  8
0
 62
7
100
AcDbPolyline
 90
2
 70
0
 10
470.546929
 20
-100.280385
 30
0.0
 10
470.546929
 20
-89.211745
 30
0.0
  0
LWPOLYLINE
  5
15f
100
AcDbEntity
  8
0
 62
7
100
AcDbPolyline
 90
2
 70
0
 10
470.450268
 20
-89.211745
 30
0.0
 10
470.546929
 20
-89.211745
 30
0.0
  0
SPLINE
  5
160
100
AcDbEntity
  8
0
 62
7
100
AcDbSpline
 70
8
 71
3
 72
8
 73
4
 74
0
 40
0
 40
0
 40
0
 40
0
 40
1
 40
1
 40
1
 40
1
 10
470.450268
 20
-25.131745
 30
0.0
 10
470.451402
 20
-24.847430
 30
0.0
 10
470.332630
 20
-24.565383
 30
0.0
 10
470.127402
 20
-24.366108
 30
0.0
  0
SPLINE
  5
161
100
AcDbEntity
  8
0
 62
7
100
AcDbSpline
 70
8
 71
3
 72
8
 73
4
 74
0
 40
0
 40
0
 40
0
 40
0
 40
1
 40
1
 40
1
 40
1
 10
470.127402
 20
-24.366108
 30
0.0
 10
469.925008
 20
-24.165982
 30
0.0
 10
469.640126
 20
-24.050611
 30
0.0
 10
469.352976
 20
-24.051745
 30
0.0
  0
LWPOLYLINE
  5
162
100
AcDbEntity
  8
0
 62
7
100
AcDbPolyline
 90
2
 70
0
 10
470.450268
 20
-89.211745
 30
0.0
 10
470.450268
 20
-25.131745
 30
0.0
  0
SPLINE
  5
163
100
AcDbEntity
  8
0
 62
7
100
AcDbSpline
 70
8
 71
3
 72
8
 73
4
 74
0
 40
0
 40
0
 40
0
 40
0
 40
1
 40
1
 40
1
 40
1
 10
465.817606
 20
-24.051745
 30
0.0
 10
465.184063
 20
-24.050328
 30
0.0
 10
464.524724
 20
-24.272281
 30
0.0
 10
464.108031
 20
-24.665730
 30
0.0
  0
SPLINE
  5
164
100
AcDbEntity
  8
0
 62
7
100
AcDbSpline
 70
8
 71
3
 72
8
 73
4
 74
0
 40
0
 40
0
 40
0
 40
0
 40
1
 40
1
 40
1
 40
1
 10
464.108031
 20
-24.665730
 30
0.0
 10
463.859717
 20
-24.898454
 30
0.0
 10
463.708630
 20
-25.192974
 30
0.0
 10
463.710331
 20
-25.491745
 30
0.0
  0
LWPOLYLINE
  5
165
100
AcDbEntity
  8
0
 62
7
100
AcDbPolyline
 90
2
 70
0
 10
469.352976
 20
-24.051745
 30
0.0
 10
465.817606
 20
-24.051745
 30
0.0
  0
LWPOLYLINE
  5
166
100
AcDbEntity
  8
0
 62
7
100
AcDbPolyline
 90
2
 70
0
 10
463.710331
 20
-74.811745
 30
0.0
 10
463.710331
 20
-25.491745
 30
0.0
  0
SPLINE
  5
167
100
AcDbEntity
  8
0
 62
7
100
AcDbSpline
 70
8
 71
3
 72
8
 73
4
 74
0
 40
0
 40
0
 40
0
 40
0
 40
1
 40
1
 40
1
 40
1
 10
463.151622
 20
-74.811745
 30
0.0
 10
462.096283
 20
-74.812873
 30
0.0
 10
461.022236
 20
-75.035626
 30
0.0
 10
460.007150
 20
-75.401851
 30
0.0
  0
SPLINE
  5
168
100
AcDbEntity
  8
0
 62
7
100
AcDbSpline
 70
8
 71
3
 72
8
 73
4
 74
0
 40
0
 40
0
 40
0
 40
0
 40
1
 40
1
 40
1
 40
1
 10
460.007150
 20
-75.401851
 30
0.0
 10
459.558992
 20
-75.563465
 30
0.0
 10
459.126142
 20
-75.754407
 30
0.0
 10
458.708882
 20
-75.974630
 30
0.0
  0
SPLINE
  5
169
100
AcDbEntity
  8
0
 62
7
100
AcDbSpline
 70
8
 71
3
 72
8
 73
4
 74
0
 40
0
 40
0
 40
0
 40
0
 40
1
 40
1
 40
1
 40
1
 10
458.708882
 20
-75.974630
 30
0.0
 10
458.315433
 20
-76.178498
 30
0.0
 10
457.955717
 20
-76.415559
 30
0.0
 10
457.629732
 20
-76.685786
 30
0.0
  0
SPLINE
  5
16a
100
AcDbEntity
  8
0
 62
7
100
AcDbSpline
 70
8
 71
3
 72
8
 73
4
 74
0
 40
0
 40
0
 40
0
 40
0
 40
1
 40
1
 40
1
 40
1
 10
457.629732
 20
-76.685786
 30
0.0
 10
457.309701
 20
-76.960917
 30
0.0
 10
457.027654
 20
-77.299572
 30
0.0
 10
457.021701
 20
-77.679188
 30
0.0
  0
LWPOLYLINE
  5
16b
100
AcDbEntity
  8
0
 62
7
100
AcDbPolyline
 90
2
 70
0
 10
463.710331
 20
-74.811745
 30
0.0
 10
463.151622
 20
-74.811745
 30
0.0
  0
SPLINE
  5
16c
100
AcDbEntity
  8
0
 62
7
100
AcDbSpline
 70
8
 71
3
 72
8
 73
4
 74
0
 40
0
 40
0
 40
0
 40
0
 40
1
 40
1
 40
1
 40
1
 10
384.612378
 20
-93.531745
 30
0.0
 10
384.314457
 20
-75.828249
 30
0.0
 10
384.044598
 20
-58.124526
 30
0.0
 10
383.803370
 20
-40.420690
 30
0.0
  0
SPLINE
  5
16d
100
AcDbEntity
  8
0
 62
7
100
AcDbSpline
 70
8
 71
3
 72
8
 73
4
 74
0
 40
0
 40
0
 40
0
 40
0
 40
1
 40
1
 40
1
 40
1
 10
383.548819
 20
-25.844375
 30
0.0
 10
383.656535
 20
-30.701824
 30
0.0
 10
383.741575
 20
-35.560690
 30
0.0
 10
383.803370
 20
-40.420690
 30
0.0
  0
SPLINE
  5
16e
100
AcDbEntity
  8
0
 62
7
100
AcDbSpline
 70
8
 71
3
 72
8
 73
4
 74
0
 40
0
 40
0
 40
0
 40
0
 40
1
 40
1
 40
1
 40
1
 10
383.548819
 20
-25.844375
 30
0.0
 10
383.547969
 20
-25.716249
 30
0.0
 10
383.454709
 20
-25.593226
 30
0.0
 10
383.331969
 20
-25.578485
 30
0.0
  0
SPLINE
  5
16f
100
AcDbEntity
  8
0
 62
7
100
AcDbSpline
 70
8
 71
3
 72
8
 73
4
 74
0
 40
0
 40
0
 40
0
 40
0
 40
1
 40
1
 40
1
 40
1
 10
383.331969
 20
-25.578485
 30
0.0
 10
383.176630
 20
-25.556092
 30
0.0
 10
383.060693
 20
-25.713131
 30
0.0
 10
383.066079
 20
-25.845509
 30
0.0
  0
SPLINE
  5
170
100
AcDbEntity
  8
0
 62
7
100
AcDbSpline
 70
8
 71
3
 72
8
 73
4
 74
0
 40
0
 40
0
 40
0
 40
0
 40
1
 40
1
 40
1
 40
1
 10
382.707213
 20
-75.997137
 30
0.0
 10
382.736409
 20
-66.729065
 30
0.0
 10
382.779213
 20
-57.461248
 30
0.0
 10
382.836189
 20
-48.193714
 30
0.0
  0
SPLINE
  5
171
100
AcDbEntity
  8
0
 62
7
100
AcDbSpline
 70
8
 71
3
 72
8
 73
4
 74
0
 40
0
 40
0
 40
0
 40
0
 40
1
 40
1
 40
1
 40
1
 10
382.836189
 20
-48.193714
 30
0.0
 10
382.888063
 20
-40.743556
 30
0.0
 10
382.935969
 20
-33.292690
 30
0.0
 10
383.066079
 20
-25.845509
 30
0.0
  0
SPLINE
  5
172
100
AcDbEntity
  8
0
 62
7
100
AcDbSpline
 70
8
 71
3
 72
8
 73
4
 74
0
 40
0
 40
0
 40
0
 40
0
 40
1
 40
1
 40
1
 40
1
 10
378.222236
 20
-74.811745
 30
0.0
 10
379.756913
 20
-74.818908
 30
0.0
 10
381.332976
 20
-75.270864
 30
0.0
 10
382.707213
 20
-75.997137
 30
0.0
  0
LWPOLYLINE
  5
173
100
AcDbEntity
  8
0
 62
7
100
AcDbPolyline
 90
3
 70
0
 10
457.021701
 20
-77.679188
 30
0.0
 10
456.761480
 20
-93.531745
 30
0.0
 10
384.612378
 20
-93.531745
 30
0.0
  0
SPLINE
  5
174
100
AcDbEntity
  8
0
 62
7
100
AcDbSpline
 70
8
 71
3
 72
8
 73
4
 74
0
 40
0
 40
0
 40
0
 40
0
 40
1
 40
1
 40
1
 40
1
 10
375.370866
 20
-24.051745
 30
0.0
 10
375.997323
 20
-24.050328
 30
0.0
 10
376.648441
 20
-24.271147
 30
0.0
 10
377.060031
 20
-24.661761
 30
0.0
  0
SPLINE
  5
175
100
AcDbEntity
  8
0
 62
7
100
AcDbSpline
 70
8
 71
3
 72
8
 73
4
 74
0
 40
0
 40
0
 40
0
 40
0
 40
1
 40
1
 40
1
 40
1
 10
377.060031
 20
-24.661761
 30
0.0
 10
377.308346
 20
-24.895619
 30
0.0
 10
377.458866
 20
-25.191556
 30
0.0
 10
377.457165
 20
-25.491745
 30
0.0
  0
LWPOLYLINE
  5
176
100
AcDbEntity
  8
0
 62
7
100
AcDbPolyline
 90
3
 70
0
 10
378.222236
 20
-74.811745
 30
0.0
 10
377.457165
 20
-74.811745
 30
0.0
 10
377.457165
 20
-25.491745
 30
0.0
  0
LWPOLYLINE
  5
177
100
AcDbEntity
  8
0
 62
7
100
AcDbPolyline
 90
24
 70
1
 10
420.686929
 20
-72.651745
 30
0.0
 10
420.686929
 20
-72.651745
 30
0.0
 10
420.686929
 20
-72.651745
 30
0.0
 10
420.686929
 20
-72.651745
 30
0.0
 10
420.686929
 20
-72.651745
 30
0.0
 10
420.686929
 20
-72.651745
 30
0.0
 10
420.686929
 20
-72.651745
 30
0.0
 10
420.686929
 20
-72.651745
 30
0.0
 10
420.686929
 20
-72.651745
 30
0.0
 10
420.686929
 20
-72.651745
 30
0.0
 10
420.686929
 20
-72.651745
 30
0.0
 10
420.686929
 20
-72.651745
 30
0.0
 10
420.686929
 20
-72.651745
 30
0.0
 10
420.686929
 20
-72.651745
 30
0.0
 10
420.686929
 20
-72.651745
 30
0.0
 10
420.686929
 20
-72.651745
 30
0.0
 10
420.686929
 20
-72.651745
 30
0.0
 10
420.686929
 20
-72.651745
 30
0.0
 10
420.686929
 20
-72.651745
 30
0.0
 10
420.686929
 20
-72.651745
 30
0.0
 10
420.686929
 20
-72.651745
 30
0.0
 10
420.686929
 20
-72.651745
 30
0.0
 10
420.686929
 20
-72.651745
 30
0.0
 10
420.686929
 20
-72.651745
 30
0.0
  0
ENDSEC
  0
SECTION
  2
OBJECTS
  0
DICTIONARY
  5
C
330
0
100
AcDbDictionary
  3
ACAD_GROUP
350
D
  3
ACAD_MLINESTYLE
350
17
  0
DICTIONARY
  5
D
330
C
100
AcDbDictionary
  0
DICTIONARY
  5
1A
330
C
100
AcDbDictionary
  0
DICTIONARY
  5
17
330
C
100
AcDbDictionary
  3
STANDARD
350
18
  0
DICTIONARY
  5
19
330
C
100
AcDbDictionary
  0
ENDSEC
  0
EOF
